<?xml version="1.0" standalone="no"?>
<!DOCTYPE svg PUBLIC "-//W3C//DTD SVG 1.1//EN" "http://www.w3.org/Graphics/SVG/1.1/DTD/svg11.dtd" >
<svg xmlns="http://www.w3.org/2000/svg" xmlns:xlink="http://www.w3.org/1999/xlink" version="1.1">
<metadata>
Created by FontForge 20190801 at Sat Oct 31 12:01:50 2015
 By root
Copyright \(c\) 2006 by Double Alex Font Studio. All rights reserved.
</metadata>
<defs>
<font id="Didot-Bold" horiz-adv-x="354" >
  <font-face 
    font-family="Didot"
    font-weight="700"
    font-stretch="normal"
    units-per-em="1000"
    panose-1="2 0 8 3 9 0 0 2 0 3"
    ascent="700"
    descent="-300"
    x-height="426"
    cap-height="667"
    bbox="-104 -317 1142 1050"
    underline-thickness="50"
    underline-position="-100"
    unicode-range="U+0020-FB04"
  />
<missing-glyph horiz-adv-x="175" 
 />
    <glyph glyph-name="f_b" unicode="fb" horiz-adv-x="861" 
d="M313 727c-58 0 -87 -39 -87 -118v-183h94v-12h-94v-402h54v-12h-232v12h63v402h-77v12h77v20c0 113 26 197 69 238c44 41 88 57 140 57c40 0 71 -9 92 -27l84 27l6 -3v-344c25 27 58 41 97 41c59 0 110 -23 153 -70c43 -46 65 -98 65 -155s-19 -108 -58 -153
c-38 -44 -86 -66 -145 -66c-35 0 -72 14 -109 42c-25 19 -47 28 -66 28c-20 0 -40 -26 -40 -61h-12v600c0 81 -34 127 -74 127zM696 210c0 107 -12 171 -35 192c-15 14 -35 21 -62 21c-40 0 -85 -23 -97 -56v-297c19 -43 68 -67 112 -67c39 0 63 30 72 82c5 26 7 47 8 63
c1 17 2 37 2 62z" />
    <glyph glyph-name="f_h" unicode="fh" horiz-adv-x="870" 
d="M313 727c-58 0 -87 -39 -87 -118v-183h94v-12h-94v-402h54v-12h-232v12h63v402h-77v12h77v20c0 113 26 197 69 238c44 41 88 57 140 57c40 0 71 -9 92 -27l84 27l6 -3v-381c17 52 65 78 117 78c108 0 173 -62 173 -167v-256h64v-12h-241v12h62v308c0 68 -19 102 -58 102
c-60 0 -94 -30 -117 -99v-311h62v-12h-239v12h62v588c0 81 -34 127 -74 127z" />
    <glyph glyph-name="f_j" unicode="fj" horiz-adv-x="582" 
d="M387 -184v598h-161v-402h61v-12h-239v12h63v402h-77v12h77v23c0 197 81 295 242 295c50 0 88 -13 115 -38s40 -52 40 -83c0 -33 -24 -62 -59 -62c-37 0 -58 19 -58 46c0 19 16 35 16 59c0 47 -18 64 -75 64c-59 0 -106 -38 -106 -118v-186h275v-450
c0 -207 -73 -292 -188 -292c-25 0 -47 8 -67 25s-30 37 -30 60c0 28 24 54 53 54c33 0 52 -17 52 -41c0 -16 -16 -32 -16 -53c0 -24 6 -31 29 -31c35 0 53 39 53 118z" />
    <glyph glyph-name="f_k" unicode="fk" horiz-adv-x="839" 
d="M313 727c-58 0 -87 -39 -87 -118v-183h94v-12h-94v-402h54v-12h-232v12h63v402h-77v12h77v20c0 113 26 197 69 238c44 41 88 57 140 57c40 0 71 -9 92 -27l84 27l6 -3v-503l152 137c23 26 27 40 13 42h-38v12h159v-12h-42c-23 0 -49 -14 -78 -41l-89 -81l220 -280h67v-12
h-253v12h60l-171 217v-217h62v-12h-239v12h62v588c0 81 -34 127 -74 127z" />
    <glyph glyph-name="f_f_b" unicode="ffb" horiz-adv-x="1137" 
d="M589 726c-58 0 -87 -39 -87 -117v-183h94v-12h-94v-402h54v-12h-232v12h63v402h-161v-402h65v-12h-243v12h63v402h-77v12h77v40c0 183 58 274 173 274c25 0 49 -8 72 -25s35 -37 35 -60c0 -28 -23 -53 -52 -53c-35 0 -52 13 -52 38c0 16 15 34 15 55c0 24 -9 36 -28 36
c-32 0 -48 -42 -48 -126v-179h161v20c0 113 26 197 69 237c44 41 88 57 140 57c40 0 71 -9 92 -27l83 27l7 -3v-343c25 27 58 41 97 41c59 0 110 -23 153 -70c43 -46 65 -98 65 -155s-19 -108 -58 -153c-38 -44 -86 -66 -145 -66c-35 0 -72 14 -109 42c-25 19 -47 28 -66 28
c-20 0 -40 -26 -40 -61h-12v599c0 81 -34 127 -74 127zM972 210c0 107 -12 171 -35 192c-15 14 -35 21 -62 21c-40 0 -85 -23 -97 -56v-297c19 -43 68 -67 112 -67c39 0 63 30 72 82c5 26 7 47 8 63c1 17 2 37 2 62z" />
    <glyph glyph-name="f_f_h" unicode="ffh" horiz-adv-x="1146" 
d="M589 726c-58 0 -87 -39 -87 -117v-183h94v-12h-94v-402h54v-12h-232v12h63v402h-161v-402h65v-12h-243v12h63v402h-77v12h77v40c0 183 58 274 173 274c25 0 49 -8 72 -25s35 -37 35 -60c0 -28 -23 -53 -52 -53c-35 0 -52 13 -52 38c0 16 15 34 15 55c0 24 -9 36 -28 36
c-32 0 -48 -42 -48 -126v-179h161v20c0 113 26 197 69 237c44 41 88 57 140 57c40 0 71 -9 92 -27l84 27l6 -3v-380c17 52 65 78 117 78c108 0 173 -62 173 -167v-256h64v-12h-241v12h62v308c0 68 -19 102 -58 102c-60 0 -94 -30 -117 -99v-311h62v-12h-239v12h62v587
c0 81 -34 127 -74 127z" />
    <glyph glyph-name="f_f_j" unicode="ffj" horiz-adv-x="857" 
d="M663 -184v598h-161v-402h61v-12h-239v12h63v402h-161v-402h65v-12h-243v12h63v402h-77v12h77v40c0 183 58 274 173 274c25 0 49 -8 72 -25s35 -37 35 -60c0 -28 -23 -53 -52 -53c-35 0 -52 13 -52 38c0 16 15 34 15 55c0 24 -9 36 -28 36c-32 0 -48 -42 -48 -126v-179
h161v23c0 197 81 295 242 295c50 0 88 -13 115 -38s40 -52 40 -83c0 -33 -24 -62 -59 -62c-37 0 -58 19 -58 46c0 19 16 35 16 59c0 47 -18 64 -75 64c-59 0 -106 -38 -106 -118v-186h275v-450c0 -207 -73 -292 -188 -292c-25 0 -47 8 -67 25s-30 37 -30 60
c0 28 24 54 53 54c33 0 52 -17 52 -41c0 -16 -16 -32 -16 -53c0 -24 6 -31 29 -31c35 0 53 39 53 118z" />
    <glyph glyph-name="f_f_k" unicode="ffk" horiz-adv-x="1115" 
d="M589 726c-58 0 -87 -39 -87 -117v-183h94v-12h-94v-402h54v-12h-232v12h63v402h-161v-402h65v-12h-243v12h63v402h-77v12h77v40c0 183 58 274 173 274c25 0 49 -8 72 -25s35 -37 35 -60c0 -28 -23 -53 -52 -53c-35 0 -52 13 -52 38c0 16 15 34 15 55c0 24 -9 36 -28 36
c-32 0 -48 -42 -48 -126v-179h161v20c0 113 26 197 69 237c44 41 88 57 140 57c40 0 71 -9 92 -27l84 27l6 -3v-502l152 137c23 26 27 40 13 42h-38v12h159v-12h-42c-23 0 -49 -14 -78 -41l-89 -81l220 -280h67v-12h-253v12h60l-171 217v-217h62v-12h-239v12h62v587
c0 81 -34 127 -74 127z" />
    <glyph glyph-name="f_f" unicode="ff" horiz-adv-x="613" 
d="M391 655c0 -28 -23 -53 -52 -53c-35 0 -52 13 -52 38c0 16 15 34 15 55c0 24 -9 36 -28 36c-32 0 -48 -42 -48 -126v-179h161v40c0 183 58 274 173 274c25 0 49 -8 72 -25s35 -37 35 -60c0 -28 -23 -53 -52 -53c-35 0 -52 13 -52 38c0 16 15 34 15 55c0 24 -9 36 -28 36
c-32 0 -48 -42 -48 -126v-179h94v-12h-94v-402h65v-12h-243v12h63v402h-161v-402h65v-12h-243v12h63v402h-77v12h77v40c0 183 58 274 173 274c25 0 49 -8 72 -25s35 -37 35 -60z" />
    <glyph glyph-name="fi" unicode="fi" horiz-adv-x="582" 
d="M563 12v-12h-238v12h62v402h-161v-402h61v-12h-239v12h63v402h-77v12h77v20c0 197 81 295 242 295c46 0 83 -13 112 -38s43 -53 43 -83c0 -33 -24 -62 -59 -62c-37 0 -58 19 -58 46c0 19 21 43 21 67c0 37 -27 56 -80 56c-59 0 -106 -38 -106 -118v-183h275v-414h62z" />
    <glyph glyph-name="fl" unicode="fl" horiz-adv-x="582" 
d="M313 727c-58 0 -87 -39 -87 -118v-183h94v-12h-94v-402h54v-12h-232v12h63v402h-77v12h77v20c0 113 26 197 69 238c44 41 88 57 140 57c40 0 71 -9 92 -27l84 27l6 -3v-726h62v-12h-239v12h62v588c0 81 -34 127 -74 127z" />
    <glyph glyph-name="f_f_i" unicode="ffi" horiz-adv-x="858" 
d="M839 12v-12h-238v12h62v402h-161v-402h61v-12h-239v12h63v402h-161v-402h65v-12h-243v12h63v402h-77v12h77v40c0 183 58 274 173 274c25 0 49 -8 72 -25s35 -37 35 -60c0 -28 -23 -53 -52 -53c-35 0 -52 13 -52 38c0 16 15 34 15 55c0 24 -9 36 -28 36
c-32 0 -48 -42 -48 -126v-179h161v19c0 197 81 295 242 295c46 0 83 -13 112 -38s43 -53 43 -83c0 -33 -24 -62 -59 -62c-37 0 -58 19 -58 46c0 19 21 43 21 67c0 37 -27 56 -80 56c-59 0 -106 -38 -106 -118v-182h275v-414h62z" />
    <glyph glyph-name="f_f_l" unicode="ffl" horiz-adv-x="858" 
d="M589 727c-58 0 -87 -39 -87 -118v-183h94v-12h-94v-402h54v-12h-232v12h63v402h-161v-402h65v-12h-243v12h63v402h-77v12h77v40c0 183 58 275 173 275c25 0 49 -8 72 -25s35 -37 35 -60c0 -28 -23 -53 -52 -53c-35 0 -52 13 -52 38c0 16 15 34 15 55c0 24 -9 36 -28 36
c-32 0 -48 -42 -48 -127v-179h161v20c0 113 26 197 69 238c44 41 88 57 140 57c40 0 71 -9 92 -27l84 27l6 -3v-726h62v-12h-239v12h62v588c0 81 -34 127 -74 127z" />
    <glyph glyph-name=".notdef" horiz-adv-x="175" 
 />
    <glyph glyph-name="NULL" horiz-adv-x="0" 
 />
    <glyph glyph-name="CR" horiz-adv-x="333" 
 />
    <glyph glyph-name="space" unicode=" " horiz-adv-x="175" 
 />
    <glyph glyph-name="exclam" unicode="!" horiz-adv-x="238" 
d="M185 605c0 -21 -10 -84 -30 -187s-30 -186 -30 -248h-12c0 62 -10 145 -30 248s-30 166 -30 187c0 56 29 78 66 78s66 -22 66 -78zM185 53c0 -39 -28 -69 -67 -69c-35 0 -63 30 -63 69c0 35 28 63 63 63c39 0 67 -27 67 -63z" />
    <glyph glyph-name="quotedbl" unicode="&#x22;" horiz-adv-x="315" 
d="M120 633c0 -17 -5 -46 -14 -86s-14 -69 -16 -88l-1 -10h-12l-1 10c-2 19 -8 49 -17 89s-14 68 -14 85c0 25 10 50 37 50s38 -25 38 -50zM250 633c0 -17 -5 -46 -14 -86s-14 -69 -16 -88l-1 -10h-12l-1 10c-2 19 -8 49 -17 89s-14 68 -14 85c0 25 10 50 37 50
s38 -25 38 -50z" />
    <glyph glyph-name="numbersign" unicode="#" horiz-adv-x="470" 
d="M77 82h-13l43 138h-104l15 71h111l33 101h-105l16 71h111l41 130h13l-41 -130h122l42 130h13l-41 -130h108l-16 -71h-114l-33 -101h108l-16 -71h-113l-44 -138h-13l44 138h-124zM176 392l-34 -101h122l34 101h-122z" />
    <glyph glyph-name="dollar" unicode="$" horiz-adv-x="556" 
d="M301 681v81h12v-83c39 -7 72 -24 101 -50s44 -55 44 -86c0 -37 -28 -63 -56 -63c-29 0 -52 24 -52 55c0 15 5 27 16 36s16 18 16 29c0 29 -28 62 -69 70v-274c111 -40 165 -90 165 -181c0 -54 -15 -102 -46 -144c-31 -41 -70 -68 -119 -80v-86h-12v83
c-19 -3 -33 -4 -43 -4c-14 0 -25 1 -32 2v-81h-12v83c-44 8 -83 26 -117 54c-33 29 -50 60 -50 94c0 40 28 65 57 65c31 0 55 -24 55 -56c0 -15 -6 -27 -18 -37c-11 -10 -17 -20 -17 -31c0 -31 39 -69 90 -78v297c-103 39 -154 97 -154 174c0 108 63 186 154 207v85h12v-83
c12 3 26 4 43 4c14 0 25 -1 32 -2zM301 0v263c-13 5 -38 15 -75 29v-295c13 -1 24 -2 31 -2c13 0 27 2 44 5zM226 670v-240c21 -10 46 -20 75 -30v272c-8 2 -18 3 -31 3c-14 0 -29 -2 -44 -5zM410 108c0 70 -32 120 -97 150v-255c56 16 97 56 97 105zM131 561
c0 -57 23 -93 83 -125v232c-55 -16 -83 -52 -83 -107z" />
    <glyph glyph-name="percent" unicode="%" horiz-adv-x="695" 
d="M363 509c0 -45 -15 -84 -46 -117c-31 -32 -68 -48 -112 -48c-43 0 -79 16 -110 48c-30 33 -45 72 -45 117c0 46 15 85 45 117c31 33 67 49 110 49c44 0 81 -16 112 -49c31 -32 46 -71 46 -117zM272 509c0 120 -16 155 -67 155c-48 0 -65 -36 -65 -155
c0 -138 26 -154 65 -154c25 0 42 10 52 29c10 20 15 62 15 125zM645 157c0 -45 -15 -84 -46 -117c-31 -32 -68 -48 -112 -48c-43 0 -79 16 -110 48c-30 33 -45 72 -45 117c0 46 15 85 45 117c31 33 67 49 110 49c44 0 81 -16 112 -49c31 -32 46 -71 46 -117zM554 157
c0 120 -16 155 -67 155c-48 0 -65 -36 -65 -155c0 -138 26 -154 65 -154c25 0 42 10 52 29c10 20 15 62 15 125zM542 693l17 -10l-405 -706l-15 11z" />
    <glyph glyph-name="ampersand" unicode="&#x26;" horiz-adv-x="737" 
d="M658 374v-12h-40c-23 0 -34 -3 -39 -16c-1 -5 -2 -10 -3 -13c-1 -5 -3 -30 -4 -42c-9 -79 -26 -140 -51 -183l22 -33c25 -37 40 -50 65 -50c27 0 46 14 58 43l9 -7c-21 -47 -83 -76 -143 -76c-37 0 -74 16 -113 48c-53 -33 -106 -49 -161 -49c-64 0 -116 18 -157 54
c-40 36 -60 83 -60 140c0 92 53 171 159 237c-11 37 -17 68 -17 91c0 107 59 177 138 177c67 0 101 -29 101 -86c0 -51 -29 -105 -93 -138c28 -87 89 -200 184 -339c22 40 37 97 46 171c9 52 4 71 -37 71h-37v12h173zM408 597c0 40 -25 70 -56 70c-36 0 -50 -26 -50 -83
c0 -26 8 -64 23 -114c55 31 83 74 83 127zM410 44c-12 12 -27 33 -46 62c-85 134 -138 234 -160 300c-39 -33 -59 -82 -59 -147c0 -36 7 -71 21 -104c29 -65 100 -121 193 -121c19 0 36 3 51 10z" />
    <glyph glyph-name="quotesingle" unicode="'" horiz-adv-x="174" 
d="M120 633c0 -17 -5 -46 -14 -86s-14 -69 -16 -88l-1 -10h-12l-1 10c-2 19 -8 49 -17 89s-14 68 -14 85c0 25 10 50 37 50s38 -25 38 -50z" />
    <glyph glyph-name="parenleft" unicode="(" horiz-adv-x="288" 
d="M302 -232l-14 -12c-145 105 -228 280 -228 491s83 386 228 491l14 -12c-29 -20 -53 -45 -71 -75c-35 -60 -61 -193 -61 -404c0 -105 6 -191 17 -258c12 -67 27 -116 44 -146c18 -30 42 -55 71 -75z" />
    <glyph glyph-name="parenright" unicode=")" horiz-adv-x="288" 
d="M-2 -244l-14 12c29 20 53 45 70 75c36 60 62 192 62 404c0 106 -6 192 -18 259c-11 67 -26 115 -44 145c-17 30 -41 55 -70 75l14 12c145 -105 228 -280 228 -491s-83 -386 -228 -491z" />
    <glyph glyph-name="asterisk" unicode="*" horiz-adv-x="297" 
d="M139 572l5 -3v5c0 40 -22 63 -22 76c0 15 12 29 29 29s29 -14 29 -29c0 -13 -22 -36 -22 -76v-5l5 3c35 20 43 49 55 56c12 8 31 5 39 -10c8 -16 2 -32 -11 -40c-6 -3 -16 -5 -30 -4s-29 -3 -46 -14l-6 -4l6 -2c35 -17 64 -11 76 -19c17 -9 20 -22 11 -39
c-8 -15 -27 -19 -39 -11c-12 7 -20 37 -55 57l-5 2v-5c0 -40 22 -61 22 -76s-12 -29 -29 -29s-29 14 -29 29s22 36 22 76v5l-5 -2c-35 -20 -42 -50 -54 -57c-17 -9 -30 -6 -40 11c-8 16 -2 31 11 39c12 7 43 -2 76 19l6 3l-7 4c-37 19 -64 10 -75 18c-13 8 -19 23 -11 39
c10 16 23 20 40 11c11 -7 19 -37 54 -57z" />
    <glyph glyph-name="plus" unicode="+" horiz-adv-x="600" 
d="M548 271v-54h-220v-217h-60v217h-219v54h219v216h60v-216h220z" />
    <glyph glyph-name="comma" unicode="," horiz-adv-x="221" 
d="M37 -153l-3 15c17 3 33 14 48 32c16 18 24 35 24 50c0 24 -12 44 -37 61c-16 12 -24 28 -24 49c0 33 29 62 64 62c43 0 65 -26 65 -77c0 -34 -13 -72 -40 -113s-59 -68 -97 -79z" />
    <glyph glyph-name="hyphen" unicode="-" horiz-adv-x="318" 
d="M40 274h238v-71h-238v71z" />
    <glyph glyph-name="period" unicode="." horiz-adv-x="221" 
d="M175 53c0 -39 -28 -69 -67 -69c-35 0 -63 30 -63 69c0 35 28 63 63 63c39 0 67 -27 67 -63z" />
    <glyph glyph-name="slash" unicode="/" horiz-adv-x="340" 
d="M314 675l-270 -691l-17 8l269 691z" />
    <glyph glyph-name="zero" unicode="0" horiz-adv-x="500" 
d="M471 334c0 -102 -24 -185 -72 -248c-47 -63 -101 -95 -161 -95c-58 0 -108 31 -149 94s-62 146 -62 249s22 185 66 248c45 63 96 95 155 95s111 -32 156 -95s67 -145 67 -248zM358 334c-2 267 -25 328 -110 333c-42 0 -71 -23 -86 -69s-22 -134 -22 -264
c3 -287 20 -328 98 -333c28 0 50 8 66 24c32 32 54 128 54 309z" />
    <glyph glyph-name="one" unicode="1" horiz-adv-x="500" 
d="M383 12v-12h-248v12h70v643h-70v12h178v-655h70z" />
    <glyph glyph-name="two" unicode="2" horiz-adv-x="500" 
d="M231 668c-39 0 -74 -27 -74 -67c0 -11 8 -34 8 -43c0 -17 -19 -36 -47 -36s-46 24 -46 47s16 47 49 70c33 24 69 36 110 36c53 0 100 -14 139 -42c40 -27 60 -70 60 -128c0 -48 -32 -105 -61 -140c-15 -17 -38 -43 -71 -78c-32 -34 -57 -62 -75 -83l-105 -123v-4h208
c59 0 84 22 84 77h7v-154h-353v34l147 173c47 61 77 111 90 150s20 91 20 157c0 109 -27 154 -90 154z" />
    <glyph glyph-name="three" unicode="3" horiz-adv-x="500" 
d="M433 195c0 -61 -24 -110 -71 -147s-99 -55 -156 -55c-43 0 -79 11 -110 34s-46 47 -46 72c0 27 14 47 46 47c31 0 46 -17 46 -36c0 -11 -7 -29 -7 -41c0 -44 31 -66 71 -66c81 1 110 22 114 184c-3 165 -11 176 -82 180c-13 0 -39 -11 -77 -34l-6 9c39 21 66 38 81 52
c31 29 44 68 44 156c0 89 -15 114 -64 114c-33 0 -60 -26 -60 -59c0 -12 9 -29 9 -40c0 -20 -15 -38 -47 -38c-31 0 -45 21 -45 48c0 20 15 41 44 63c30 23 63 34 99 34c104 0 175 -43 175 -131c0 -35 -19 -70 -57 -104s-71 -54 -98 -61c9 1 17 2 22 2c54 -2 97 -21 128 -57
c31 -35 47 -77 47 -126z" />
    <glyph glyph-name="four" unicode="4" horiz-adv-x="500" 
d="M446 12v-12h-248v12h70v212h-226l-1 5c29 45 51 81 65 109l158 328c19 -6 46 0 80 17s58 34 72 49l14 -11l-372 -486h210v105c19 2 39 13 59 32c20 20 33 38 39 55h10v-192h100v-11h-100v-212h70z" />
    <glyph glyph-name="five" unicode="5" horiz-adv-x="500" 
d="M212 -10c-44 0 -81 11 -112 33c-31 23 -46 47 -46 73c0 25 15 47 44 47c32 0 49 -17 49 -36c0 -11 -8 -29 -8 -41c0 -44 30 -66 73 -66c39 0 66 13 79 40c14 27 21 81 21 162c0 71 -2 107 -13 143c-9 37 -30 51 -65 51c-48 0 -77 -21 -86 -63v-32c0 -6 -3 -9 -9 -9
c-5 0 -8 3 -8 10c0 5 3 25 3 30v323h2c17 -15 44 -22 82 -22c29 0 56 8 80 25s41 25 50 25c29 0 44 -13 44 -38c0 -43 -45 -71 -112 -71c-52 0 -115 21 -135 53v-271c12 27 54 56 111 56c56 0 98 -19 125 -58c28 -38 42 -86 42 -143c0 -68 -22 -122 -65 -162
c-43 -39 -91 -59 -146 -59z" />
    <glyph glyph-name="six" unicode="6" horiz-adv-x="500" 
d="M257 -8c-121 0 -205 106 -205 295c0 66 10 128 29 185c19 58 48 105 85 142s79 56 126 56c35 0 66 -11 91 -32s38 -41 38 -62c0 -27 -13 -50 -44 -50c-32 0 -51 19 -51 40c0 11 13 36 13 47c0 36 -12 49 -47 49c-81 0 -123 -110 -128 -329c25 29 58 43 99 43
c55 0 100 -19 137 -57c37 -37 55 -82 55 -135s-19 -98 -58 -136c-38 -37 -85 -56 -140 -56zM257 2c24 0 43 6 56 17c21 21 32 76 32 165s-11 144 -32 165c-12 11 -31 17 -56 17s-46 -7 -65 -22c-18 -15 -27 -28 -27 -41v-123v-39c1 -17 4 -58 12 -78c11 -30 35 -65 80 -61z
" />
    <glyph glyph-name="seven" unicode="7" horiz-adv-x="500" 
d="M239 0h-117l292 585h-207c-61 0 -88 -23 -88 -79h-9v161h348c-1 -2 -10 -25 -28 -68c-17 -43 -30 -77 -38 -103z" />
    <glyph glyph-name="eight" unicode="8" horiz-adv-x="500" 
d="M453 188c0 -55 -18 -102 -55 -140c-36 -37 -87 -56 -152 -56c-55 0 -102 15 -142 45c-39 31 -59 74 -59 129c0 75 46 132 139 170c-68 51 -109 97 -109 166c0 41 15 80 44 115c29 36 72 54 127 54c50 0 92 -14 126 -41s51 -60 51 -100c0 -64 -38 -104 -123 -140
c30 -19 54 -37 73 -52s37 -36 54 -63s26 -56 26 -87zM344 512c0 100 -33 150 -98 150c-64 0 -89 -44 -89 -104c-4 -35 15 -67 30 -86c8 -11 38 -33 46 -40c4 -3 14 -9 29 -19c15 -9 25 -15 29 -18c39 19 53 52 53 117zM376 126c0 40 -13 72 -42 100c-14 14 -27 26 -40 35
c-12 9 -30 21 -53 36s-40 26 -52 35c-23 -21 -38 -43 -46 -64c-7 -21 -11 -53 -11 -96c0 -111 41 -170 114 -170c79 0 130 39 130 124z" />
    <glyph glyph-name="nine" unicode="9" horiz-adv-x="500" 
d="M212 -8c-41 0 -75 10 -100 31s-37 42 -37 63c0 27 15 52 46 52c32 0 49 -19 49 -42c0 -11 -13 -35 -13 -47c0 -33 18 -49 55 -49c47 0 82 35 99 96c19 63 26 132 29 228c-25 -29 -58 -43 -99 -43c-63 0 -111 19 -145 57s-51 85 -51 140c0 52 20 97 59 136
c40 39 88 58 143 58c121 0 205 -108 205 -297c0 -66 -10 -128 -29 -186c-19 -57 -48 -105 -85 -142s-79 -55 -126 -55zM247 291c25 0 46 7 64 22c19 15 28 28 28 41v128c0 25 0 44 -1 57c0 13 -2 28 -5 47c-9 52 -30 71 -86 76c-24 0 -43 -6 -56 -17
c-24 -24 -36 -80 -36 -167c0 -89 12 -146 36 -170c12 -11 31 -17 56 -17z" />
    <glyph glyph-name="colon" unicode=":" horiz-adv-x="221" 
d="M175 53c0 -39 -28 -69 -67 -69c-35 0 -63 30 -63 69c0 35 28 63 63 63c39 0 67 -27 67 -63zM175 373c0 -39 -28 -69 -67 -69c-35 0 -63 30 -63 69c0 35 28 63 63 63c39 0 67 -27 67 -63z" />
    <glyph glyph-name="semicolon" unicode=";" horiz-adv-x="221" 
d="M37 -153l-3 15c17 3 33 14 48 32c16 18 24 35 24 50c0 24 -12 44 -37 61c-16 12 -24 28 -24 49c0 33 29 62 64 62c43 0 65 -26 65 -77c0 -34 -13 -72 -40 -113s-59 -68 -97 -79zM175 373c0 -39 -28 -69 -67 -69c-35 0 -63 30 -63 69c0 35 28 63 63 63c39 0 67 -27 67 -63
z" />
    <glyph glyph-name="less" unicode="&#x3c;" horiz-adv-x="600" 
d="M549 74v-60l-499 199v59l499 200v-60l-429 -170z" />
    <glyph glyph-name="equal" unicode="=" horiz-adv-x="600" 
d="M549 363v-54h-500v54h500zM549 176v-54h-500v54h500z" />
    <glyph glyph-name="greater" unicode="&#x3e;" horiz-adv-x="600" 
d="M549 272v-59l-499 -199v60l428 168l-428 170v60z" />
    <glyph glyph-name="question" unicode="?" horiz-adv-x="439" 
d="M162 170h-11v159h1c11 -22 34 -33 71 -33c18 0 31 5 40 15c7 8 11 22 12 41c2 20 3 65 3 135c0 100 -7 140 -31 165c-13 13 -33 19 -62 19c-48 0 -78 -33 -78 -82c0 -28 16 -49 16 -70c0 -28 -23 -50 -60 -50c-40 0 -60 20 -60 61c0 33 20 67 59 101c39 35 80 52 123 52
c62 0 113 -18 153 -55c40 -36 60 -83 60 -141c0 -56 -17 -104 -52 -144c-35 -39 -76 -59 -123 -59c-25 0 -46 5 -61 15v-129zM224 53c0 -39 -28 -69 -67 -69c-35 0 -63 30 -63 69c0 35 28 63 63 63c39 0 67 -27 67 -63z" />
    <glyph glyph-name="at" unicode="@" horiz-adv-x="783" 
d="M702 380c0 -68 -21 -121 -63 -158c-41 -37 -87 -56 -137 -56c-69 0 -106 45 -93 96c-25 -64 -56 -96 -92 -96c-65 0 -94 52 -94 119c0 51 20 100 60 146c40 47 86 70 139 70c27 0 41 -14 42 -42l10 34h79l-45 -150c-19 -64 -27 -97 -27 -125c0 -27 12 -35 37 -35
c46 0 86 19 120 57c35 38 52 85 52 140c0 90 -27 161 -82 213s-122 78 -202 78c-87 0 -162 -33 -225 -100c-63 -66 -95 -145 -95 -238c0 -91 32 -170 95 -237c64 -67 139 -100 225 -100c77 0 144 25 201 75l8 -9c-61 -52 -130 -78 -209 -78c-91 0 -169 34 -234 102
c-65 69 -98 151 -98 247c0 97 33 179 98 247c65 69 143 103 234 103c85 0 156 -27 212 -81s84 -128 84 -222zM422 321l34 116c1 34 -11 51 -38 51c-11 0 -23 -6 -36 -17c-25 -19 -45 -53 -61 -101c-15 -47 -23 -89 -23 -126c0 -44 7 -63 27 -63c21 0 40 17 58 50
c19 33 32 63 39 90z" />
    <glyph glyph-name="A" unicode="A" horiz-adv-x="604" 
d="M162 0h-182v12h57c13 0 25 13 34 39l221 629h18l243 -668h85v-12h-313v12h86l-67 208h-200l-61 -169c-13 -33 -8 -39 -3 -39h82v-12zM246 514l-98 -282h190z" />
    <glyph glyph-name="B" unicode="B" horiz-adv-x="600" 
d="M560 177c0 -48 -19 -90 -56 -125s-90 -52 -157 -52h-311v12h85v643h-85v12h268c128 0 213 -54 213 -154c0 -44 -16 -81 -48 -112c-31 -30 -67 -45 -108 -45c57 0 104 -16 142 -49c38 -32 57 -75 57 -130zM397 509c0 56 -7 94 -22 115s-43 31 -86 31h-35v-294h65
c31 0 52 10 62 30c11 20 16 59 16 118zM428 171c0 74 -8 122 -24 145c-15 23 -47 34 -94 34h-56v-338h69c42 0 70 11 84 33s21 64 21 126z" />
    <glyph glyph-name="C" unicode="C" horiz-adv-x="610" 
d="M559 247v-261h-10c-3 13 -17 28 -41 28c-13 0 -39 -5 -78 -15s-67 -15 -85 -15c-85 0 -156 34 -214 103c-57 69 -86 151 -86 246s28 177 84 246c57 69 127 104 212 104c15 0 39 -4 73 -13c35 -8 59 -12 72 -12c25 0 43 11 46 22h11v-227h-11c0 47 -21 95 -63 144
c-41 49 -84 74 -128 74c-41 0 -72 -11 -94 -34c-37 -40 -56 -141 -56 -304c0 -162 19 -263 56 -303c21 -23 53 -35 98 -35c54 0 101 26 142 78c41 53 62 111 62 174h10z" />
    <glyph glyph-name="D" unicode="D" horiz-adv-x="668" 
d="M621 333c0 -91 -29 -170 -87 -235c-57 -65 -126 -98 -207 -98h-291v12h85v643h-85v12h291c81 0 151 -33 208 -98s86 -143 86 -236zM475 333c0 157 -18 253 -54 289c-21 22 -53 33 -94 33h-73v-643h73c41 0 73 11 94 33c20 21 34 52 42 94c8 43 12 107 12 194z" />
    <glyph glyph-name="E" unicode="E" horiz-adv-x="596" 
d="M572 220v-220h-537v12h86v643h-86v12h490v-201h-12c0 49 -14 93 -42 131c-27 39 -67 58 -120 58h-98v-306h22c69 0 112 59 112 128h13v-268h-13c0 69 -43 128 -112 128h-22v-325h101c69 0 120 21 155 62c35 42 52 91 52 146h11z" />
    <glyph glyph-name="F" unicode="F" horiz-adv-x="573" 
d="M526 667v-201h-12c0 47 -17 91 -51 130c-33 39 -77 59 -130 59h-79v-306h23c36 0 67 13 93 40s39 58 39 91h11v-275h-11c0 33 -13 64 -40 91c-26 27 -57 41 -92 41h-23v-325h87v-12h-305v12h85v643h-85v12h490z" />
    <glyph glyph-name="G" unicode="G" horiz-adv-x="628" 
d="M655 271v-12h-86v-263h-9c0 24 -12 36 -37 36c-9 0 -33 -8 -74 -24s-81 -24 -120 -24c-85 0 -154 34 -206 103s-78 151 -78 246s28 177 84 246c57 69 127 104 212 104c17 0 40 -4 68 -13c29 -8 46 -12 52 -12c25 0 44 11 45 22h12v-225h-12c0 50 -17 98 -50 145
s-71 71 -115 71c-41 0 -72 -11 -94 -34c-37 -39 -55 -141 -55 -304c0 -94 3 -163 8 -207c5 -43 17 -75 35 -96c21 -23 52 -35 94 -35c79 0 107 27 107 82v182h-85v12h304z" />
    <glyph glyph-name="H" unicode="H" horiz-adv-x="710" 
d="M674 12v-12h-295v12h76v330h-201v-330h77v-12h-295v12h85v643h-85v12h295v-12h-77v-301h201v301h-76v12h295v-12h-85v-643h85z" />
    <glyph glyph-name="I" unicode="I" horiz-adv-x="375" 
d="M341 12v-12h-305v12h85v643h-85v12h305v-12h-87v-643h87z" />
    <glyph glyph-name="J" unicode="J" horiz-adv-x="476" 
d="M463 667v-12h-87v-498c0 -108 -76 -173 -189 -173c-42 0 -79 13 -112 40s-49 58 -49 93c0 48 36 83 71 83c37 0 69 -34 69 -71c0 -20 -7 -37 -22 -50s-22 -24 -22 -33c0 -29 32 -51 65 -51c45 0 57 21 57 77v583h-85v12h304z" />
    <glyph glyph-name="K" unicode="K" horiz-adv-x="635" 
d="M341 0h-305v12h85v643h-85v12h305v-12h-86v-319l232 280c21 26 26 39 14 39h-65v12h178v-12h-55c-16 0 -26 -2 -57 -39l-160 -194l280 -410h93v-12h-340v12h92l-212 318v-318h86v-12z" />
    <glyph glyph-name="L" unicode="L" horiz-adv-x="567" 
d="M545 228v-228h-509v12h85v643h-85v12h305v-12h-86v-643h72c63 0 113 22 150 67s56 95 56 149h12z" />
    <glyph glyph-name="M" unicode="M" horiz-adv-x="830" 
d="M222 0h-191v12h53c22 0 33 10 33 29v614h-86v12h224l168 -469l150 469h221v-12h-85v-643h85v-12h-304v12h85v624l-205 -648h-10l-231 650v-597c0 -19 11 -29 34 -29h59v-12z" />
    <glyph glyph-name="N" unicode="N" horiz-adv-x="662" 
d="M566 -12h-20l-417 656v-603c0 -19 11 -29 34 -29h52v-12h-183v12h52c22 0 33 10 33 29v614h-86v12h238l285 -455v415c0 19 -11 28 -33 28h-52v12h183v-12h-51c-23 0 -35 -9 -35 -28v-639z" />
    <glyph glyph-name="O" unicode="O" horiz-adv-x="683" 
d="M45 333c0 95 28 177 84 246c57 69 127 104 212 104c81 0 151 -34 209 -103c58 -68 87 -150 87 -247s-29 -179 -87 -247s-128 -102 -209 -102s-151 34 -209 102s-87 150 -87 247zM490 333c0 163 -18 265 -55 304c-22 23 -53 34 -94 34s-72 -11 -93 -34
c-37 -39 -56 -141 -56 -304c0 -90 4 -157 12 -202c9 -45 23 -78 44 -101s52 -35 93 -35c42 0 73 12 94 35c21 22 35 55 43 100s12 112 12 203z" />
    <glyph glyph-name="P" unicode="P" horiz-adv-x="584" 
d="M556 466c0 -115 -82 -183 -223 -183c-25 0 -51 4 -78 12v-283h86v-12h-305v12h85v643h-85v12h268c80 0 142 -19 186 -56s66 -86 66 -145zM423 466c0 136 -34 189 -119 189h-49v-345c21 -10 47 -15 78 -15c41 0 67 10 76 31s14 67 14 140z" />
    <glyph glyph-name="Q" unicode="Q" horiz-adv-x="683" 
d="M636 333c0 -57 -15 -115 -46 -176c-30 -61 -68 -105 -113 -133c-17 -11 -40 -22 -71 -34c-30 -12 -64 -25 -102 -38c-37 -13 -62 -22 -73 -27c113 0 183 -26 211 -58c41 -47 54 -106 149 -106v-19c-148 -1 -220 33 -253 68c-50 47 -41 105 -108 105c-5 0 -12 -4 -21 -11
c-8 -8 -12 -12 -13 -12c-12 0 -18 4 -18 13c0 7 9 15 28 23l145 56h-10c-81 0 -151 34 -209 102s-87 150 -87 247c0 95 28 177 84 246c57 69 127 104 212 104c81 0 151 -34 208 -103c58 -68 87 -150 87 -247zM490 333c0 163 -18 265 -55 304c-22 23 -53 34 -94 34
s-72 -11 -93 -34c-37 -39 -56 -141 -56 -304c0 -90 4 -157 12 -202c9 -45 23 -78 44 -101s52 -35 93 -35c42 0 73 12 94 35c21 22 35 55 43 100s12 112 12 203z" />
    <glyph glyph-name="R" unicode="R" horiz-adv-x="630" 
d="M662 35l7 -8c-20 -22 -46 -33 -78 -33c-43 0 -81 15 -113 45s-48 76 -48 138v51c0 80 -43 113 -130 113h-46v-329h76v-12h-294v12h85v643h-85v12h285c66 0 119 -16 158 -47s59 -70 59 -117c0 -43 -16 -80 -49 -111c-33 -30 -73 -45 -120 -45c65 0 114 -18 147 -53
s50 -78 50 -129v-82c0 -46 17 -69 50 -69c19 0 34 7 46 21zM405 500c0 59 -7 100 -22 122s-43 33 -85 33h-44v-302h46c45 0 73 9 86 28s19 58 19 119z" />
    <glyph glyph-name="S" unicode="S" horiz-adv-x="508" 
d="M486 214c0 -59 -19 -113 -58 -160s-91 -70 -158 -70c-23 0 -53 6 -90 19s-59 20 -68 20c-25 0 -46 -17 -49 -36h-12v226h12c0 -26 9 -56 26 -89s42 -63 75 -90c33 -26 68 -39 105 -39c99 0 147 51 147 118c0 47 -9 73 -46 100c-18 13 -37 24 -56 33s-50 21 -91 36
c-99 37 -152 85 -152 188c0 61 17 111 52 152s77 61 124 61c19 0 40 -4 61 -13c22 -8 41 -12 57 -12c23 0 35 7 38 22h10v-175h-10c0 45 -15 83 -46 116s-67 50 -109 50c-71 0 -114 -44 -114 -109c0 -67 45 -105 161 -149c67 -25 116 -52 146 -79s45 -67 45 -120z" />
    <glyph glyph-name="T" unicode="T" horiz-adv-x="613" 
d="M593 667v-229h-11c0 60 -16 111 -49 153c-33 43 -80 64 -143 64h-19v-643h84v-12h-303v12h86v643h-20c-62 0 -109 -21 -140 -64c-31 -42 -46 -93 -46 -153h-12v229h573z" />
    <glyph glyph-name="U" unicode="U" horiz-adv-x="651" 
d="M337 -16c-143 0 -233 66 -233 201v470h-85v12h304v-12h-88v-477c0 -117 33 -174 125 -174c120 0 184 72 184 187v436c0 19 -11 28 -34 28h-56v12h188v-12h-52c-23 0 -34 -9 -34 -28v-429c0 -135 -71 -214 -219 -214z" />
    <glyph glyph-name="V" unicode="V" horiz-adv-x="624" 
d="M356 -14h-18l-277 669h-91v12h329v-12h-98l202 -499l156 459c9 37 2 40 -15 40h-70v12h195v-12h-60c-17 0 -30 -13 -39 -40z" />
    <glyph glyph-name="W" unicode="W" horiz-adv-x="939" 
d="M322 -14h-20l-251 669h-91v12h318v-12h-86l181 -484l104 319l-57 165h-95v12h332v-12h-100l167 -484l148 449c12 31 -12 35 -17 35h-63v12h189v-12h-58c-20 0 -31 -7 -42 -40l-208 -629h-18l-172 491z" />
    <glyph glyph-name="X" unicode="X" horiz-adv-x="650" 
d="M217 0h-187v12h58c20 0 38 13 54 40l148 250l-196 353h-91v12h328v-12h-93l131 -245l121 205c21 36 10 40 -5 40h-58v12h187v-12h-59c-20 0 -38 -13 -53 -40l-127 -216l211 -387h93v-12h-329v12h93l-149 277l-139 -237c-16 -27 -14 -40 6 -40h56v-12z" />
    <glyph glyph-name="Y" unicode="Y" horiz-adv-x="606" 
d="M476 0h-303v12h86v279l-179 364h-93v12h331v-12h-97l166 -338l136 298c12 27 8 40 -13 40h-64v12h188v-12h-55c-18 0 -34 -15 -48 -45l-141 -311v-287h86v-12z" />
    <glyph glyph-name="Z" unicode="Z" horiz-adv-x="575" 
d="M525 0h-478l334 655h-96c-58 0 -104 -22 -139 -65s-52 -94 -52 -152h-12v229h443l-333 -655h126c58 0 105 22 140 67c36 45 54 96 54 154h13v-233z" />
    <glyph glyph-name="bracketleft" unicode="[" horiz-adv-x="281" 
d="M314 -224v-13h-232v967h232v-12h-122v-942h122z" />
    <glyph glyph-name="backslash" unicode="\" horiz-adv-x="340" 
d="M45 683l268 -691l-17 -8l-269 691z" />
    <glyph glyph-name="bracketright" unicode="]" horiz-adv-x="275" 
d="M192 730v-967h-232v13h122v942h-122v12h232z" />
    <glyph glyph-name="asciicircum" unicode="^" horiz-adv-x="600" 
d="M330 682l169 -416h-63l-136 345l-133 -345h-63l168 416h58z" />
    <glyph glyph-name="underscore" unicode="_" horiz-adv-x="540" 
d="M506 20v-20h-472v20h472z" />
    <glyph glyph-name="grave" unicode="`" 
d="M147 662l140 -153l-5 -5l-196 109c-14 7 -21 18 -21 32c0 21 17 40 40 40c13 0 27 -8 42 -23z" />
    <glyph glyph-name="a" unicode="a" horiz-adv-x="472" 
d="M459 38l8 -7c-9 -17 -45 -39 -81 -39c-44 0 -91 30 -98 66c-15 -44 -48 -66 -101 -66c-41 0 -76 8 -106 25c-29 17 -44 44 -44 80c0 73 48 115 145 124c37 3 49 5 72 9c24 4 32 10 32 21v79c0 75 -21 96 -62 96c-35 0 -53 -15 -53 -46c0 -12 8 -31 8 -42
c0 -23 -17 -40 -50 -40c-32 0 -49 22 -49 50c0 21 14 41 42 60c29 19 63 28 102 28c111 0 176 -60 176 -181v-206c0 -23 8 -34 23 -34c11 0 23 8 36 23zM286 115v114c-12 -7 -30 -11 -39 -14c-9 -1 -38 -4 -45 -5c-37 -8 -51 -33 -51 -121c0 -57 10 -81 54 -81
c48 0 81 47 81 107z" />
    <glyph glyph-name="b" unicode="b" horiz-adv-x="563" 
d="M316 -9c-35 0 -72 14 -109 42c-25 19 -47 28 -66 28c-20 0 -39 -26 -39 -61h-12v723h-65v12h179v-341c25 27 58 41 97 41c59 0 110 -23 153 -70c43 -46 65 -98 65 -155s-19 -108 -58 -153c-38 -44 -86 -66 -145 -66zM316 3c39 0 63 30 72 82c5 26 7 47 8 63
c1 17 2 37 2 62c0 107 -12 171 -35 192c-15 14 -35 21 -62 21c-40 0 -85 -23 -97 -56v-297c19 -43 68 -67 112 -67z" />
    <glyph glyph-name="c" unicode="c" horiz-adv-x="466" 
d="M261 -9c-59 0 -111 22 -154 65c-43 44 -64 96 -64 157s21 113 64 156c43 44 95 66 154 66c45 0 84 -13 117 -39s50 -53 50 -81c0 -31 -16 -46 -48 -46c-28 0 -46 17 -46 38c0 17 13 32 13 55c0 20 -8 35 -23 45c-15 11 -36 16 -63 16s-47 -7 -61 -21
c-27 -27 -36 -77 -36 -189s9 -162 36 -189c14 -14 34 -21 61 -21c67 0 123 33 168 99l8 -8c-48 -69 -107 -103 -176 -103z" />
    <glyph glyph-name="d" unicode="d" horiz-adv-x="557" 
d="M539 12v-12h-180v47c-8 -23 -52 -56 -111 -56s-108 22 -147 66c-39 45 -58 96 -58 153s22 108 65 155c44 47 96 70 155 70c39 0 71 -14 96 -41v329h-63v12h178v-723h65zM359 91v275c-11 33 -55 56 -96 56c-27 0 -47 -7 -62 -21c-25 -24 -37 -88 -37 -191
c0 -86 9 -144 27 -173c14 -22 33 -33 57 -33c76 0 111 42 111 87z" />
    <glyph glyph-name="e" unicode="e" horiz-adv-x="496" 
d="M266 -9c-60 0 -112 22 -157 65c-44 44 -66 96 -66 157s22 113 66 156c45 44 97 66 157 66c41 0 76 -12 107 -36c63 -47 87 -109 87 -160v-3h-296v-23c2 -163 19 -204 102 -210c72 0 136 38 175 91l8 -8c-39 -57 -110 -95 -183 -95zM164 248h191c-1 78 -12 129 -34 154
c-11 14 -30 21 -55 21c-28 0 -49 -7 -63 -21c-25 -25 -38 -77 -39 -154z" />
    <glyph glyph-name="f" unicode="f" horiz-adv-x="344" 
d="M391 655c0 -28 -23 -53 -52 -53c-35 0 -52 13 -52 38c0 16 15 34 15 55c0 24 -9 36 -28 36c-32 0 -48 -42 -48 -126v-179h94v-12h-94v-402h65v-12h-243v12h63v402h-77v12h77v40c0 183 58 274 173 274c25 0 49 -8 72 -25s35 -37 35 -60z" />
    <glyph glyph-name="g" unicode="g" horiz-adv-x="505" 
d="M257 -309c-70 0 -127 12 -172 37c-44 25 -66 56 -66 94c0 27 12 52 35 75s51 39 82 47c-57 11 -104 57 -104 108c0 55 30 85 87 120c-28 33 -42 67 -42 102c0 45 17 83 50 114c34 31 75 47 123 47c56 0 101 -20 134 -60c21 40 51 60 88 60c35 0 52 -24 52 -52
c0 -27 -15 -43 -32 -43c-21 0 -33 11 -33 24c0 9 8 18 8 25c0 9 -12 21 -23 21c-23 0 -41 -14 -54 -41c21 -25 32 -57 32 -95c0 -44 -17 -82 -50 -113s-74 -47 -122 -47c-51 0 -100 26 -127 51c-22 -17 -33 -39 -33 -66c0 -48 23 -56 90 -56h133c123 0 197 -60 197 -169
c0 -39 -14 -72 -41 -101c-55 -59 -133 -82 -212 -82zM257 -297c105 0 184 44 184 128c0 61 -45 110 -133 110h-137c-11 0 -18 0 -21 1c-43 -25 -57 -50 -57 -109c0 -101 49 -130 164 -130zM294 141c17 18 26 63 26 134c0 73 -9 118 -26 135c-9 9 -23 13 -44 13
c-20 0 -34 -4 -43 -13c-19 -19 -28 -64 -28 -135s9 -115 28 -134c9 -10 24 -15 43 -15s34 5 44 15z" />
    <glyph glyph-name="h" unicode="h" horiz-adv-x="573" 
d="M559 12v-12h-241v12h62v308c0 68 -19 102 -58 102c-60 0 -94 -30 -117 -99v-311h63v-12h-243v12h65v711h-65v12h180v-378c17 52 65 78 117 78c108 0 173 -62 173 -167v-256h64z" />
    <glyph glyph-name="i" unicode="i" horiz-adv-x="307" 
d="M281 12v-12h-245v12h66v402h-66v12h180v-414h65zM223 598c0 -39 -28 -69 -67 -69c-35 0 -63 30 -63 69c0 35 28 63 63 63c39 0 67 -27 67 -63z" />
    <glyph glyph-name="j" unicode="j" horiz-adv-x="294" 
d="M216 426v-450c0 -207 -73 -292 -188 -292c-25 0 -47 8 -67 25s-30 37 -30 60c0 28 24 54 53 54c33 0 52 -17 52 -41c0 -16 -16 -32 -16 -53c0 -24 6 -31 29 -31c35 0 53 39 53 118v598h-65v12h179zM224 598c0 -39 -28 -69 -67 -69c-35 0 -63 30 -63 69c0 35 28 63 63 63
c39 0 67 -27 67 -63z" />
    <glyph glyph-name="k" unicode="k" horiz-adv-x="543" 
d="M270 0h-244v12h66v711h-66v12h180v-500l152 137c23 26 27 40 13 42h-38v12h159v-12h-42c-23 0 -49 -14 -78 -41l-89 -81l220 -280h67v-12h-253v12h60l-171 217v-217h64v-12z" />
    <glyph glyph-name="l" unicode="l" horiz-adv-x="286" 
d="M268 12v-12h-243v12h65v711h-65v12h180v-723h63z" />
    <glyph glyph-name="m" unicode="m" horiz-adv-x="870" 
d="M858 12v-12h-245v12h66v309c0 68 -20 102 -59 102c-77 0 -119 -57 -119 -117v-294h65v-12h-243v12h63v309c0 68 -19 102 -57 102c-61 0 -96 -30 -119 -99v-312h64v-12h-243v12h65v402h-65v12h179v-69c17 52 67 78 119 78c88 0 144 -27 167 -80c23 55 72 80 124 80
c113 0 172 -37 172 -138v-285h66z" />
    <glyph glyph-name="n" unicode="n" horiz-adv-x="579" 
d="M275 0h-244v12h65v402h-65v12h179v-69c17 52 67 78 119 78c108 0 173 -62 173 -167v-256h64v-12h-242v12h63v309c0 68 -19 102 -58 102c-61 0 -96 -30 -119 -99v-312h65v-12z" />
    <glyph glyph-name="o" unicode="o" horiz-adv-x="524" 
d="M261 -9c-59 0 -111 22 -154 65c-43 44 -64 96 -64 157s21 113 64 156c43 44 95 66 154 66c61 0 112 -22 155 -65s65 -96 65 -157s-22 -114 -65 -157s-94 -65 -155 -65zM324 402c-13 14 -34 21 -63 21c-27 0 -48 -7 -62 -21c-24 -26 -36 -89 -36 -189s12 -163 36 -189
c14 -14 35 -21 62 -21c29 0 50 7 63 21c25 25 37 88 37 189s-12 164 -37 189z" />
    <glyph glyph-name="p" unicode="p" horiz-adv-x="563" 
d="M268 -308h-243v12h65v710h-65v12h178v-35c20 24 59 44 98 44c59 0 110 -23 153 -70c43 -46 65 -97 65 -154c0 -58 -19 -109 -58 -153c-38 -44 -86 -66 -145 -66c-40 0 -86 21 -113 48v-336h65v-12zM316 3c59 0 82 57 82 208c0 81 -7 137 -21 167c-13 30 -39 45 -76 45
c-40 0 -86 -23 -98 -55v-298c19 -43 69 -67 113 -67z" />
    <glyph glyph-name="q" unicode="q" horiz-adv-x="541" 
d="M539 -296v-12h-244v12h64v351c-26 -42 -63 -63 -112 -63c-59 0 -107 22 -146 66s-58 95 -58 153c0 57 22 109 65 155s95 69 154 69c43 0 75 -15 97 -44v35h180v-12h-66v-710h66zM359 98v270c-11 32 -57 54 -97 54c-25 0 -45 -7 -61 -21c-25 -25 -38 -88 -38 -190
c0 -99 13 -161 38 -186c15 -14 34 -21 57 -21c29 0 53 10 72 31s29 42 29 63z" />
    <glyph glyph-name="r" unicode="r" horiz-adv-x="423" 
d="M406 343c0 -44 -23 -67 -58 -67s-56 18 -56 43c0 20 15 39 15 52c0 23 -14 44 -31 44c-23 0 -49 -8 -71 -103v-300h62v-12h-242v12h65v402h-65v12h180v-69c21 61 53 78 101 78c59 0 100 -45 100 -92z" />
    <glyph glyph-name="s" unicode="s" horiz-adv-x="397" 
d="M370 139c0 -84 -62 -148 -158 -148c-24 0 -46 4 -67 13c-20 9 -35 14 -44 14c-17 0 -35 -11 -38 -19h-10v154h12c0 -43 14 -79 42 -108c28 -28 63 -42 105 -42c59 0 93 32 93 91c0 47 -31 65 -122 86c-81 17 -122 52 -122 116c0 43 13 77 39 102c27 25 58 37 93 37
c40 0 77 -19 92 -19c12 0 23 15 23 20h10v-124h-10c0 29 -13 55 -38 78s-51 35 -77 35c-47 0 -75 -27 -75 -79c0 -44 30 -59 121 -82c76 -19 131 -61 131 -125z" />
    <glyph glyph-name="t" unicode="t" horiz-adv-x="329" 
d="M308 87l9 -3c-17 -62 -57 -93 -118 -93c-71 0 -101 31 -101 98v325h-80v12h80v84c21 2 41 13 62 34s34 39 39 56h11v-174h95v-12h-95v-371c0 -19 11 -29 33 -29c27 0 52 32 65 73z" />
    <glyph glyph-name="u" unicode="u" horiz-adv-x="569" 
d="M552 12v-12h-179v69c-17 -52 -67 -78 -120 -78c-107 0 -171 56 -171 160v263h-66v12h180v-321c0 -69 19 -103 57 -103c63 0 97 31 120 100v312h-64v12h179v-414h64z" />
    <glyph glyph-name="v" unicode="v" horiz-adv-x="469" 
d="M268 -8h-21l-202 422h-60v12h258v-12h-72l138 -289l95 247c11 39 6 42 -15 42h-43v12h149v-12h-38c-24 0 -29 -6 -42 -42z" />
    <glyph glyph-name="w" unicode="w" horiz-adv-x="737" 
d="M252 -8h-20l-194 422h-62v12h254v-12h-68l125 -290l81 217l-35 73h-51v12h245v-12h-69l127 -287l95 245c12 33 6 42 -19 42h-41v12h149v-12h-35c-23 0 -31 -10 -43 -42l-142 -380h-20l-154 333z" />
    <glyph glyph-name="x" unicode="x" horiz-adv-x="521" 
d="M168 0h-165v12h33c18 0 38 14 60 41l118 146l-146 215h-66v12h272v-12h-76l102 -149l84 107c31 37 9 42 3 42h-50v12h152v-12h-34c-17 0 -37 -14 -58 -42l-91 -117l168 -243h63v-12h-263v12h69l-122 177l-112 -136c-30 -37 -19 -41 -9 -41h68v-12z" />
    <glyph glyph-name="y" unicode="y" horiz-adv-x="465" 
d="M72 -317c-43 0 -76 37 -76 80c0 35 24 63 56 63c29 0 48 -19 48 -42c0 -16 -24 -40 -24 -56c0 -17 5 -25 14 -25c29 0 52 20 67 59l86 224l-207 428h-60v12h254v-12h-70l140 -288l94 246c11 28 6 42 -15 42h-43v12h153v-12h-37c-25 0 -32 -5 -47 -42l-235 -608
c-21 -54 -53 -81 -98 -81z" />
    <glyph glyph-name="z" unicode="z" horiz-adv-x="443" 
d="M407 0h-375l248 414h-78c-92 0 -124 -47 -124 -131h-10v143h337l-246 -414h99c103 0 139 54 139 145h10v-157z" />
    <glyph glyph-name="braceleft" unicode="{" horiz-adv-x="272" 
d="M272 -231v-13h-25c-56 0 -101 19 -134 58s-50 89 -50 151c-4 89 82 198 79 239c0 18 -5 28 -16 31c-4 1 -7 2 -10 2c-8 0 -19 -3 -24 -3s-7 4 -7 13c0 8 2 12 7 12s16 -2 24 -2h10c11 5 16 15 16 32c3 41 -83 152 -79 239c0 62 17 112 50 151s78 58 134 58h25v-12h-25
c-67 0 -88 -38 -88 -155c0 -24 4 -65 11 -122s11 -99 11 -124c0 -35 -17 -68 -50 -77c33 -11 50 -45 50 -78c0 -25 -4 -67 -11 -124s-11 -98 -11 -122c0 -116 21 -154 88 -154h25z" />
    <glyph glyph-name="bar" unicode="|" horiz-adv-x="148" 
d="M85 755v-778h-20v778h20z" />
    <glyph glyph-name="braceright" unicode="}" horiz-adv-x="272" 
d="M211 -35c0 -61 -17 -111 -51 -150s-79 -59 -135 -59h-25v13h25c65 0 88 38 88 154c0 24 -4 65 -12 122c-7 57 -11 99 -11 124c0 33 18 67 50 78c-32 9 -50 44 -50 77c0 25 4 67 11 124c8 57 12 98 12 122c0 116 -23 155 -88 155h-25v12h25c56 0 101 -20 135 -59
s51 -89 51 -150c3 -87 -85 -198 -81 -239c0 -17 5 -27 15 -32h11c7 0 19 2 24 2c9 -2 9 -21 0 -25c-5 0 -17 3 -24 3c-2 0 -6 -1 -11 -2c-10 -3 -15 -14 -15 -31c-4 -41 84 -150 81 -239z" />
    <glyph glyph-name="asciitilde" unicode="~" horiz-adv-x="600" 
d="M521 313h40c-9 -77 -49 -133 -122 -133c-29 0 -78 12 -145 37s-112 37 -134 37c-44 0 -74 -37 -81 -82h-41c11 90 52 135 123 135c31 0 78 -12 143 -37c65 -24 110 -36 137 -36c43 0 70 26 80 79z" />
    <glyph glyph-name="uni00A0" unicode="&#xa0;" horiz-adv-x="175" 
 />
    <glyph glyph-name="exclamdown" unicode="&#xa1;" horiz-adv-x="238" 
d="M53 -186c0 21 10 84 30 187s30 186 30 248h12c0 -62 10 -145 30 -248s30 -166 30 -187c0 -56 -29 -78 -66 -78s-66 22 -66 78zM53 366c0 39 28 69 67 69c35 0 63 -30 63 -69c0 -35 -28 -63 -63 -63c-39 0 -67 27 -67 63z" />
    <glyph glyph-name="cent" unicode="&#xa2;" horiz-adv-x="456" 
d="M426 92l6 -6c-37 -55 -101 -91 -166 -94v-70h-12v69c-59 1 -109 23 -151 66c-41 43 -62 95 -62 156s21 113 62 156s92 65 151 66v70h12v-70c42 -3 77 -15 105 -38c29 -22 43 -46 43 -72c0 -31 -15 -47 -46 -47c-28 0 -45 17 -45 38c0 17 12 32 12 55c0 33 -23 50 -69 52
v-420c65 3 127 38 160 89zM254 2v422c-27 -1 -48 -9 -62 -23c-28 -29 -38 -75 -38 -188s10 -159 38 -188c14 -14 35 -22 62 -23z" />
    <glyph glyph-name="sterling" unicode="&#xa3;" horiz-adv-x="602" 
d="M539 128h10c-3 -34 -21 -65 -54 -94c-33 -28 -75 -42 -125 -42c-29 0 -53 2 -82 10c-14 5 -24 8 -31 10c-6 2 -18 7 -37 14s-30 12 -34 14c-36 -32 -71 -48 -106 -48c-28 0 -57 15 -57 48c0 19 11 37 34 53c23 17 51 25 83 25c29 0 60 -2 95 -6c4 18 6 35 6 51
c0 14 -3 29 -8 45s-14 36 -25 61s-20 45 -25 58h-70v10h68c-19 52 -28 91 -28 117c0 58 20 109 61 153s92 66 151 66c33 0 62 -11 87 -33c25 -21 38 -44 38 -69c0 -29 -29 -57 -61 -57c-36 0 -54 14 -54 43c0 17 26 44 26 64c0 27 -18 41 -53 41c-57 0 -82 -36 -82 -149
c0 -20 4 -51 12 -93c9 -41 14 -69 16 -83h91v-10h-91c5 -35 7 -65 7 -90c0 -29 -17 -71 -52 -126c10 -2 30 -7 60 -16c31 -9 58 -15 82 -18c25 -3 56 -5 93 -5c29 0 50 25 55 56zM173 43c-48 16 -79 24 -94 24c-29 0 -44 -8 -44 -24c0 -27 18 -40 53 -40c27 0 55 13 85 40z
" />
    <glyph glyph-name="currency" unicode="&#xa4;" horiz-adv-x="600" 
d="M464 226l64 -65l-34 -34l-64 65c-37 -31 -81 -47 -130 -47c-46 0 -89 15 -130 46l-63 -63l-34 34l63 63c-31 41 -46 84 -46 131s15 91 45 130l-63 64l34 34l63 -64c38 30 82 45 131 45c46 0 90 -15 131 -44l63 62l34 -34l-63 -63c30 -43 45 -86 45 -131
c0 -47 -15 -90 -46 -129zM300 513c-44 0 -81 -15 -112 -46s-46 -68 -46 -112c0 -43 15 -81 46 -112s69 -46 112 -46s80 15 111 46s47 69 47 112s-16 80 -47 111s-68 47 -111 47z" />
    <glyph glyph-name="yen" unicode="&#xa5;" horiz-adv-x="611" 
d="M471 0h-303v12h86v212h-183v11h183v56l-27 58h-156v11h151l-137 295h-93v12h331v-12h-97l156 -338l126 298c11 27 7 40 -13 40h-64v12h188v-12h-55c-19 0 -35 -15 -48 -45l-106 -250h144v-11h-148l-21 -50v-64h169v-11h-169v-212h86v-12z" />
    <glyph glyph-name="brokenbar" unicode="&#xa6;" horiz-adv-x="154" 
d="M87 756v-273h-20v273h20zM87 250v-273h-20v273h20z" />
    <glyph glyph-name="section" unicode="&#xa7;" horiz-adv-x="551" 
d="M376 35c42 -36 63 -77 63 -123c0 -59 -19 -109 -57 -149c-38 -41 -88 -61 -149 -61c-56 0 -100 14 -132 41s-48 59 -48 94c0 32 15 48 46 48c28 0 46 -16 46 -41c0 -5 -3 -14 -9 -27s-9 -22 -9 -29c0 -51 35 -76 106 -76c85 0 142 47 142 127c0 63 -52 108 -117 137
c-92 41 -215 91 -213 210c0 74 32 134 96 181c-39 35 -59 76 -59 123c0 59 19 109 56 149c37 41 87 61 148 61c49 0 88 -14 116 -41s42 -56 42 -88c0 -31 -18 -47 -45 -47c-28 0 -47 16 -47 41c0 5 3 15 9 28s9 23 9 28c0 45 -28 68 -84 68c-84 0 -142 -46 -142 -126
c0 -98 119 -138 212 -184c64 -32 116 -88 116 -164c0 -38 -6 -70 -19 -96c-13 -25 -38 -53 -77 -84zM436 137c0 51 -50 95 -105 120c-27 13 -59 29 -96 48s-66 38 -87 56c-43 -32 -65 -65 -65 -98c0 -51 49 -95 104 -120c27 -13 59 -29 96 -48s67 -38 88 -56
c43 36 65 69 65 98z" />
    <glyph glyph-name="dieresis" unicode="&#xa8;" 
d="M304 634c23 -21 23 -59 0 -80c-21 -21 -58 -21 -81 0s-23 59 0 80s60 21 81 0zM148 594c0 -31 -27 -56 -56 -56c-33 0 -58 24 -58 56c0 33 25 56 58 56c29 0 56 -24 56 -56z" />
    <glyph glyph-name="copyright" unicode="&#xa9;" horiz-adv-x="826" 
d="M389 -16c-93 0 -173 34 -239 102s-99 150 -99 247s33 179 99 247c66 69 146 103 239 103s172 -34 238 -103c66 -68 99 -150 99 -247s-33 -179 -99 -247s-145 -102 -238 -102zM707 333c0 91 -31 169 -93 233s-137 96 -225 96c-87 0 -162 -32 -224 -96s-93 -142 -93 -233
s31 -168 93 -233c62 -64 137 -96 224 -96s162 32 224 96c63 65 94 142 94 233zM533 283v-156h-6c-2 11 -10 16 -24 16c-8 0 -24 -3 -47 -9s-40 -9 -51 -9c-51 0 -93 21 -128 62c-35 42 -52 91 -52 148s17 107 51 148s76 62 127 62c9 0 23 -3 44 -8s35 -7 43 -7
c17 0 26 4 27 13h7v-136h-7c0 29 -12 58 -37 87s-50 44 -77 44c-25 0 -44 -7 -57 -21c-22 -24 -33 -85 -33 -182s11 -158 33 -182c13 -14 32 -21 59 -21c32 0 60 16 85 47s37 66 37 104h6z" />
    <glyph glyph-name="ordfeminine" unicode="&#xaa;" horiz-adv-x="356" 
d="M335 432l10 -4v-1c-9 -21 -29 -32 -62 -32c-31 0 -58 18 -66 46c-15 -31 -42 -46 -81 -46c-57 0 -104 25 -104 78c0 37 17 64 41 76c25 13 43 18 62 19c48 3 72 11 72 24v56c0 51 -13 67 -41 67c-27 0 -40 -11 -40 -32c0 -9 7 -25 7 -33c0 -21 -11 -31 -34 -31
c-25 0 -38 18 -38 39c0 16 10 31 31 46s46 22 74 22c84 0 126 -42 126 -127v-160c0 -17 6 -25 18 -25c13 0 21 6 25 18zM207 458v114c-6 -4 -25 -9 -57 -15c-24 -3 -34 -21 -34 -84c0 -51 12 -64 37 -64c31 0 54 25 54 49z" />
    <glyph glyph-name="guillemotleft" unicode="&#xab;" horiz-adv-x="393" 
d="M350 60h-21c0 36 -24 76 -59 105s-56 44 -76 55v4c20 11 41 26 76 55s59 69 59 105h21c0 -30 -6 -61 -18 -92c-11 -31 -24 -55 -38 -70c14 -15 27 -39 38 -71c12 -31 18 -62 18 -91zM186 60h-21c0 36 -24 76 -59 105s-56 44 -76 55v4c20 11 41 26 76 55s59 69 59 105h21
c0 -30 -6 -61 -18 -92c-11 -31 -24 -55 -38 -70c14 -15 27 -39 38 -71c12 -31 18 -62 18 -91z" />
    <glyph glyph-name="logicalnot" unicode="&#xac;" horiz-adv-x="600" 
d="M549 363v-241h-56v187h-443v54h499z" />
    <glyph glyph-name="uni00AD" unicode="&#xad;" horiz-adv-x="318" 
d="M40 274h238v-71h-238v71z" />
    <glyph glyph-name="registered" unicode="&#xae;" horiz-adv-x="826" 
d="M389 -16c-93 0 -173 34 -239 102s-99 150 -99 247s33 179 99 247c66 69 146 103 239 103s172 -34 238 -103c66 -68 99 -150 99 -247s-33 -179 -99 -247s-145 -102 -238 -102zM707 333c0 91 -31 169 -93 233s-137 96 -225 96c-87 0 -162 -32 -224 -96s-93 -142 -93 -233
s31 -168 93 -233c62 -64 137 -96 224 -96s162 32 224 96c63 65 94 142 94 233zM595 159l4 -5c-11 -13 -27 -20 -46 -20c-52 0 -97 35 -97 110v31c0 45 -26 68 -78 68h-28v-198h46v-7h-176v7h51v386h-51v7h171c79 0 130 -41 130 -98c0 -52 -45 -94 -102 -94
c79 0 119 -49 119 -109v-49c0 -28 10 -42 30 -42c11 0 20 4 27 13zM441 438c0 71 -13 93 -64 93h-27v-181h28c27 0 44 5 51 16c8 11 12 35 12 72z" />
    <glyph glyph-name="overscore" unicode="&#xaf;" 
d="M331 606v-59h-307v59h307z" />
    <glyph glyph-name="degree" unicode="&#xb0;" horiz-adv-x="270" 
d="M136 519c-44 0 -81 36 -81 77s37 77 81 77c45 0 80 -34 80 -77s-35 -77 -80 -77zM177 556c24 23 24 57 0 80c-23 23 -59 23 -83 0s-24 -57 0 -80s60 -23 83 0z" />
    <glyph glyph-name="plusminus" unicode="&#xb1;" horiz-adv-x="600" 
d="M549 319v-54h-220v-175h-60v175h-219v54h219v176h60v-176h220zM549 45v-54h-499v54h499z" />
    <glyph glyph-name="twosuperior" unicode="&#xb2;" horiz-adv-x="330" 
d="M93 327v-3h119c39 0 55 13 55 46h8v-103h-233v20l98 104c30 37 49 68 58 91s14 54 14 93c0 65 -18 89 -59 89c-27 0 -50 -14 -50 -38c0 -7 6 -21 6 -26c0 -12 -12 -24 -31 -24c-21 0 -31 10 -31 30c0 15 11 29 33 44s46 23 73 23c35 0 65 -9 91 -26c27 -17 40 -42 40 -77
c0 -29 -21 -64 -38 -84c-9 -9 -24 -25 -46 -47s-38 -39 -49 -50z" />
    <glyph glyph-name="threesuperior" unicode="&#xb3;" horiz-adv-x="330" 
d="M286 384c0 -37 -16 -66 -48 -89c-31 -22 -65 -33 -102 -33c-28 0 -52 7 -73 20c-20 14 -30 29 -30 44c0 17 10 33 31 33c19 0 30 -14 30 -26c0 -7 -5 -17 -5 -25c0 -23 16 -35 47 -35c28 0 47 6 58 19s17 42 17 87s-4 73 -12 86c-7 13 -21 19 -40 19
c-13 0 -30 -6 -53 -18l-5 9c37 18 60 33 69 46c10 13 15 39 15 76c0 52 -9 63 -42 63c-23 0 -40 -12 -40 -31c0 -8 6 -17 6 -24c0 -13 -11 -27 -31 -27s-30 11 -30 33c0 12 10 25 29 38c20 14 42 21 66 21c68 0 115 -26 115 -78c0 -21 -13 -42 -38 -63
c-25 -20 -46 -32 -64 -36c4 0 11 1 14 1c72 -3 116 -51 116 -110z" />
    <glyph glyph-name="acute" unicode="&#xb4;" 
d="M71 504l-5 5l140 153c15 15 29 23 42 23c23 0 40 -19 40 -40c0 -14 -7 -25 -21 -32z" />
    <glyph glyph-name="mu" unicode="&#xb5;" horiz-adv-x="569" 
d="M82 82v332h-66v12h180v-321c0 -69 19 -103 57 -103c63 0 97 31 120 100v312h-64v12h179v-414h64v-12h-179v69c-17 -52 -67 -78 -120 -78c-65 0 -113 20 -142 59c1 -8 5 -28 10 -61c12 -67 16 -101 16 -133c2 -22 -6 -72 -42 -75c-27 0 -40 25 -40 75c0 25 4 63 13 113
s14 88 14 113z" />
    <glyph glyph-name="paragraph" unicode="&#xb6;" horiz-adv-x="581" 
d="M547 667v-13h-36c-35 0 -54 -40 -58 -77c-2 -19 -4 -40 -5 -65c-1 -24 -2 -39 -3 -44v-364c0 -79 -6 -139 -26 -200c-28 -89 -89 -149 -204 -149c-27 0 -53 5 -78 15s-37 26 -37 49c0 25 20 47 45 47s46 -20 46 -45c0 -11 -3 -21 -9 -30c2 -1 5 -1 10 -1
c44 0 75 34 90 85s20 98 20 150v195c-74 -4 -137 14 -190 53c-52 40 -78 97 -78 170c0 85 39 148 100 179c63 32 129 45 209 45h204zM470 654h-99c-24 -17 -39 -48 -44 -107c-2 -29 -3 -49 -4 -61v-64v-401c0 -59 -3 -96 -16 -147s-45 -85 -93 -97c21 0 39 2 54 6
c66 20 106 55 127 113c16 41 22 66 26 117c2 26 3 46 3 61c1 15 1 36 1 62v371c0 73 15 122 45 147z" />
    <glyph glyph-name="middot" unicode="&#xb7;" horiz-adv-x="221" 
d="M175 355c0 -39 -28 -69 -67 -69c-35 0 -63 30 -63 69c0 35 28 63 63 63c39 0 67 -27 67 -63z" />
    <glyph glyph-name="cedilla" unicode="&#xb8;" 
d="M169 -225c-45 0 -69 26 -69 53c0 13 10 25 25 25s23 -7 23 -20c0 -12 -11 -21 -11 -26c0 -13 11 -20 32 -20c37 0 68 18 68 45c0 37 -87 25 -87 93c0 25 8 48 25 69l12 -3c-8 -8 -12 -16 -12 -25c0 -28 21 -44 41 -51s41 -28 41 -61c0 -47 -31 -79 -88 -79z" />
    <glyph glyph-name="onesuperior" unicode="&#xb9;" horiz-adv-x="330" 
d="M253 278v-11h-164v11h46v378h-46v11h118v-389h46z" />
    <glyph glyph-name="ordmasculine" unicode="&#xba;" horiz-adv-x="393" 
d="M353 560c0 -45 -15 -84 -46 -117c-31 -32 -68 -48 -112 -48c-43 0 -79 16 -110 48c-30 33 -45 72 -45 117c0 46 15 85 45 117c31 33 67 49 110 49c44 0 81 -16 112 -49c31 -32 46 -71 46 -117zM262 560c0 120 -16 155 -67 155c-48 0 -65 -36 -65 -155
c0 -138 26 -154 65 -154c25 0 42 10 52 29c10 20 15 62 15 125z" />
    <glyph glyph-name="guillemotright" unicode="&#xbb;" horiz-adv-x="393" 
d="M362 224v-4c-20 -11 -41 -26 -76 -55s-59 -69 -59 -105h-21c0 29 6 60 17 91c12 32 25 56 39 71c-14 15 -27 39 -39 70c-11 31 -17 62 -17 92h21c0 -36 24 -76 59 -105s56 -44 76 -55zM198 224v-4c-20 -11 -41 -26 -76 -55s-59 -69 -59 -105h-21c0 29 6 60 17 91
c12 32 25 56 39 71c-14 15 -27 39 -39 70c-11 31 -17 62 -17 92h21c0 -36 24 -76 59 -105s56 -44 76 -55z" />
    <glyph glyph-name="onequarter" unicode="&#xbc;" horiz-adv-x="758" 
d="M715 11v-11h-164v11h46v119h-149v7c19 27 33 49 42 66l104 197c13 -4 30 -1 52 9c23 11 39 21 49 30l9 -6l-242 -292h135v63c25 1 52 31 61 52h11v-115h66v-11h-66v-119h46zM573 681l19 -10l-408 -687l-18 11zM253 278v-11h-164v11h46v378h-46v11h118v-389h46z" />
    <glyph glyph-name="onehalf" unicode="&#xbd;" horiz-adv-x="758" 
d="M513 60v-3h119c39 0 55 13 55 46h8v-103h-233v20l98 104c30 37 49 68 58 91s14 54 14 93c0 65 -18 89 -59 89c-27 0 -50 -14 -50 -38c0 -7 6 -21 6 -26c0 -12 -12 -24 -31 -24c-21 0 -31 10 -31 30c0 15 11 29 33 44s46 23 73 23c35 0 65 -9 91 -26c27 -17 40 -42 40 -77
c0 -29 -21 -64 -38 -84c-9 -9 -24 -25 -46 -47s-38 -39 -49 -50zM556 681l19 -10l-408 -687l-18 11zM253 278v-11h-164v11h46v378h-46v11h118v-389h46z" />
    <glyph glyph-name="threequarters" unicode="&#xbe;" horiz-adv-x="758" 
d="M286 384c0 -37 -16 -66 -48 -89c-31 -22 -65 -33 -102 -33c-28 0 -52 7 -73 20c-20 14 -30 29 -30 44c0 17 10 33 31 33c19 0 30 -14 30 -26c0 -7 -5 -17 -5 -25c0 -23 16 -35 47 -35c28 0 47 6 58 19s17 42 17 87s-4 73 -12 86c-7 13 -21 19 -40 19
c-13 0 -30 -6 -53 -18l-5 9c37 18 60 33 69 46c10 13 15 39 15 76c0 52 -9 63 -42 63c-23 0 -40 -12 -40 -31c0 -8 6 -17 6 -24c0 -13 -11 -27 -31 -27s-30 11 -30 33c0 12 10 25 29 38c20 14 42 21 66 21c68 0 115 -26 115 -78c0 -21 -13 -42 -38 -63
c-25 -20 -46 -32 -64 -36c4 0 11 1 14 1c72 -3 116 -51 116 -110zM715 11v-11h-164v11h46v119h-149v7c19 27 33 49 42 66l104 197c13 -4 30 -1 52 9c23 11 39 21 49 30l9 -6l-242 -292h135v63c25 1 52 31 61 52h11v-115h66v-11h-66v-119h46zM583 681l19 -10l-408 -687
l-18 11z" />
    <glyph glyph-name="questiondown" unicode="&#xbf;" horiz-adv-x="439" 
d="M268 249h11v-159h-1c-11 22 -34 33 -71 33c-18 0 -31 -5 -40 -15c-7 -8 -11 -22 -13 -42c-1 -19 -2 -64 -2 -134c0 -100 7 -140 31 -165c13 -13 33 -19 62 -19c48 0 78 33 78 82c0 28 -16 49 -16 70c0 28 23 50 60 50c40 0 60 -20 60 -61c0 -33 -20 -67 -59 -101
c-39 -35 -80 -52 -123 -52c-62 0 -113 18 -153 55c-40 36 -60 83 -60 141c0 56 17 104 52 143c35 40 76 60 123 60c25 0 46 -5 61 -15v129zM206 366c0 39 28 69 67 69c35 0 63 -30 63 -69c0 -35 -28 -63 -63 -63c-39 0 -67 27 -67 63z" />
    <glyph glyph-name="Agrave" unicode="&#xc0;" horiz-adv-x="604" 
d="M162 0h-182v12h57c13 0 25 13 34 39l221 629h18l243 -668h85v-12h-313v12h86l-67 208h-200l-61 -169c-13 -33 -8 -39 -3 -39h82v-12zM246 514l-98 -282h190zM229 885l140 -153l-5 -5l-196 109c-14 7 -21 18 -21 32c0 21 17 40 40 40c13 0 27 -8 42 -23z" />
    <glyph glyph-name="Aacute" unicode="&#xc1;" horiz-adv-x="604" 
d="M162 0h-182v12h57c13 0 25 13 34 39l221 629h18l243 -668h85v-12h-313v12h86l-67 208h-200l-61 -169c-13 -33 -8 -39 -3 -39h82v-12zM246 514l-98 -282h190zM242 729l-5 5l140 153c15 15 29 23 42 23c23 0 40 -19 40 -40c0 -14 -7 -25 -21 -32z" />
    <glyph glyph-name="Acircumflex" unicode="&#xc2;" horiz-adv-x="604" 
d="M162 0h-182v12h57c13 0 25 13 34 39l221 629h18l243 -668h85v-12h-313v12h86l-67 208h-200l-61 -169c-13 -33 -8 -39 -3 -39h82v-12zM246 514l-98 -282h190zM443 730l-6 -8l-141 85l-130 -85l-6 8c32 33 78 93 139 182h4c25 -40 71 -101 140 -182z" />
    <glyph glyph-name="Atilde" unicode="&#xc3;" horiz-adv-x="604" 
d="M162 0h-182v12h57c13 0 25 13 34 39l221 629h18l243 -668h85v-12h-313v12h86l-67 208h-200l-61 -169c-13 -33 -8 -39 -3 -39h82v-12zM246 514l-98 -282h190zM442 874h14c0 -31 -12 -58 -36 -81c-23 -22 -51 -33 -83 -33c-60 0 -89 60 -126 60c-28 0 -49 -27 -49 -60h-15
c0 64 46 114 110 114c25 0 50 -10 75 -30c26 -19 46 -29 59 -29c29 0 51 24 51 59z" />
    <glyph glyph-name="Adieresis" unicode="&#xc4;" horiz-adv-x="604" 
d="M162 0h-182v12h57c13 0 25 13 34 39l221 629h18l243 -668h85v-12h-313v12h86l-67 208h-200l-61 -169c-13 -33 -8 -39 -3 -39h82v-12zM246 514l-98 -282h190zM269 808c0 -39 -28 -69 -67 -69c-35 0 -63 30 -63 69c0 35 28 63 63 63c39 0 67 -27 67 -63zM465 808
c0 -39 -28 -69 -67 -69c-35 0 -63 30 -63 69c0 35 28 63 63 63c39 0 67 -27 67 -63z" />
    <glyph glyph-name="Aring" unicode="&#xc5;" horiz-adv-x="604" 
d="M394 763c0 -44 -38 -83 -82 -90l241 -661h85v-12h-313v12h86l-67 208h-200l-61 -169c-13 -33 -8 -39 -3 -39h82v-12h-182v12h57c13 0 25 13 34 39l219 622c-44 7 -80 46 -80 90c0 29 10 52 31 67c21 16 42 24 61 24s39 -8 60 -24c21 -15 32 -38 32 -67zM148 232h190
l-92 282zM254 762c0 -60 15 -81 48 -81s48 21 48 81c0 53 -9 84 -48 84s-48 -31 -48 -84z" />
    <glyph glyph-name="AE" unicode="&#xc6;" horiz-adv-x="882" 
d="M317 667h494v-201h-12c0 49 -14 93 -42 131c-27 39 -67 58 -120 58h-98v-306h22c69 0 112 59 112 128h13v-268h-13c0 69 -43 128 -112 128h-22v-325h101c69 0 120 21 155 62c35 42 52 91 52 146h11v-220h-540v12h89v258h-209l-121 -219c-13 -24 -18 -37 -15 -38
c1 -1 3 -1 6 -1h74v-12h-178v12h60c8 0 16 2 35 39l336 604h-78v12zM204 282h203v366z" />
    <glyph glyph-name="Ccedilla" unicode="&#xc7;" horiz-adv-x="610" 
d="M559 247v-261h-10c-3 13 -17 28 -41 28c-13 0 -39 -5 -78 -15s-67 -15 -85 -15c-85 0 -156 34 -214 103c-57 69 -86 151 -86 246s28 177 84 246c57 69 127 104 212 104c15 0 39 -4 73 -13c35 -8 59 -12 72 -12c25 0 43 11 46 22h11v-227h-11c0 47 -21 95 -63 144
c-41 49 -84 74 -128 74c-41 0 -72 -11 -94 -34c-37 -40 -56 -141 -56 -304c0 -162 19 -263 56 -303c21 -23 53 -35 98 -35c54 0 101 26 142 78c41 53 62 111 62 174h10zM325 -225c-45 0 -69 26 -69 53c0 13 10 25 25 25s23 -7 23 -20c0 -12 -11 -21 -11 -26
c0 -13 11 -20 32 -20c37 0 68 18 68 45c0 37 -87 25 -87 93c0 25 8 48 25 69l12 -3c-8 -8 -12 -16 -12 -25c0 -28 21 -44 41 -51s41 -28 41 -61c0 -47 -31 -79 -88 -79z" />
    <glyph glyph-name="Egrave" unicode="&#xc8;" horiz-adv-x="596" 
d="M572 220v-220h-537v12h86v643h-86v12h490v-201h-12c0 49 -14 93 -42 131c-27 39 -67 58 -120 58h-98v-306h22c69 0 112 59 112 128h13v-268h-13c0 69 -43 128 -112 128h-22v-325h101c69 0 120 21 155 62c35 42 52 91 52 146h11zM265 885l140 -153l-5 -5l-196 109
c-14 7 -21 18 -21 32c0 21 17 40 40 40c13 0 27 -8 42 -23z" />
    <glyph glyph-name="Eacute" unicode="&#xc9;" horiz-adv-x="596" 
d="M572 220v-220h-537v12h86v643h-86v12h490v-201h-12c0 49 -14 93 -42 131c-27 39 -67 58 -120 58h-98v-306h22c69 0 112 59 112 128h13v-268h-13c0 69 -43 128 -112 128h-22v-325h101c69 0 120 21 155 62c35 42 52 91 52 146h11zM199 727l-5 5l140 153c15 15 29 23 42 23
c23 0 40 -19 40 -40c0 -14 -7 -25 -21 -32z" />
    <glyph glyph-name="Ecircumflex" unicode="&#xca;" horiz-adv-x="596" 
d="M572 220v-220h-537v12h86v643h-86v12h490v-201h-12c0 49 -14 93 -42 131c-27 39 -67 58 -120 58h-98v-306h22c69 0 112 59 112 128h13v-268h-13c0 69 -43 128 -112 128h-22v-325h101c69 0 120 21 155 62c35 42 52 91 52 146h11zM439 730l-6 -8l-141 85l-130 -85l-6 8
c32 33 78 93 139 182h4c25 -40 71 -101 140 -182z" />
    <glyph glyph-name="Edieresis" unicode="&#xcb;" horiz-adv-x="596" 
d="M572 220v-220h-537v12h86v643h-86v12h490v-201h-12c0 49 -14 93 -42 131c-27 39 -67 58 -120 58h-98v-306h22c69 0 112 59 112 128h13v-268h-13c0 69 -43 128 -112 128h-22v-325h101c69 0 120 21 155 62c35 42 52 91 52 146h11zM265 808c0 -39 -28 -69 -67 -69
c-35 0 -63 30 -63 69c0 35 28 63 63 63c39 0 67 -27 67 -63zM461 808c0 -39 -28 -69 -67 -69c-35 0 -63 30 -63 69c0 35 28 63 63 63c39 0 67 -27 67 -63z" />
    <glyph glyph-name="Igrave" unicode="&#xcc;" horiz-adv-x="375" 
d="M341 12v-12h-305v12h85v643h-85v12h305v-12h-87v-643h87zM125 885l140 -153l-5 -5l-196 109c-14 7 -21 18 -21 32c0 21 17 40 40 40c13 0 27 -8 42 -23z" />
    <glyph glyph-name="Iacute" unicode="&#xcd;" horiz-adv-x="375" 
d="M341 12v-12h-305v12h85v643h-85v12h305v-12h-87v-643h87zM119 727l-5 5l140 153c15 15 29 23 42 23c23 0 40 -19 40 -40c0 -14 -7 -25 -21 -32z" />
    <glyph glyph-name="Icircumflex" unicode="&#xce;" horiz-adv-x="375" 
d="M341 12v-12h-305v12h85v643h-85v12h305v-12h-87v-643h87zM329 730l-6 -8l-141 85l-130 -85l-6 8c32 33 78 93 139 182h4c25 -40 71 -101 140 -182z" />
    <glyph glyph-name="Idieresis" unicode="&#xcf;" horiz-adv-x="375" 
d="M341 12v-12h-305v12h85v643h-85v12h305v-12h-87v-643h87zM154 808c0 -39 -28 -69 -67 -69c-35 0 -63 30 -63 69c0 35 28 63 63 63c39 0 67 -27 67 -63zM350 808c0 -39 -28 -69 -67 -69c-35 0 -63 30 -63 69c0 35 28 63 63 63c39 0 67 -27 67 -63z" />
    <glyph glyph-name="Eth" unicode="&#xd0;" horiz-adv-x="668" 
d="M41 327v12h80v316h-85v12h291c81 0 151 -33 208 -98s86 -143 86 -236c0 -91 -29 -170 -87 -235c-57 -65 -126 -98 -207 -98h-291v12h85v315h-80zM475 333c0 157 -18 253 -54 289c-21 22 -53 33 -94 33h-73v-316h88v-12h-88v-315h73c41 0 73 11 94 33c20 21 34 52 42 94
c8 43 12 107 12 194z" />
    <glyph glyph-name="Ntilde" unicode="&#xd1;" horiz-adv-x="662" 
d="M566 -12h-20l-417 656v-603c0 -19 11 -29 34 -29h52v-12h-183v12h52c22 0 33 10 33 29v614h-86v12h238l285 -455v415c0 19 -11 28 -33 28h-52v12h183v-12h-51c-23 0 -35 -9 -35 -28v-639zM471 874h14c0 -31 -12 -58 -36 -81c-23 -22 -51 -33 -83 -33
c-60 0 -89 60 -126 60c-28 0 -49 -27 -49 -60h-15c0 64 46 114 110 114c25 0 50 -10 75 -30c26 -19 46 -29 59 -29c29 0 51 24 51 59z" />
    <glyph glyph-name="Ograve" unicode="&#xd2;" horiz-adv-x="683" 
d="M45 333c0 95 28 177 84 246c57 69 127 104 212 104c81 0 151 -34 209 -103c58 -68 87 -150 87 -247s-29 -179 -87 -247s-128 -102 -209 -102s-151 34 -209 102s-87 150 -87 247zM490 333c0 163 -18 265 -55 304c-22 23 -53 34 -94 34s-72 -11 -93 -34
c-37 -39 -56 -141 -56 -304c0 -90 4 -157 12 -202c9 -45 23 -78 44 -101s52 -35 93 -35c42 0 73 12 94 35c21 22 35 55 43 100s12 112 12 203zM279 885l140 -153l-5 -5l-196 109c-14 7 -21 18 -21 32c0 21 17 40 40 40c13 0 27 -8 42 -23z" />
    <glyph glyph-name="Oacute" unicode="&#xd3;" horiz-adv-x="683" 
d="M45 333c0 95 28 177 84 246c57 69 127 104 212 104c81 0 151 -34 209 -103c58 -68 87 -150 87 -247s-29 -179 -87 -247s-128 -102 -209 -102s-151 34 -209 102s-87 150 -87 247zM490 333c0 163 -18 265 -55 304c-22 23 -53 34 -94 34s-72 -11 -93 -34
c-37 -39 -56 -141 -56 -304c0 -90 4 -157 12 -202c9 -45 23 -78 44 -101s52 -35 93 -35c42 0 73 12 94 35c21 22 35 55 43 100s12 112 12 203zM273 727l-5 5l140 153c15 15 29 23 42 23c23 0 40 -19 40 -40c0 -14 -7 -25 -21 -32z" />
    <glyph glyph-name="Ocircumflex" unicode="&#xd4;" horiz-adv-x="683" 
d="M45 333c0 95 28 177 84 246c57 69 127 104 212 104c81 0 151 -34 209 -103c58 -68 87 -150 87 -247s-29 -179 -87 -247s-128 -102 -209 -102s-151 34 -209 102s-87 150 -87 247zM490 333c0 163 -18 265 -55 304c-22 23 -53 34 -94 34s-72 -11 -93 -34
c-37 -39 -56 -141 -56 -304c0 -90 4 -157 12 -202c9 -45 23 -78 44 -101s52 -35 93 -35c42 0 73 12 94 35c21 22 35 55 43 100s12 112 12 203zM483 730l-6 -8l-141 85l-130 -85l-6 8c32 33 78 93 139 182h4c25 -40 71 -101 140 -182z" />
    <glyph glyph-name="Otilde" unicode="&#xd5;" horiz-adv-x="683" 
d="M45 333c0 95 28 177 84 246c57 69 127 104 212 104c81 0 151 -34 209 -103c58 -68 87 -150 87 -247s-29 -179 -87 -247s-128 -102 -209 -102s-151 34 -209 102s-87 150 -87 247zM490 333c0 163 -18 265 -55 304c-22 23 -53 34 -94 34s-72 -11 -93 -34
c-37 -39 -56 -141 -56 -304c0 -90 4 -157 12 -202c9 -45 23 -78 44 -101s52 -35 93 -35c42 0 73 12 94 35c21 22 35 55 43 100s12 112 12 203zM482 874h14c0 -31 -12 -58 -36 -81c-23 -22 -51 -33 -83 -33c-60 0 -89 60 -126 60c-28 0 -49 -27 -49 -60h-15
c0 64 46 114 110 114c25 0 50 -10 75 -30c26 -19 46 -29 59 -29c29 0 51 24 51 59z" />
    <glyph glyph-name="Odieresis" unicode="&#xd6;" horiz-adv-x="683" 
d="M45 333c0 95 28 177 84 246c57 69 127 104 212 104c81 0 151 -34 209 -103c58 -68 87 -150 87 -247s-29 -179 -87 -247s-128 -102 -209 -102s-151 34 -209 102s-87 150 -87 247zM490 333c0 163 -18 265 -55 304c-22 23 -53 34 -94 34s-72 -11 -93 -34
c-37 -39 -56 -141 -56 -304c0 -90 4 -157 12 -202c9 -45 23 -78 44 -101s52 -35 93 -35c42 0 73 12 94 35c21 22 35 55 43 100s12 112 12 203zM308 808c0 -39 -28 -69 -67 -69c-35 0 -63 30 -63 69c0 35 28 63 63 63c39 0 67 -27 67 -63zM504 808c0 -39 -28 -69 -67 -69
c-35 0 -63 30 -63 69c0 35 28 63 63 63c39 0 67 -27 67 -63z" />
    <glyph glyph-name="multiply" unicode="&#xd7;" horiz-adv-x="600" 
d="M492 89l-38 -39l-156 156l-153 -153l-38 38l153 153l-155 155l39 38l154 -155l153 153l38 -38l-152 -153z" />
    <glyph glyph-name="Oslash" unicode="&#xd8;" horiz-adv-x="683" 
d="M511 619l40 69l14 -6l-43 -73c72 -65 115 -165 115 -276c0 -97 -29 -179 -87 -247s-128 -102 -209 -102c-56 0 -108 17 -156 52l-34 -59l-14 6l36 62c-79 64 -128 171 -128 288c0 95 28 177 84 246c57 69 127 104 212 104c62 0 119 -21 170 -64zM192 333
c0 -106 6 -182 18 -227l262 448c-8 38 -20 66 -37 83c-22 23 -53 34 -94 34s-72 -11 -93 -34c-37 -39 -56 -141 -56 -304zM490 333c0 83 -4 150 -13 199l-262 -445c9 -24 20 -43 33 -57c21 -23 52 -35 93 -35c42 0 73 12 94 35c21 22 35 55 43 100s12 112 12 203z" />
    <glyph glyph-name="Ugrave" unicode="&#xd9;" horiz-adv-x="651" 
d="M337 -16c-143 0 -233 66 -233 201v470h-85v12h304v-12h-88v-477c0 -117 33 -174 125 -174c120 0 184 72 184 187v436c0 19 -11 28 -34 28h-56v12h188v-12h-52c-23 0 -34 -9 -34 -28v-429c0 -135 -71 -214 -219 -214zM293 885l140 -153l-5 -5l-196 109
c-14 7 -21 18 -21 32c0 21 17 40 40 40c13 0 27 -8 42 -23z" />
    <glyph glyph-name="Uacute" unicode="&#xda;" horiz-adv-x="651" 
d="M337 -16c-143 0 -233 66 -233 201v470h-85v12h304v-12h-88v-477c0 -117 33 -174 125 -174c120 0 184 72 184 187v436c0 19 -11 28 -34 28h-56v12h188v-12h-52c-23 0 -34 -9 -34 -28v-429c0 -135 -71 -214 -219 -214zM287 727l-5 5l140 153c15 15 29 23 42 23
c23 0 40 -19 40 -40c0 -14 -7 -25 -21 -32z" />
    <glyph glyph-name="Ucircumflex" unicode="&#xdb;" horiz-adv-x="651" 
d="M337 -16c-143 0 -233 66 -233 201v470h-85v12h304v-12h-88v-477c0 -117 33 -174 125 -174c120 0 184 72 184 187v436c0 19 -11 28 -34 28h-56v12h188v-12h-52c-23 0 -34 -9 -34 -28v-429c0 -135 -71 -214 -219 -214zM497 730l-6 -8l-141 85l-130 -85l-6 8
c32 33 78 93 139 182h4c25 -40 71 -101 140 -182z" />
    <glyph glyph-name="Udieresis" unicode="&#xdc;" horiz-adv-x="651" 
d="M337 -16c-143 0 -233 66 -233 201v470h-85v12h304v-12h-88v-477c0 -117 33 -174 125 -174c120 0 184 72 184 187v436c0 19 -11 28 -34 28h-56v12h188v-12h-52c-23 0 -34 -9 -34 -28v-429c0 -135 -71 -214 -219 -214zM332 808c0 -39 -28 -69 -67 -69c-35 0 -63 30 -63 69
c0 35 28 63 63 63c39 0 67 -27 67 -63zM528 808c0 -39 -28 -69 -67 -69c-35 0 -63 30 -63 69c0 35 28 63 63 63c39 0 67 -27 67 -63z" />
    <glyph glyph-name="Yacute" unicode="&#xdd;" horiz-adv-x="606" 
d="M476 0h-303v12h86v279l-179 364h-93v12h331v-12h-97l166 -338l136 298c12 27 8 40 -13 40h-64v12h188v-12h-55c-18 0 -34 -15 -48 -45l-141 -311v-287h86v-12zM304 727l-5 5l140 153c15 15 29 23 42 23c23 0 40 -19 40 -40c0 -14 -7 -25 -21 -32z" />
    <glyph glyph-name="Thorn" unicode="&#xde;" horiz-adv-x="584" 
d="M255 655v-116v-4h56c161 0 245 -80 245 -201c0 -116 -73 -183 -217 -183c-23 0 -51 4 -84 12v-151h87v-12h-306v12h85v643h-85v12h306v-12h-87zM423 334c0 136 -32 189 -112 189h-56v-345c23 -10 51 -15 84 -15c38 0 61 10 70 31s14 68 14 140z" />
    <glyph glyph-name="germandbls" unicode="&#xdf;" horiz-adv-x="562" 
d="M530 182c0 -60 -18 -107 -53 -140s-71 -50 -108 -50c-30 0 -55 9 -75 28c-19 19 -29 41 -29 64s13 38 32 38c20 0 35 -12 35 -31c0 -8 -9 -23 -9 -36c0 -35 15 -52 46 -52c39 0 52 15 52 170c0 152 -26 207 -93 207c-12 0 -24 -3 -35 -10l-6 8c32 19 53 39 64 62
s16 61 16 114c0 99 -20 135 -84 135c-51 0 -82 -38 -82 -117v-560h59v-12h-228v12h58v411c0 93 19 163 56 208c38 46 84 69 137 69s98 -14 133 -41s53 -62 53 -107c0 -73 -43 -125 -129 -158c9 1 20 2 32 2c49 0 87 -22 115 -65c29 -43 43 -92 43 -149z" />
    <glyph glyph-name="agrave" unicode="&#xe0;" horiz-adv-x="472" 
d="M459 38l8 -7c-9 -17 -45 -39 -81 -39c-44 0 -91 30 -98 66c-15 -44 -48 -66 -101 -66c-41 0 -76 8 -106 25c-29 17 -44 44 -44 80c0 73 48 115 145 124c37 3 49 5 72 9c24 4 32 10 32 21v79c0 75 -21 96 -62 96c-35 0 -53 -15 -53 -46c0 -12 8 -31 8 -42
c0 -23 -17 -40 -50 -40c-32 0 -49 22 -49 50c0 21 14 41 42 60c29 19 63 28 102 28c111 0 176 -60 176 -181v-206c0 -23 8 -34 23 -34c11 0 23 8 36 23zM286 115v114c-12 -7 -30 -11 -39 -14c-9 -1 -38 -4 -45 -5c-37 -8 -51 -33 -51 -121c0 -57 10 -81 54 -81
c48 0 81 47 81 107zM173 662l140 -153l-5 -5l-196 109c-14 7 -21 18 -21 32c0 21 17 40 40 40c13 0 27 -8 42 -23z" />
    <glyph glyph-name="aacute" unicode="&#xe1;" horiz-adv-x="472" 
d="M459 38l8 -7c-9 -17 -45 -39 -81 -39c-44 0 -91 30 -98 66c-15 -44 -48 -66 -101 -66c-41 0 -76 8 -106 25c-29 17 -44 44 -44 80c0 73 48 115 145 124c37 3 49 5 72 9c24 4 32 10 32 21v79c0 75 -21 96 -62 96c-35 0 -53 -15 -53 -46c0 -12 8 -31 8 -42
c0 -23 -17 -40 -50 -40c-32 0 -49 22 -49 50c0 21 14 41 42 60c29 19 63 28 102 28c111 0 176 -60 176 -181v-206c0 -23 8 -34 23 -34c11 0 23 8 36 23zM286 115v114c-12 -7 -30 -11 -39 -14c-9 -1 -38 -4 -45 -5c-37 -8 -51 -33 -51 -121c0 -57 10 -81 54 -81
c48 0 81 47 81 107zM167 504l-5 5l140 153c15 15 29 23 42 23c23 0 40 -19 40 -40c0 -14 -7 -25 -21 -32z" />
    <glyph glyph-name="acircumflex" unicode="&#xe2;" horiz-adv-x="472" 
d="M459 38l8 -7c-9 -17 -45 -39 -81 -39c-44 0 -91 30 -98 66c-15 -44 -48 -66 -101 -66c-41 0 -76 8 -106 25c-29 17 -44 44 -44 80c0 73 48 115 145 124c37 3 49 5 72 9c24 4 32 10 32 21v79c0 75 -21 96 -62 96c-35 0 -53 -15 -53 -46c0 -12 8 -31 8 -42
c0 -23 -17 -40 -50 -40c-32 0 -49 22 -49 50c0 21 14 41 42 60c29 19 63 28 102 28c111 0 176 -60 176 -181v-206c0 -23 8 -34 23 -34c11 0 23 8 36 23zM286 115v114c-12 -7 -30 -11 -39 -14c-9 -1 -38 -4 -45 -5c-37 -8 -51 -33 -51 -121c0 -57 10 -81 54 -81
c48 0 81 47 81 107zM377 507l-6 -8l-141 85l-130 -85l-6 8c32 33 78 93 139 182h4c25 -39 71 -100 140 -182z" />
    <glyph glyph-name="atilde" unicode="&#xe3;" horiz-adv-x="472" 
d="M459 38l8 -7c-9 -17 -45 -39 -81 -39c-44 0 -91 30 -98 66c-15 -44 -48 -66 -101 -66c-41 0 -76 8 -106 25c-29 17 -44 44 -44 80c0 73 48 115 145 124c37 3 49 5 72 9c24 4 32 10 32 21v79c0 75 -21 96 -62 96c-35 0 -53 -15 -53 -46c0 -12 8 -31 8 -42
c0 -23 -17 -40 -50 -40c-32 0 -49 22 -49 50c0 21 14 41 42 60c29 19 63 28 102 28c111 0 176 -60 176 -181v-206c0 -23 8 -34 23 -34c11 0 23 8 36 23zM286 115v114c-12 -7 -30 -11 -39 -14c-9 -1 -38 -4 -45 -5c-37 -8 -51 -33 -51 -121c0 -57 10 -81 54 -81
c48 0 81 47 81 107zM376 651h14c0 -31 -12 -58 -36 -81c-23 -22 -51 -33 -83 -33c-60 0 -89 60 -126 60c-28 0 -49 -27 -49 -60h-15c0 64 46 114 110 114c25 0 50 -10 75 -30c26 -19 46 -29 59 -29c29 0 51 24 51 59z" />
    <glyph glyph-name="adieresis" unicode="&#xe4;" horiz-adv-x="472" 
d="M459 38l8 -7c-9 -17 -45 -39 -81 -39c-44 0 -91 30 -98 66c-15 -44 -48 -66 -101 -66c-41 0 -76 8 -106 25c-29 17 -44 44 -44 80c0 73 48 115 145 124c37 3 49 5 72 9c24 4 32 10 32 21v79c0 75 -21 96 -62 96c-35 0 -53 -15 -53 -46c0 -12 8 -31 8 -42
c0 -23 -17 -40 -50 -40c-32 0 -49 22 -49 50c0 21 14 41 42 60c29 19 63 28 102 28c111 0 176 -60 176 -181v-206c0 -23 8 -34 23 -34c11 0 23 8 36 23zM286 115v114c-12 -7 -30 -11 -39 -14c-9 -1 -38 -4 -45 -5c-37 -8 -51 -33 -51 -121c0 -57 10 -81 54 -81
c48 0 81 47 81 107zM363 634c23 -21 23 -59 0 -80c-21 -21 -58 -21 -81 0s-23 59 0 80s60 21 81 0zM207 594c0 -31 -27 -56 -56 -56c-33 0 -58 24 -58 56c0 33 25 56 58 56c29 0 56 -24 56 -56z" />
    <glyph glyph-name="aring" unicode="&#xe5;" horiz-adv-x="472" 
d="M459 38l8 -7c-9 -17 -45 -39 -81 -39c-44 0 -91 30 -98 66c-15 -44 -48 -66 -101 -66c-41 0 -76 8 -106 25c-29 17 -44 44 -44 80c0 73 48 115 145 124c37 3 49 5 72 9c24 4 32 10 32 21v79c0 75 -21 96 -62 96c-35 0 -53 -15 -53 -46c0 -12 8 -31 8 -42
c0 -23 -17 -40 -50 -40c-32 0 -49 22 -49 50c0 21 14 41 42 60c29 19 63 28 102 28c111 0 176 -60 176 -181v-206c0 -23 8 -34 23 -34c11 0 23 8 36 23zM286 115v114c-12 -7 -30 -11 -39 -14c-9 -1 -38 -4 -45 -5c-37 -8 -51 -33 -51 -121c0 -57 10 -81 54 -81
c48 0 81 47 81 107zM328 610c0 -48 -44 -90 -92 -90s-92 42 -92 90c0 29 10 52 31 67c21 16 42 24 61 24s39 -8 60 -24c21 -15 32 -38 32 -67zM277 610c0 40 -5 65 -15 75c-12 11 -40 11 -51 0c-10 -11 -15 -36 -15 -75s5 -63 15 -74c11 -11 39 -11 51 0c10 10 15 35 15 74z
" />
    <glyph glyph-name="ae" unicode="&#xe6;" horiz-adv-x="732" 
d="M302 103c-9 -74 -52 -111 -127 -111c-35 0 -67 8 -96 25c-28 17 -42 44 -42 80c0 73 48 115 145 124c37 3 49 5 72 9c24 4 32 10 32 21v79c0 75 -21 96 -62 96c-35 0 -53 -15 -53 -46c0 -12 8 -31 8 -42c0 -23 -17 -40 -50 -40c-32 0 -49 22 -49 50c0 21 14 41 42 60
c29 19 63 28 102 28c61 0 107 -18 136 -53c42 35 89 52 142 52c41 0 76 -12 107 -36c63 -47 87 -109 87 -160v-3h-296v-23c2 -163 19 -204 102 -210c72 0 136 38 175 91l8 -8c-39 -57 -110 -95 -183 -95c-37 0 -74 11 -112 32c-37 22 -67 49 -88 80zM400 248h191
c-1 78 -12 129 -34 154c-11 14 -30 21 -55 21c-28 0 -49 -7 -63 -21c-25 -25 -38 -77 -39 -154zM286 115v114c-12 -7 -30 -11 -39 -14c-9 -1 -38 -4 -45 -5c-37 -8 -51 -33 -51 -121c0 -57 10 -81 54 -81c48 0 81 47 81 107z" />
    <glyph glyph-name="ccedilla" unicode="&#xe7;" horiz-adv-x="466" 
d="M253 -225c-45 0 -69 26 -69 53c0 13 10 25 25 25s23 -7 23 -20c0 -12 -11 -21 -11 -26c0 -13 11 -20 32 -20c37 0 68 18 68 45c0 37 -87 25 -87 93c0 25 8 48 25 69l12 -3c-8 -8 -12 -16 -12 -25c0 -28 21 -44 41 -51s41 -28 41 -61c0 -47 -31 -79 -88 -79zM261 -9
c-59 0 -111 22 -154 65c-43 44 -64 96 -64 157s21 113 64 156c43 44 95 66 154 66c45 0 84 -13 117 -39s50 -53 50 -81c0 -31 -16 -46 -48 -46c-28 0 -46 17 -46 38c0 17 13 32 13 55c0 20 -8 35 -23 45c-15 11 -36 16 -63 16s-47 -7 -61 -21c-27 -27 -36 -77 -36 -189
s9 -162 36 -189c14 -14 34 -21 61 -21c67 0 123 33 168 99l8 -8c-48 -69 -107 -103 -176 -103z" />
    <glyph glyph-name="egrave" unicode="&#xe8;" horiz-adv-x="496" 
d="M266 -9c-60 0 -112 22 -157 65c-44 44 -66 96 -66 157s22 113 66 156c45 44 97 66 157 66c41 0 76 -12 107 -36c63 -47 87 -109 87 -160v-3h-296v-23c2 -163 19 -204 102 -210c72 0 136 38 175 91l8 -8c-39 -57 -110 -95 -183 -95zM164 248h191c-1 78 -12 129 -34 154
c-11 14 -30 21 -55 21c-28 0 -49 -7 -63 -21c-25 -25 -38 -77 -39 -154zM185 662l140 -153l-5 -5l-196 109c-14 7 -21 18 -21 32c0 21 17 40 40 40c13 0 27 -8 42 -23z" />
    <glyph glyph-name="eacute" unicode="&#xe9;" horiz-adv-x="496" 
d="M266 -9c-60 0 -112 22 -157 65c-44 44 -66 96 -66 157s22 113 66 156c45 44 97 66 157 66c41 0 76 -12 107 -36c63 -47 87 -109 87 -160v-3h-296v-23c2 -163 19 -204 102 -210c72 0 136 38 175 91l8 -8c-39 -57 -110 -95 -183 -95zM164 248h191c-1 78 -12 129 -34 154
c-11 14 -30 21 -55 21c-28 0 -49 -7 -63 -21c-25 -25 -38 -77 -39 -154zM199 504l-5 5l140 153c15 15 29 23 42 23c23 0 40 -19 40 -40c0 -14 -7 -25 -21 -32z" />
    <glyph glyph-name="ecircumflex" unicode="&#xea;" horiz-adv-x="496" 
d="M266 -9c-60 0 -112 22 -157 65c-44 44 -66 96 -66 157s22 113 66 156c45 44 97 66 157 66c41 0 76 -12 107 -36c63 -47 87 -109 87 -160v-3h-296v-23c2 -163 19 -204 102 -210c72 0 136 38 175 91l8 -8c-39 -57 -110 -95 -183 -95zM164 248h191c-1 78 -12 129 -34 154
c-11 14 -30 21 -55 21c-28 0 -49 -7 -63 -21c-25 -25 -38 -77 -39 -154zM409 507l-6 -8l-141 85l-130 -85l-6 8c32 33 78 93 139 182h4c25 -39 71 -100 140 -182z" />
    <glyph glyph-name="edieresis" unicode="&#xeb;" horiz-adv-x="496" 
d="M266 -9c-60 0 -112 22 -157 65c-44 44 -66 96 -66 157s22 113 66 156c45 44 97 66 157 66c41 0 76 -12 107 -36c63 -47 87 -109 87 -160v-3h-296v-23c2 -163 19 -204 102 -210c72 0 136 38 175 91l8 -8c-39 -57 -110 -95 -183 -95zM164 248h191c-1 78 -12 129 -34 154
c-11 14 -30 21 -55 21c-28 0 -49 -7 -63 -21c-25 -25 -38 -77 -39 -154zM395 634c23 -21 23 -59 0 -80c-21 -21 -58 -21 -81 0s-23 59 0 80s60 21 81 0zM239 594c0 -31 -27 -56 -56 -56c-33 0 -58 24 -58 56c0 33 25 56 58 56c29 0 56 -24 56 -56z" />
    <glyph glyph-name="igrave" unicode="&#xec;" horiz-adv-x="307" 
d="M281 12v-12h-245v12h66v402h-66v12h180v-414h65zM101 662l140 -153l-5 -5l-196 109c-14 7 -21 18 -21 32c0 21 17 40 40 40c13 0 27 -8 42 -23z" />
    <glyph glyph-name="iacute" unicode="&#xed;" horiz-adv-x="307" 
d="M281 12v-12h-245v12h66v402h-66v12h180v-414h65zM75 504l-5 5l140 153c15 15 29 23 42 23c23 0 40 -19 40 -40c0 -14 -7 -25 -21 -32z" />
    <glyph glyph-name="icircumflex" unicode="&#xee;" horiz-adv-x="307" 
d="M281 12v-12h-245v12h66v402h-66v12h180v-414h65zM295 507l-6 -8l-141 85l-130 -85l-6 8c32 33 78 93 139 182h4c25 -39 71 -100 140 -182z" />
    <glyph glyph-name="idieresis" unicode="&#xef;" horiz-adv-x="307" 
d="M281 634c23 -21 23 -59 0 -80c-21 -21 -58 -21 -81 0s-23 59 0 80s60 21 81 0zM125 594c0 -31 -27 -56 -56 -56c-33 0 -58 24 -58 56c0 33 25 56 58 56c29 0 56 -24 56 -56zM281 12v-12h-245v12h66v402h-66v12h180v-414h65z" />
    <glyph glyph-name="eth" unicode="&#xf0;" horiz-adv-x="524" 
d="M274 617l-135 -78l-6 10l133 77c-39 51 -87 85 -144 104l7 8c69 -19 127 -50 175 -91l110 64l6 -10l-106 -61c104 -91 167 -225 167 -386c0 -83 -21 -147 -64 -194c-42 -46 -96 -69 -161 -69c-60 0 -111 22 -152 67s-61 96 -61 152c0 59 21 111 62 156
c42 46 92 69 151 69c45 0 77 -15 98 -46c-9 90 -36 166 -80 228zM262 3c23 0 43 7 58 22c14 14 24 34 29 61s8 70 8 127c0 112 -5 159 -30 186c-16 16 -38 24 -65 24s-48 -7 -62 -21c-24 -26 -36 -89 -36 -189s12 -163 36 -189c14 -14 35 -21 62 -21z" />
    <glyph glyph-name="ntilde" unicode="&#xf1;" horiz-adv-x="579" 
d="M275 0h-244v12h65v402h-65v12h179v-69c17 52 67 78 119 78c108 0 173 -62 173 -167v-256h64v-12h-242v12h63v309c0 68 -19 102 -58 102c-61 0 -96 -30 -119 -99v-312h65v-12zM430 651h14c0 -31 -12 -58 -36 -81c-23 -22 -51 -33 -83 -33c-60 0 -89 60 -126 60
c-28 0 -49 -27 -49 -60h-15c0 64 46 114 110 114c25 0 50 -10 75 -30c26 -19 46 -29 59 -29c29 0 51 24 51 59z" />
    <glyph glyph-name="ograve" unicode="&#xf2;" horiz-adv-x="524" 
d="M261 -9c-59 0 -111 22 -154 65c-43 44 -64 96 -64 157s21 113 64 156c43 44 95 66 154 66c61 0 112 -22 155 -65s65 -96 65 -157s-22 -114 -65 -157s-94 -65 -155 -65zM324 402c-13 14 -34 21 -63 21c-27 0 -48 -7 -62 -21c-24 -26 -36 -89 -36 -189s12 -163 36 -189
c14 -14 35 -21 62 -21c29 0 50 7 63 21c25 25 37 88 37 189s-12 164 -37 189zM199 662l140 -153l-5 -5l-196 109c-14 7 -21 18 -21 32c0 21 17 40 40 40c13 0 27 -8 42 -23z" />
    <glyph glyph-name="oacute" unicode="&#xf3;" horiz-adv-x="524" 
d="M261 -9c-59 0 -111 22 -154 65c-43 44 -64 96 -64 157s21 113 64 156c43 44 95 66 154 66c61 0 112 -22 155 -65s65 -96 65 -157s-22 -114 -65 -157s-94 -65 -155 -65zM324 402c-13 14 -34 21 -63 21c-27 0 -48 -7 -62 -21c-24 -26 -36 -89 -36 -189s12 -163 36 -189
c14 -14 35 -21 62 -21c29 0 50 7 63 21c25 25 37 88 37 189s-12 164 -37 189zM193 504l-5 5l140 153c15 15 29 23 42 23c23 0 40 -19 40 -40c0 -14 -7 -25 -21 -32z" />
    <glyph glyph-name="ocircumflex" unicode="&#xf4;" horiz-adv-x="524" 
d="M261 -9c-59 0 -111 22 -154 65c-43 44 -64 96 -64 157s21 113 64 156c43 44 95 66 154 66c61 0 112 -22 155 -65s65 -96 65 -157s-22 -114 -65 -157s-94 -65 -155 -65zM324 402c-13 14 -34 21 -63 21c-27 0 -48 -7 -62 -21c-24 -26 -36 -89 -36 -189s12 -163 36 -189
c14 -14 35 -21 62 -21c29 0 50 7 63 21c25 25 37 88 37 189s-12 164 -37 189zM403 507l-6 -8l-141 85l-130 -85l-6 8c32 33 78 93 139 182h4c25 -39 71 -100 140 -182z" />
    <glyph glyph-name="otilde" unicode="&#xf5;" horiz-adv-x="524" 
d="M261 -9c-59 0 -111 22 -154 65c-43 44 -64 96 -64 157s21 113 64 156c43 44 95 66 154 66c61 0 112 -22 155 -65s65 -96 65 -157s-22 -114 -65 -157s-94 -65 -155 -65zM324 402c-13 14 -34 21 -63 21c-27 0 -48 -7 -62 -21c-24 -26 -36 -89 -36 -189s12 -163 36 -189
c14 -14 35 -21 62 -21c29 0 50 7 63 21c25 25 37 88 37 189s-12 164 -37 189zM402 651h14c0 -31 -12 -58 -36 -81c-23 -22 -51 -33 -83 -33c-60 0 -89 60 -126 60c-28 0 -49 -27 -49 -60h-15c0 64 46 114 110 114c25 0 50 -10 75 -30c26 -19 46 -29 59 -29c29 0 51 24 51 59
z" />
    <glyph glyph-name="odieresis" unicode="&#xf6;" horiz-adv-x="524" 
d="M261 -9c-59 0 -111 22 -154 65c-43 44 -64 96 -64 157s21 113 64 156c43 44 95 66 154 66c61 0 112 -22 155 -65s65 -96 65 -157s-22 -114 -65 -157s-94 -65 -155 -65zM324 402c-13 14 -34 21 -63 21c-27 0 -48 -7 -62 -21c-24 -26 -36 -89 -36 -189s12 -163 36 -189
c14 -14 35 -21 62 -21c29 0 50 7 63 21c25 25 37 88 37 189s-12 164 -37 189zM389 634c23 -21 23 -59 0 -80c-21 -21 -58 -21 -81 0s-23 59 0 80s60 21 81 0zM233 594c0 -31 -27 -56 -56 -56c-33 0 -58 24 -58 56c0 33 25 56 58 56c29 0 56 -24 56 -56z" />
    <glyph glyph-name="divide" unicode="&#xf7;" horiz-adv-x="600" 
d="M349 421c0 -27 -23 -50 -50 -50s-49 23 -49 50c0 28 21 50 49 50s50 -22 50 -50zM549 270v-54h-499v54h499zM349 64c0 -27 -23 -50 -50 -50s-49 23 -49 50c0 28 21 50 49 50s50 -22 50 -50z" />
    <glyph glyph-name="oslash" unicode="&#xf8;" horiz-adv-x="524" 
d="M104 -26l-13 7l37 56c-53 40 -85 105 -85 176c0 61 21 113 64 156c43 44 95 66 154 66c41 0 79 -11 114 -33l33 50l12 -6l-34 -51c59 -41 95 -109 95 -182c0 -61 -22 -114 -65 -157s-94 -65 -155 -65c-43 0 -84 12 -121 37zM361 213c0 55 -3 99 -10 130l-178 -265
c5 -23 14 -41 26 -54c14 -14 35 -21 62 -21c29 0 50 7 63 21c25 25 37 88 37 189zM163 213c0 -49 2 -87 6 -115l177 262c-5 17 -12 31 -22 42c-13 14 -34 21 -63 21c-27 0 -48 -7 -62 -21c-24 -26 -36 -89 -36 -189z" />
    <glyph glyph-name="ugrave" unicode="&#xf9;" horiz-adv-x="569" 
d="M552 12v-12h-179v69c-17 -52 -67 -78 -120 -78c-107 0 -171 56 -171 160v263h-66v12h180v-321c0 -69 19 -103 57 -103c63 0 97 31 120 100v312h-64v12h179v-414h64zM212 662l140 -153l-5 -5l-196 109c-14 7 -21 18 -21 32c0 21 17 40 40 40c13 0 27 -8 42 -23z" />
    <glyph glyph-name="uacute" unicode="&#xfa;" horiz-adv-x="569" 
d="M552 12v-12h-179v69c-17 -52 -67 -78 -120 -78c-107 0 -171 56 -171 160v263h-66v12h180v-321c0 -69 19 -103 57 -103c63 0 97 31 120 100v312h-64v12h179v-414h64zM216 504l-5 5l140 153c15 15 29 23 42 23c23 0 40 -19 40 -40c0 -14 -7 -25 -21 -32z" />
    <glyph glyph-name="ucircumflex" unicode="&#xfb;" horiz-adv-x="569" 
d="M552 12v-12h-179v69c-17 -52 -67 -78 -120 -78c-107 0 -171 56 -171 160v263h-66v12h180v-321c0 -69 19 -103 57 -103c63 0 97 31 120 100v312h-64v12h179v-414h64zM426 507l-6 -8l-141 85l-130 -85l-6 8c32 33 78 93 139 182h4c25 -39 71 -100 140 -182z" />
    <glyph glyph-name="udieresis" unicode="&#xfc;" horiz-adv-x="569" 
d="M552 12v-12h-179v69c-17 -52 -67 -78 -120 -78c-107 0 -171 56 -171 160v263h-66v12h180v-321c0 -69 19 -103 57 -103c63 0 97 31 120 100v312h-64v12h179v-414h64zM411 634c23 -21 23 -59 0 -80c-21 -21 -58 -21 -81 0s-23 59 0 80s60 21 81 0zM255 594
c0 -31 -27 -56 -56 -56c-33 0 -58 24 -58 56c0 33 25 56 58 56c29 0 56 -24 56 -56z" />
    <glyph glyph-name="yacute" unicode="&#xfd;" horiz-adv-x="465" 
d="M72 -317c-43 0 -76 37 -76 80c0 35 24 63 56 63c29 0 48 -19 48 -42c0 -16 -24 -40 -24 -56c0 -17 5 -25 14 -25c29 0 52 20 67 59l86 224l-207 428h-60v12h254v-12h-70l140 -288l94 246c11 28 6 42 -15 42h-43v12h153v-12h-37c-25 0 -32 -5 -47 -42l-235 -608
c-21 -54 -53 -81 -98 -81zM194 504l-5 5l140 153c15 15 29 23 42 23c23 0 40 -19 40 -40c0 -14 -7 -25 -21 -32z" />
    <glyph glyph-name="thorn" unicode="&#xfe;" horiz-adv-x="563" 
d="M90 -296v1019h-65v12h178v-344c20 24 59 44 98 44c59 0 110 -23 153 -70c43 -46 65 -97 65 -154c0 -58 -19 -109 -58 -153c-38 -44 -86 -66 -145 -66c-40 0 -86 21 -113 48v-336h65v-12h-243v12h65zM398 211c0 81 -7 137 -21 167c-13 30 -39 45 -76 45
c-40 0 -86 -23 -98 -55v-298c19 -43 69 -67 113 -67c59 0 82 57 82 208z" />
    <glyph glyph-name="ydieresis" unicode="&#xff;" horiz-adv-x="465" 
d="M72 -317c-43 0 -76 37 -76 80c0 35 24 63 56 63c29 0 48 -19 48 -42c0 -16 -24 -40 -24 -56c0 -17 5 -25 14 -25c29 0 52 20 67 59l86 224l-207 428h-60v12h254v-12h-70l140 -288l94 246c11 28 6 42 -15 42h-43v12h153v-12h-37c-25 0 -32 -5 -47 -42l-235 -608
c-21 -54 -53 -81 -98 -81zM409 634c23 -21 23 -59 0 -80c-21 -21 -58 -21 -81 0s-23 59 0 80s60 21 81 0zM253 594c0 -31 -27 -56 -56 -56c-33 0 -58 24 -58 56c0 33 25 56 58 56c29 0 56 -24 56 -56z" />
    <glyph glyph-name="Amacron" unicode="&#x100;" horiz-adv-x="604" 
d="M162 0h-182v12h57c13 0 25 13 34 39l221 629h18l243 -668h85v-12h-313v12h86l-67 208h-200l-61 -169c-13 -33 -8 -39 -3 -39h82v-12zM246 514l-98 -282h190zM455 829v-59h-307v59h307z" />
    <glyph glyph-name="amacron" unicode="&#x101;" horiz-adv-x="472" 
d="M459 38l8 -7c-9 -17 -45 -39 -81 -39c-44 0 -91 30 -98 66c-15 -44 -48 -66 -101 -66c-41 0 -76 8 -106 25c-29 17 -44 44 -44 80c0 73 48 115 145 124c37 3 49 5 72 9c24 4 32 10 32 21v79c0 75 -21 96 -62 96c-35 0 -53 -15 -53 -46c0 -12 8 -31 8 -42
c0 -23 -17 -40 -50 -40c-32 0 -49 22 -49 50c0 21 14 41 42 60c29 19 63 28 102 28c111 0 176 -60 176 -181v-206c0 -23 8 -34 23 -34c11 0 23 8 36 23zM286 115v114c-12 -7 -30 -11 -39 -14c-9 -1 -38 -4 -45 -5c-37 -8 -51 -33 -51 -121c0 -57 10 -81 54 -81
c48 0 81 47 81 107zM389 606v-59h-307v59h307z" />
    <glyph glyph-name="Abreve" unicode="&#x102;" horiz-adv-x="604" 
d="M162 0h-182v12h57c13 0 25 13 34 39l221 629h18l243 -668h85v-12h-313v12h86l-67 208h-200l-61 -169c-13 -33 -8 -39 -3 -39h82v-12zM246 514l-98 -282h190zM424 890h11c0 -64 -24 -155 -134 -155c-111 0 -133 91 -133 155h11c0 -31 15 -90 122 -90c108 0 123 59 123 90z
" />
    <glyph glyph-name="abreve" unicode="&#x103;" horiz-adv-x="472" 
d="M459 38l8 -7c-9 -17 -45 -39 -81 -39c-44 0 -91 30 -98 66c-15 -44 -48 -66 -101 -66c-41 0 -76 8 -106 25c-29 17 -44 44 -44 80c0 73 48 115 145 124c37 3 49 5 72 9c24 4 32 10 32 21v79c0 75 -21 96 -62 96c-35 0 -53 -15 -53 -46c0 -12 8 -31 8 -42
c0 -23 -17 -40 -50 -40c-32 0 -49 22 -49 50c0 21 14 41 42 60c29 19 63 28 102 28c111 0 176 -60 176 -181v-206c0 -23 8 -34 23 -34c11 0 23 8 36 23zM286 115v114c-12 -7 -30 -11 -39 -14c-9 -1 -38 -4 -45 -5c-37 -8 -51 -33 -51 -121c0 -57 10 -81 54 -81
c48 0 81 47 81 107zM358 667h11c0 -64 -24 -155 -134 -155c-111 0 -133 91 -133 155h11c0 -31 15 -90 122 -90c108 0 123 59 123 90z" />
    <glyph glyph-name="Aogonek" unicode="&#x104;" horiz-adv-x="604" 
d="M162 0h-182v12h57c13 0 25 13 34 39l221 629h18l243 -668h85v-12h-313v12h86l-67 208h-200l-61 -169c-13 -33 -8 -39 -3 -39h82v-12zM246 514l-98 -282h190zM590 -148l8 -7c-29 -36 -65 -54 -107 -54c-53 0 -87 32 -87 77c0 51 50 98 150 141l6 -4
c-56 -27 -87 -76 -87 -111c0 -47 24 -69 56 -69c25 0 45 9 61 27z" />
    <glyph glyph-name="aogonek" unicode="&#x105;" horiz-adv-x="472" 
d="M459 38l8 -7c-9 -17 -45 -39 -81 -39c-44 0 -91 30 -98 66c-15 -44 -48 -66 -101 -66c-41 0 -76 8 -106 25c-29 17 -44 44 -44 80c0 73 48 115 145 124c37 3 49 5 72 9c24 4 32 10 32 21v79c0 75 -21 96 -62 96c-35 0 -53 -15 -53 -46c0 -12 8 -31 8 -42
c0 -23 -17 -40 -50 -40c-32 0 -49 22 -49 50c0 21 14 41 42 60c29 19 63 28 102 28c111 0 176 -60 176 -181v-206c0 -23 8 -34 23 -34c11 0 23 8 36 23zM286 115v114c-12 -7 -30 -11 -39 -14c-9 -1 -38 -4 -45 -5c-37 -8 -51 -33 -51 -121c0 -57 10 -81 54 -81
c48 0 81 47 81 107zM459 -148l8 -7c-29 -36 -65 -54 -107 -54c-53 0 -87 32 -87 77c0 51 50 98 150 141l6 -4c-56 -27 -87 -76 -87 -111c0 -47 24 -69 56 -69c25 0 45 9 61 27z" />
    <glyph glyph-name="Cacute" unicode="&#x106;" horiz-adv-x="610" 
d="M559 247v-261h-10c-3 13 -17 28 -41 28c-13 0 -39 -5 -78 -15s-67 -15 -85 -15c-85 0 -156 34 -214 103c-57 69 -86 151 -86 246s28 177 84 246c57 69 127 104 212 104c15 0 39 -4 73 -13c35 -8 59 -12 72 -12c25 0 43 11 46 22h11v-227h-11c0 47 -21 95 -63 144
c-41 49 -84 74 -128 74c-41 0 -72 -11 -94 -34c-37 -40 -56 -141 -56 -304c0 -162 19 -263 56 -303c21 -23 53 -35 98 -35c54 0 101 26 142 78c41 53 62 111 62 174h10zM276 727l-5 5l140 153c15 15 29 23 42 23c23 0 40 -19 40 -40c0 -14 -7 -25 -21 -32z" />
    <glyph glyph-name="cacute" unicode="&#x107;" horiz-adv-x="466" 
d="M261 -9c-59 0 -111 22 -154 65c-43 44 -64 96 -64 157s21 113 64 156c43 44 95 66 154 66c45 0 84 -13 117 -39s50 -53 50 -81c0 -31 -16 -46 -48 -46c-28 0 -46 17 -46 38c0 17 13 32 13 55c0 20 -8 35 -23 45c-15 11 -36 16 -63 16s-47 -7 -61 -21
c-27 -27 -36 -77 -36 -189s9 -162 36 -189c14 -14 34 -21 61 -21c67 0 123 33 168 99l8 -8c-48 -69 -107 -103 -176 -103zM184 504l-5 5l140 153c15 15 29 23 42 23c23 0 40 -19 40 -40c0 -14 -7 -25 -21 -32z" />
    <glyph glyph-name="Ccircumflex" unicode="&#x108;" horiz-adv-x="610" 
d="M559 247v-261h-10c-3 13 -17 28 -41 28c-13 0 -39 -5 -78 -15s-67 -15 -85 -15c-85 0 -156 34 -214 103c-57 69 -86 151 -86 246s28 177 84 246c57 69 127 104 212 104c15 0 39 -4 73 -13c35 -8 59 -12 72 -12c25 0 43 11 46 22h11v-227h-11c0 47 -21 95 -63 144
c-41 49 -84 74 -128 74c-41 0 -72 -11 -94 -34c-37 -40 -56 -141 -56 -304c0 -162 19 -263 56 -303c21 -23 53 -35 98 -35c54 0 101 26 142 78c41 53 62 111 62 174h10zM476 730l-6 -8l-141 85l-130 -85l-6 8c32 33 78 93 139 182h4c25 -40 71 -101 140 -182z" />
    <glyph glyph-name="ccircumflex" unicode="&#x109;" horiz-adv-x="466" 
d="M261 -9c-59 0 -111 22 -154 65c-43 44 -64 96 -64 157s21 113 64 156c43 44 95 66 154 66c45 0 84 -13 117 -39s50 -53 50 -81c0 -31 -16 -46 -48 -46c-28 0 -46 17 -46 38c0 17 13 32 13 55c0 20 -8 35 -23 45c-15 11 -36 16 -63 16s-47 -7 -61 -21
c-27 -27 -36 -77 -36 -189s9 -162 36 -189c14 -14 34 -21 61 -21c67 0 123 33 168 99l8 -8c-48 -69 -107 -103 -176 -103zM404 507l-6 -8l-141 85l-130 -85l-6 8c32 33 78 93 139 182h4c25 -39 71 -100 140 -182z" />
    <glyph glyph-name="Cdotaccent" unicode="&#x10a;" horiz-adv-x="610" 
d="M559 247v-261h-10c-3 13 -17 28 -41 28c-13 0 -39 -5 -78 -15s-67 -15 -85 -15c-85 0 -156 34 -214 103c-57 69 -86 151 -86 246s28 177 84 246c57 69 127 104 212 104c15 0 39 -4 73 -13c35 -8 59 -12 72 -12c25 0 43 11 46 22h11v-227h-11c0 47 -21 95 -63 144
c-41 49 -84 74 -128 74c-41 0 -72 -11 -94 -34c-37 -40 -56 -141 -56 -304c0 -162 19 -263 56 -303c21 -23 53 -35 98 -35c54 0 101 26 142 78c41 53 62 111 62 174h10zM399 808c0 -39 -28 -69 -67 -69c-35 0 -63 30 -63 69c0 35 28 63 63 63c39 0 67 -27 67 -63z" />
    <glyph glyph-name="cdotaccent" unicode="&#x10b;" horiz-adv-x="466" 
d="M261 -9c-59 0 -111 22 -154 65c-43 44 -64 96 -64 157s21 113 64 156c43 44 95 66 154 66c45 0 84 -13 117 -39s50 -53 50 -81c0 -31 -16 -46 -48 -46c-28 0 -46 17 -46 38c0 17 13 32 13 55c0 20 -8 35 -23 45c-15 11 -36 16 -63 16s-47 -7 -61 -21
c-27 -27 -36 -77 -36 -189s9 -162 36 -189c14 -14 34 -21 61 -21c67 0 123 33 168 99l8 -8c-48 -69 -107 -103 -176 -103zM319 594c0 -31 -27 -56 -56 -56c-33 0 -58 24 -58 56c0 33 25 56 58 56c29 0 56 -24 56 -56z" />
    <glyph glyph-name="Ccaron" unicode="&#x10c;" horiz-adv-x="610" 
d="M559 247v-261h-10c-3 13 -17 28 -41 28c-13 0 -39 -5 -78 -15s-67 -15 -85 -15c-85 0 -156 34 -214 103c-57 69 -86 151 -86 246s28 177 84 246c57 69 127 104 212 104c15 0 39 -4 73 -13c35 -8 59 -12 72 -12c25 0 43 11 46 22h11v-227h-11c0 47 -21 95 -63 144
c-41 49 -84 74 -128 74c-41 0 -72 -11 -94 -34c-37 -40 -56 -141 -56 -304c0 -162 19 -263 56 -303c21 -23 53 -35 98 -35c54 0 101 26 142 78c41 53 62 111 62 174h10zM470 912l6 -8c-69 -81 -115 -142 -140 -182h-4c-61 89 -107 149 -139 182l6 8l130 -85z" />
    <glyph glyph-name="ccaron" unicode="&#x10d;" horiz-adv-x="466" 
d="M261 -9c-59 0 -111 22 -154 65c-43 44 -64 96 -64 157s21 113 64 156c43 44 95 66 154 66c45 0 84 -13 117 -39s50 -53 50 -81c0 -31 -16 -46 -48 -46c-28 0 -46 17 -46 38c0 17 13 32 13 55c0 20 -8 35 -23 45c-15 11 -36 16 -63 16s-47 -7 -61 -21
c-27 -27 -36 -77 -36 -189s9 -162 36 -189c14 -14 34 -21 61 -21c67 0 123 33 168 99l8 -8c-48 -69 -107 -103 -176 -103zM398 689l6 -8c-69 -82 -115 -143 -140 -182h-4c-61 89 -107 149 -139 182l6 8l130 -85z" />
    <glyph glyph-name="Dcaron" unicode="&#x10e;" horiz-adv-x="668" 
d="M621 333c0 -91 -29 -170 -87 -235c-57 -65 -126 -98 -207 -98h-291v12h85v643h-85v12h291c81 0 151 -33 208 -98s86 -143 86 -236zM475 333c0 157 -18 253 -54 289c-21 22 -53 33 -94 33h-73v-643h73c41 0 73 11 94 33c20 21 34 52 42 94c8 43 12 107 12 194zM469 912
l6 -8c-69 -81 -115 -142 -140 -182h-4c-61 89 -107 149 -139 182l6 8l130 -85z" />
    <glyph glyph-name="dcaron" unicode="&#x10f;" horiz-adv-x="652" 
d="M539 12v-12h-180v47c-8 -23 -52 -56 -111 -56s-108 22 -147 66c-39 45 -58 96 -58 153s22 108 65 155c44 47 96 70 155 70c39 0 71 -14 96 -41v329h-63v12h178v-723h65zM359 91v275c-11 33 -55 56 -96 56c-27 0 -47 -7 -62 -21c-25 -24 -37 -88 -37 -191
c0 -86 9 -144 27 -173c14 -22 33 -33 57 -33c76 0 111 42 111 87zM652 664c0 -32 -11 -67 -34 -106c-23 -38 -50 -63 -83 -75l-5 13c15 5 29 16 43 33s21 34 21 49c0 19 -11 37 -34 54c-13 12 -20 28 -20 47c0 32 24 59 55 59c38 0 57 -25 57 -74z" />
    <glyph glyph-name="Dcroat" unicode="&#x110;" horiz-adv-x="668" 
d="M41 327v12h80v316h-85v12h291c81 0 151 -33 208 -98s86 -143 86 -236c0 -91 -29 -170 -87 -235c-57 -65 -126 -98 -207 -98h-291v12h85v315h-80zM475 333c0 157 -18 253 -54 289c-21 22 -53 33 -94 33h-73v-316h88v-12h-88v-315h73c41 0 73 11 94 33c20 21 34 52 42 94
c8 43 12 107 12 194z" />
    <glyph glyph-name="dslash" unicode="&#x111;" horiz-adv-x="557" 
d="M164 567v12h195v144h-63v12h178v-156h65v-12h-65v-555h65v-12h-180v47c-8 -23 -52 -56 -111 -56s-108 22 -147 66c-39 45 -58 96 -58 153s22 108 65 155c44 47 96 70 155 70c39 0 71 -14 96 -41v173h-195zM359 91v275c-11 33 -55 56 -96 56c-27 0 -47 -7 -62 -21
c-25 -24 -37 -88 -37 -191c0 -86 9 -144 27 -173c14 -22 33 -33 57 -33c76 0 111 42 111 87z" />
    <glyph glyph-name="Emacron" unicode="&#x112;" horiz-adv-x="596" 
d="M572 220v-220h-537v12h86v643h-86v12h490v-201h-12c0 49 -14 93 -42 131c-27 39 -67 58 -120 58h-98v-306h22c69 0 112 59 112 128h13v-268h-13c0 69 -43 128 -112 128h-22v-325h101c69 0 120 21 155 62c35 42 52 91 52 146h11zM451 829v-59h-307v59h307z" />
    <glyph glyph-name="emacron" unicode="&#x113;" horiz-adv-x="496" 
d="M266 -9c-60 0 -112 22 -157 65c-44 44 -66 96 -66 157s22 113 66 156c45 44 97 66 157 66c41 0 76 -12 107 -36c63 -47 87 -109 87 -160v-3h-296v-23c2 -163 19 -204 102 -210c72 0 136 38 175 91l8 -8c-39 -57 -110 -95 -183 -95zM164 248h191c-1 78 -12 129 -34 154
c-11 14 -30 21 -55 21c-28 0 -49 -7 -63 -21c-25 -25 -38 -77 -39 -154zM421 606v-59h-307v59h307z" />
    <glyph glyph-name="Ebreve" unicode="&#x114;" horiz-adv-x="596" 
d="M572 220v-220h-537v12h86v643h-86v12h490v-201h-12c0 49 -14 93 -42 131c-27 39 -67 58 -120 58h-98v-306h22c69 0 112 59 112 128h13v-268h-13c0 69 -43 128 -112 128h-22v-325h101c69 0 120 21 155 62c35 42 52 91 52 146h11zM420 890h11c0 -64 -24 -155 -134 -155
c-111 0 -133 91 -133 155h11c0 -31 15 -90 122 -90c108 0 123 59 123 90z" />
    <glyph glyph-name="ebreve" unicode="&#x115;" horiz-adv-x="496" 
d="M266 -9c-60 0 -112 22 -157 65c-44 44 -66 96 -66 157s22 113 66 156c45 44 97 66 157 66c41 0 76 -12 107 -36c63 -47 87 -109 87 -160v-3h-296v-23c2 -163 19 -204 102 -210c72 0 136 38 175 91l8 -8c-39 -57 -110 -95 -183 -95zM164 248h191c-1 78 -12 129 -34 154
c-11 14 -30 21 -55 21c-28 0 -49 -7 -63 -21c-25 -25 -38 -77 -39 -154zM390 667h11c0 -64 -24 -155 -134 -155c-111 0 -133 91 -133 155h11c0 -31 15 -90 122 -90c108 0 123 59 123 90z" />
    <glyph glyph-name="Edotaccent" unicode="&#x116;" horiz-adv-x="596" 
d="M572 220v-220h-537v12h86v643h-86v12h490v-201h-12c0 49 -14 93 -42 131c-27 39 -67 58 -120 58h-98v-306h22c69 0 112 59 112 128h13v-268h-13c0 69 -43 128 -112 128h-22v-325h101c69 0 120 21 155 62c35 42 52 91 52 146h11zM362 808c0 -39 -28 -69 -67 -69
c-35 0 -63 30 -63 69c0 35 28 63 63 63c39 0 67 -27 67 -63z" />
    <glyph glyph-name="edotaccent" unicode="&#x117;" horiz-adv-x="496" 
d="M266 -9c-60 0 -112 22 -157 65c-44 44 -66 96 -66 157s22 113 66 156c45 44 97 66 157 66c41 0 76 -12 107 -36c63 -47 87 -109 87 -160v-3h-296v-23c2 -163 19 -204 102 -210c72 0 136 38 175 91l8 -8c-39 -57 -110 -95 -183 -95zM164 248h191c-1 78 -12 129 -34 154
c-11 14 -30 21 -55 21c-28 0 -49 -7 -63 -21c-25 -25 -38 -77 -39 -154zM324 594c0 -31 -27 -56 -56 -56c-33 0 -58 24 -58 56c0 33 25 56 58 56c29 0 56 -24 56 -56z" />
    <glyph glyph-name="Eogonek" unicode="&#x118;" horiz-adv-x="596" 
d="M572 220v-220h-537v12h86v643h-86v12h490v-201h-12c0 49 -14 93 -42 131c-27 39 -67 58 -120 58h-98v-306h22c69 0 112 59 112 128h13v-268h-13c0 69 -43 128 -112 128h-22v-325h101c69 0 120 21 155 62c35 42 52 91 52 146h11zM564 -148l8 -7c-29 -36 -65 -54 -107 -54
c-53 0 -87 32 -87 77c0 51 50 98 150 141l6 -4c-56 -27 -87 -76 -87 -111c0 -47 24 -69 56 -69c25 0 45 9 61 27z" />
    <glyph glyph-name="eogonek" unicode="&#x119;" horiz-adv-x="496" 
d="M266 -9c-60 0 -112 22 -157 65c-44 44 -66 96 -66 157s22 113 66 156c45 44 97 66 157 66c41 0 76 -12 107 -36c63 -47 87 -109 87 -160v-3h-296v-23c2 -163 19 -204 102 -210c72 0 136 38 175 91l8 -8c-39 -57 -110 -95 -183 -95zM164 248h191c-1 78 -12 129 -34 154
c-11 14 -30 21 -55 21c-28 0 -49 -7 -63 -21c-25 -25 -38 -77 -39 -154zM372 -148l8 -7c-29 -36 -65 -54 -107 -54c-53 0 -87 32 -87 77c0 51 50 98 150 141l6 -4c-56 -27 -87 -76 -87 -111c0 -47 24 -69 56 -69c25 0 45 9 61 27z" />
    <glyph glyph-name="Ecaron" unicode="&#x11a;" horiz-adv-x="596" 
d="M572 220v-220h-537v12h86v643h-86v12h490v-201h-12c0 49 -14 93 -42 131c-27 39 -67 58 -120 58h-98v-306h22c69 0 112 59 112 128h13v-268h-13c0 69 -43 128 -112 128h-22v-325h101c69 0 120 21 155 62c35 42 52 91 52 146h11zM433 912l6 -8
c-69 -81 -115 -142 -140 -182h-4c-61 89 -107 149 -139 182l6 8l130 -85z" />
    <glyph glyph-name="ecaron" unicode="&#x11b;" horiz-adv-x="496" 
d="M266 -9c-60 0 -112 22 -157 65c-44 44 -66 96 -66 157s22 113 66 156c45 44 97 66 157 66c41 0 76 -12 107 -36c63 -47 87 -109 87 -160v-3h-296v-23c2 -163 19 -204 102 -210c72 0 136 38 175 91l8 -8c-39 -57 -110 -95 -183 -95zM164 248h191c-1 78 -12 129 -34 154
c-11 14 -30 21 -55 21c-28 0 -49 -7 -63 -21c-25 -25 -38 -77 -39 -154zM403 689l6 -8c-69 -82 -115 -143 -140 -182h-4c-61 89 -107 149 -139 182l6 8l130 -85z" />
    <glyph glyph-name="Gcircumflex" unicode="&#x11c;" horiz-adv-x="628" 
d="M655 271v-12h-86v-263h-9c0 24 -12 36 -37 36c-9 0 -33 -8 -74 -24s-81 -24 -120 -24c-85 0 -154 34 -206 103s-78 151 -78 246s28 177 84 246c57 69 127 104 212 104c17 0 40 -4 68 -13c29 -8 46 -12 52 -12c25 0 44 11 45 22h12v-225h-12c0 50 -17 98 -50 145
s-71 71 -115 71c-41 0 -72 -11 -94 -34c-37 -39 -55 -141 -55 -304c0 -94 3 -163 8 -207c5 -43 17 -75 35 -96c21 -23 52 -35 94 -35c79 0 107 27 107 82v182h-85v12h304zM475 730l-6 -8l-141 85l-130 -85l-6 8c32 33 78 93 139 182h4c25 -40 71 -101 140 -182z" />
    <glyph glyph-name="gcircumflex" unicode="&#x11d;" horiz-adv-x="505" 
d="M257 -309c-70 0 -127 12 -172 37c-44 25 -66 56 -66 94c0 27 12 52 35 75s51 39 82 47c-57 11 -104 57 -104 108c0 55 30 85 87 120c-28 33 -42 67 -42 102c0 45 17 83 50 114c34 31 75 47 123 47c56 0 101 -20 134 -60c21 40 51 60 88 60c35 0 52 -24 52 -52
c0 -27 -15 -43 -32 -43c-21 0 -33 11 -33 24c0 9 8 18 8 25c0 9 -12 21 -23 21c-23 0 -41 -14 -54 -41c21 -25 32 -57 32 -95c0 -44 -17 -82 -50 -113s-74 -47 -122 -47c-51 0 -100 26 -127 51c-22 -17 -33 -39 -33 -66c0 -48 23 -56 90 -56h133c123 0 197 -60 197 -169
c0 -39 -14 -72 -41 -101c-55 -59 -133 -82 -212 -82zM257 -297c105 0 184 44 184 128c0 61 -45 110 -133 110h-137c-11 0 -18 0 -21 1c-43 -25 -57 -50 -57 -109c0 -101 49 -130 164 -130zM294 141c17 18 26 63 26 134c0 73 -9 118 -26 135c-9 9 -23 13 -44 13
c-20 0 -34 -4 -43 -13c-19 -19 -28 -64 -28 -135s9 -115 28 -134c9 -10 24 -15 43 -15s34 5 44 15zM394 507l-6 -8l-141 85l-130 -85l-6 8c32 33 78 93 139 182h4c25 -39 71 -100 140 -182z" />
    <glyph glyph-name="Gbreve" unicode="&#x11e;" horiz-adv-x="628" 
d="M655 271v-12h-86v-263h-9c0 24 -12 36 -37 36c-9 0 -33 -8 -74 -24s-81 -24 -120 -24c-85 0 -154 34 -206 103s-78 151 -78 246s28 177 84 246c57 69 127 104 212 104c17 0 40 -4 68 -13c29 -8 46 -12 52 -12c25 0 44 11 45 22h12v-225h-12c0 50 -17 98 -50 145
s-71 71 -115 71c-41 0 -72 -11 -94 -34c-37 -39 -55 -141 -55 -304c0 -94 3 -163 8 -207c5 -43 17 -75 35 -96c21 -23 52 -35 94 -35c79 0 107 27 107 82v182h-85v12h304zM456 890h11c0 -64 -24 -155 -134 -155c-111 0 -133 91 -133 155h11c0 -31 15 -90 122 -90
c108 0 123 59 123 90z" />
    <glyph glyph-name="gbreve" unicode="&#x11f;" horiz-adv-x="505" 
d="M257 -309c-70 0 -127 12 -172 37c-44 25 -66 56 -66 94c0 27 12 52 35 75s51 39 82 47c-57 11 -104 57 -104 108c0 55 30 85 87 120c-28 33 -42 67 -42 102c0 45 17 83 50 114c34 31 75 47 123 47c56 0 101 -20 134 -60c21 40 51 60 88 60c35 0 52 -24 52 -52
c0 -27 -15 -43 -32 -43c-21 0 -33 11 -33 24c0 9 8 18 8 25c0 9 -12 21 -23 21c-23 0 -41 -14 -54 -41c21 -25 32 -57 32 -95c0 -44 -17 -82 -50 -113s-74 -47 -122 -47c-51 0 -100 26 -127 51c-22 -17 -33 -39 -33 -66c0 -48 23 -56 90 -56h133c123 0 197 -60 197 -169
c0 -39 -14 -72 -41 -101c-55 -59 -133 -82 -212 -82zM257 -297c105 0 184 44 184 128c0 61 -45 110 -133 110h-137c-11 0 -18 0 -21 1c-43 -25 -57 -50 -57 -109c0 -101 49 -130 164 -130zM294 141c17 18 26 63 26 134c0 73 -9 118 -26 135c-9 9 -23 13 -44 13
c-20 0 -34 -4 -43 -13c-19 -19 -28 -64 -28 -135s9 -115 28 -134c9 -10 24 -15 43 -15s34 5 44 15zM375 667h11c0 -64 -24 -155 -134 -155c-111 0 -133 91 -133 155h11c0 -31 15 -90 122 -90c108 0 123 59 123 90z" />
    <glyph glyph-name="Gdotaccent" unicode="&#x120;" horiz-adv-x="628" 
d="M655 271v-12h-86v-263h-9c0 24 -12 36 -37 36c-9 0 -33 -8 -74 -24s-81 -24 -120 -24c-85 0 -154 34 -206 103s-78 151 -78 246s28 177 84 246c57 69 127 104 212 104c17 0 40 -4 68 -13c29 -8 46 -12 52 -12c25 0 44 11 45 22h12v-225h-12c0 50 -17 98 -50 145
s-71 71 -115 71c-41 0 -72 -11 -94 -34c-37 -39 -55 -141 -55 -304c0 -94 3 -163 8 -207c5 -43 17 -75 35 -96c21 -23 52 -35 94 -35c79 0 107 27 107 82v182h-85v12h304zM398 808c0 -39 -28 -69 -67 -69c-35 0 -63 30 -63 69c0 35 28 63 63 63c39 0 67 -27 67 -63z" />
    <glyph glyph-name="gdotaccent" unicode="&#x121;" horiz-adv-x="505" 
d="M257 -309c-70 0 -127 12 -172 37c-44 25 -66 56 -66 94c0 27 12 52 35 75s51 39 82 47c-57 11 -104 57 -104 108c0 55 30 85 87 120c-28 33 -42 67 -42 102c0 45 17 83 50 114c34 31 75 47 123 47c56 0 101 -20 134 -60c21 40 51 60 88 60c35 0 52 -24 52 -52
c0 -27 -15 -43 -32 -43c-21 0 -33 11 -33 24c0 9 8 18 8 25c0 9 -12 21 -23 21c-23 0 -41 -14 -54 -41c21 -25 32 -57 32 -95c0 -44 -17 -82 -50 -113s-74 -47 -122 -47c-51 0 -100 26 -127 51c-22 -17 -33 -39 -33 -66c0 -48 23 -56 90 -56h133c123 0 197 -60 197 -169
c0 -39 -14 -72 -41 -101c-55 -59 -133 -82 -212 -82zM257 -297c105 0 184 44 184 128c0 61 -45 110 -133 110h-137c-11 0 -18 0 -21 1c-43 -25 -57 -50 -57 -109c0 -101 49 -130 164 -130zM294 141c17 18 26 63 26 134c0 73 -9 118 -26 135c-9 9 -23 13 -44 13
c-20 0 -34 -4 -43 -13c-19 -19 -28 -64 -28 -135s9 -115 28 -134c9 -10 24 -15 43 -15s34 5 44 15zM309 594c0 -31 -27 -56 -56 -56c-33 0 -58 24 -58 56c0 33 25 56 58 56c29 0 56 -24 56 -56z" />
    <glyph glyph-name="Gcommaaccent" unicode="&#x122;" horiz-adv-x="628" 
d="M655 271v-12h-86v-263h-9c0 24 -12 36 -37 36c-9 0 -33 -8 -74 -24s-81 -24 -120 -24c-85 0 -154 34 -206 103s-78 151 -78 246s28 177 84 246c57 69 127 104 212 104c17 0 40 -4 68 -13c29 -8 46 -12 52 -12c25 0 44 11 45 22h12v-225h-12c0 50 -17 98 -50 145
s-71 71 -115 71c-41 0 -72 -11 -94 -34c-37 -39 -55 -141 -55 -304c0 -94 3 -163 8 -207c5 -43 17 -75 35 -96c21 -23 52 -35 94 -35c79 0 107 27 107 82v182h-85v12h304zM375 -123c0 -32 -11 -67 -34 -105c-23 -39 -50 -64 -83 -76l-5 13c15 5 29 16 43 33s21 34 21 49
c0 19 -11 37 -34 54c-13 12 -20 28 -20 47c0 32 24 59 55 59c38 0 57 -25 57 -74z" />
    <glyph glyph-name="gcommaaccent" unicode="&#x123;" horiz-adv-x="505" 
d="M257 -309c-70 0 -127 12 -172 37c-44 25 -66 56 -66 94c0 27 12 52 35 75s51 39 82 47c-57 11 -104 57 -104 108c0 55 30 85 87 120c-28 33 -42 67 -42 102c0 45 17 83 50 114c34 31 75 47 123 47c56 0 101 -20 134 -60c21 40 51 60 88 60c35 0 52 -24 52 -52
c0 -27 -15 -43 -32 -43c-21 0 -33 11 -33 24c0 9 8 18 8 25c0 9 -12 21 -23 21c-23 0 -41 -14 -54 -41c21 -25 32 -57 32 -95c0 -44 -17 -82 -50 -113s-74 -47 -122 -47c-51 0 -100 26 -127 51c-22 -17 -33 -39 -33 -66c0 -48 23 -56 90 -56h133c123 0 197 -60 197 -169
c0 -39 -14 -72 -41 -101c-55 -59 -133 -82 -212 -82zM257 -297c105 0 184 44 184 128c0 61 -45 110 -133 110h-137c-11 0 -18 0 -21 1c-43 -25 -57 -50 -57 -109c0 -101 49 -130 164 -130zM294 141c17 18 26 63 26 134c0 73 -9 118 -26 135c-9 9 -23 13 -44 13
c-20 0 -34 -4 -43 -13c-19 -19 -28 -64 -28 -135s9 -115 28 -134c9 -10 24 -15 43 -15s34 5 44 15zM196 586c0 32 11 67 34 105c23 39 50 64 83 76l5 -13c-15 -5 -29 -16 -43 -33s-21 -34 -21 -49c0 -19 11 -37 34 -54c13 -12 20 -28 20 -47c0 -32 -24 -59 -55 -59
c-38 0 -57 25 -57 74z" />
    <glyph glyph-name="Hcircumflex" unicode="&#x124;" horiz-adv-x="710" 
d="M674 12v-12h-295v12h76v330h-201v-330h77v-12h-295v12h85v643h-85v12h295v-12h-77v-301h201v301h-76v12h295v-12h-85v-643h85zM496 730l-6 -8l-141 85l-130 -85l-6 8c32 33 78 93 139 182h4c25 -40 71 -101 140 -182z" />
    <glyph glyph-name="hcircumflex" unicode="&#x125;" horiz-adv-x="573" 
d="M559 12v-12h-241v12h62v308c0 68 -19 102 -58 102c-60 0 -94 -30 -117 -99v-311h63v-12h-243v12h65v711h-65v12h180v-378c17 52 65 78 117 78c108 0 173 -62 173 -167v-256h64zM286 771l-6 -8l-141 85l-130 -85l-6 8c32 33 78 93 139 182h4c25 -39 71 -100 140 -182z" />
    <glyph glyph-name="Hbar" unicode="&#x126;" horiz-adv-x="710" 
d="M29 495v12h92v148h-85v12h295v-12h-77v-148h201v148h-76v12h295v-12h-85v-148h89v-12h-89v-483h85v-12h-295v12h76v330h-201v-330h77v-12h-295v12h85v483h-92zM254 495v-141h201v141h-201z" />
    <glyph glyph-name="hbar" unicode="&#x127;" horiz-adv-x="573" 
d="M559 12v-12h-241v12h62v309c0 68 -19 102 -58 102c-60 0 -94 -30 -117 -99v-312h63v-12h-243v12h65v555h-65v12h65v144h-65v12h180v-156h195v-12h-195v-210c17 52 65 78 117 78c108 0 173 -62 173 -167v-256h64z" />
    <glyph glyph-name="Itilde" unicode="&#x128;" horiz-adv-x="375" 
d="M328 874h14c0 -31 -12 -58 -36 -81c-23 -22 -51 -33 -83 -33c-60 0 -89 60 -126 60c-28 0 -49 -27 -49 -60h-15c0 64 46 114 110 114c25 0 50 -10 75 -30c26 -19 46 -29 59 -29c29 0 51 24 51 59zM341 12v-12h-305v12h85v643h-85v12h305v-12h-87v-643h87z" />
    <glyph glyph-name="itilde" unicode="&#x129;" horiz-adv-x="307" 
d="M294 651h14c0 -31 -12 -58 -36 -81c-23 -22 -51 -33 -83 -33c-60 0 -89 60 -126 60c-28 0 -49 -27 -49 -60h-15c0 64 46 114 110 114c25 0 50 -10 75 -30c26 -19 46 -29 59 -29c29 0 51 24 51 59zM281 12v-12h-245v12h66v402h-66v12h180v-414h65z" />
    <glyph glyph-name="Imacron" unicode="&#x12a;" horiz-adv-x="375" 
d="M341 12v-12h-305v12h85v643h-85v12h305v-12h-87v-643h87zM341 829v-59h-307v59h307z" />
    <glyph glyph-name="imacron" unicode="&#x12b;" horiz-adv-x="307" 
d="M281 12v-12h-245v12h66v402h-66v12h180v-414h65zM307 606v-59h-307v59h307z" />
    <glyph glyph-name="Ibreve" unicode="&#x12c;" horiz-adv-x="375" 
d="M310 890h11c0 -64 -24 -155 -134 -155c-111 0 -133 91 -133 155h11c0 -31 15 -90 122 -90c108 0 123 59 123 90zM341 12v-12h-305v12h85v643h-85v12h305v-12h-87v-643h87z" />
    <glyph glyph-name="ibreve" unicode="&#x12d;" horiz-adv-x="307" 
d="M276 667h11c0 -64 -24 -155 -134 -155c-111 0 -133 91 -133 155h11c0 -31 15 -90 122 -90c108 0 123 59 123 90zM281 12v-12h-245v12h66v402h-66v12h180v-414h65z" />
    <glyph glyph-name="Iogonek" unicode="&#x12e;" horiz-adv-x="375" 
d="M341 12v-12h-305v12h85v643h-85v12h305v-12h-87v-643h87zM333 -148l8 -7c-29 -36 -65 -54 -107 -54c-53 0 -87 32 -87 77c0 51 50 98 150 141l6 -4c-56 -27 -87 -76 -87 -111c0 -47 24 -69 56 -69c25 0 45 9 61 27z" />
    <glyph glyph-name="iogonek" unicode="&#x12f;" horiz-adv-x="307" 
d="M281 12v-12h-245v12h66v402h-66v12h180v-414h65zM223 598c0 -39 -28 -69 -67 -69c-35 0 -63 30 -63 69c0 35 28 63 63 63c39 0 67 -27 67 -63zM242 -148l8 -7c-29 -36 -65 -54 -107 -54c-53 0 -87 32 -87 77c0 51 50 98 150 141l6 -4c-56 -27 -87 -76 -87 -111
c0 -47 24 -69 56 -69c25 0 45 9 61 27z" />
    <glyph glyph-name="Idot" unicode="&#x130;" horiz-adv-x="375" 
d="M341 12v-12h-305v12h85v643h-85v12h305v-12h-87v-643h87zM252 808c0 -39 -28 -69 -67 -69c-35 0 -63 30 -63 69c0 35 28 63 63 63c39 0 67 -27 67 -63z" />
    <glyph glyph-name="dotlessi" unicode="&#x131;" horiz-adv-x="307" 
d="M281 12v-12h-245v12h66v402h-66v12h180v-414h65z" />
    <glyph glyph-name="Jcircumflex" unicode="&#x134;" horiz-adv-x="476" 
d="M463 667v-12h-87v-498c0 -108 -76 -173 -189 -173c-42 0 -79 13 -112 40s-49 58 -49 93c0 48 36 83 71 83c37 0 69 -34 69 -71c0 -20 -7 -37 -22 -50s-22 -24 -22 -33c0 -29 32 -51 65 -51c45 0 57 21 57 77v583h-85v12h304zM449 730l-6 -8l-141 85l-130 -85l-6 8
c32 33 78 93 139 182h4c25 -40 71 -101 140 -182z" />
    <glyph glyph-name="jcircumflex" unicode="&#x135;" horiz-adv-x="294" 
d="M216 426v-450c0 -207 -73 -292 -188 -292c-25 0 -47 8 -67 25s-30 37 -30 60c0 28 24 54 53 54c33 0 52 -17 52 -41c0 -16 -16 -32 -16 -53c0 -24 6 -31 29 -31c35 0 53 39 53 118v598h-65v12h179zM289 507l-6 -8l-141 85l-130 -85l-6 8c32 33 78 93 139 182h4
c25 -39 71 -100 140 -182z" />
    <glyph glyph-name="Kcommaaccent" unicode="&#x136;" horiz-adv-x="635" 
d="M341 0h-305v12h85v643h-85v12h305v-12h-86v-319l232 280c21 26 26 39 14 39h-65v12h178v-12h-55c-16 0 -26 -2 -57 -39l-160 -194l280 -410h93v-12h-340v12h92l-212 318v-318h86v-12zM398 -123c0 -32 -11 -67 -34 -105c-23 -39 -50 -64 -83 -76l-5 13c15 5 29 16 43 33
s21 34 21 49c0 19 -11 37 -34 54c-13 12 -20 28 -20 47c0 32 24 59 55 59c38 0 57 -25 57 -74z" />
    <glyph glyph-name="kcommaaccent" unicode="&#x137;" horiz-adv-x="543" 
d="M270 0h-244v12h66v711h-66v12h180v-500l152 137c23 26 27 40 13 42h-38v12h159v-12h-42c-23 0 -49 -14 -78 -41l-89 -81l220 -280h67v-12h-253v12h60l-171 217v-217h64v-12zM332 -123c0 -32 -11 -67 -34 -105c-23 -39 -50 -64 -83 -76l-5 13c15 5 29 16 43 33
s21 34 21 49c0 19 -11 37 -34 54c-13 12 -20 28 -20 47c0 32 24 59 55 59c38 0 57 -25 57 -74z" />
    <glyph glyph-name="kgreenlandic" unicode="&#x138;" horiz-adv-x="543" 
d="M382 373l-99 -96l220 -265h67v-12h-253v12h60l-171 202v-202h64v-12h-244v12h66v402h-66v12h180v-206l160 152c23 26 27 40 13 42h-46v12h169v-12h-42c-23 0 -49 -14 -78 -41z" />
    <glyph glyph-name="Lacute" unicode="&#x139;" horiz-adv-x="567" 
d="M545 228v-228h-509v12h85v643h-85v12h305v-12h-86v-643h72c63 0 113 22 150 67s56 95 56 149h12zM185 727l-5 5l140 153c15 15 29 23 42 23c23 0 40 -19 40 -40c0 -14 -7 -25 -21 -32z" />
    <glyph glyph-name="lacute" unicode="&#x13a;" horiz-adv-x="286" 
d="M268 12v-12h-243v12h65v711h-65v12h180v-723h63zM63 764l-5 5l140 153c15 15 29 23 42 23c23 0 40 -19 40 -40c0 -14 -7 -25 -21 -32z" />
    <glyph glyph-name="Lcommaaccent" unicode="&#x13b;" horiz-adv-x="567" 
d="M545 228v-228h-509v12h85v643h-85v12h305v-12h-86v-643h72c63 0 113 22 150 67s56 95 56 149h12zM344 -123c0 -32 -11 -67 -34 -105c-23 -39 -50 -64 -83 -76l-5 13c15 5 29 16 43 33s21 34 21 49c0 19 -11 37 -34 54c-13 12 -20 28 -20 47c0 32 24 59 55 59
c38 0 57 -25 57 -74z" />
    <glyph glyph-name="lcommaaccent" unicode="&#x13c;" horiz-adv-x="286" 
d="M268 12v-12h-243v12h65v711h-65v12h180v-723h63zM204 -123c0 -32 -11 -67 -34 -105c-23 -39 -50 -64 -83 -76l-5 13c15 5 29 16 43 33s21 34 21 49c0 19 -11 37 -34 54c-13 12 -20 28 -20 47c0 32 24 59 55 59c38 0 57 -25 57 -74z" />
    <glyph glyph-name="Lcaron" unicode="&#x13d;" horiz-adv-x="567" 
d="M545 228v-228h-509v12h85v643h-85v12h305v-12h-86v-643h72c63 0 113 22 150 67s56 95 56 149h12zM494 664c0 -32 -11 -67 -34 -106c-23 -38 -50 -63 -83 -75l-5 13c15 5 29 16 43 33s21 34 21 49c0 19 -11 37 -34 54c-13 12 -20 28 -20 47c0 32 24 59 55 59
c38 0 57 -25 57 -74z" />
    <glyph glyph-name="lcaron" unicode="&#x13e;" horiz-adv-x="392" 
d="M268 12v-12h-243v12h65v711h-65v12h180v-723h63zM392 664c0 -32 -11 -67 -34 -106c-23 -38 -50 -63 -83 -75l-5 13c15 5 29 16 43 33s21 34 21 49c0 19 -11 37 -34 54c-13 12 -20 28 -20 47c0 32 24 59 55 59c38 0 57 -25 57 -74z" />
    <glyph glyph-name="Ldot" unicode="&#x13f;" horiz-adv-x="567" 
d="M545 228v-228h-509v12h85v643h-85v12h305v-12h-86v-643h72c63 0 113 22 150 67s56 95 56 149h12zM510 359c0 -39 -28 -69 -67 -69c-35 0 -63 30 -63 69c0 35 28 63 63 63c39 0 67 -27 67 -63z" />
    <glyph glyph-name="ldot" unicode="&#x140;" horiz-adv-x="389" 
d="M268 12v-12h-243v12h65v711h-65v12h180v-723h63zM392 375c0 -31 -27 -56 -56 -56c-33 0 -58 24 -58 56c0 33 25 56 58 56c29 0 56 -24 56 -56z" />
    <glyph glyph-name="Lslash" unicode="&#x141;" horiz-adv-x="567" 
d="M35 228l-6 9l92 53v365h-85v12h305v-12h-86v-288l144 84l6 -10l-150 -87v-342h72c63 0 113 22 150 67s56 95 56 149h12v-228h-509v12h85v265z" />
    <glyph glyph-name="lslash" unicode="&#x142;" horiz-adv-x="286" 
d="M27 195l-9 11l72 72v445h-65v12h180v-342l69 69l8 -11l-77 -78v-361h63v-12h-243v12h65v246z" />
    <glyph glyph-name="Nacute" unicode="&#x143;" horiz-adv-x="662" 
d="M566 -12h-20l-417 656v-603c0 -19 11 -29 34 -29h52v-12h-183v12h52c22 0 33 10 33 29v614h-86v12h238l285 -455v415c0 19 -11 28 -33 28h-52v12h183v-12h-51c-23 0 -35 -9 -35 -28v-639zM282 727l-5 5l140 153c15 15 29 23 42 23c23 0 40 -19 40 -40
c0 -14 -7 -25 -21 -32z" />
    <glyph glyph-name="nacute" unicode="&#x144;" horiz-adv-x="579" 
d="M275 0h-244v12h65v402h-65v12h179v-69c17 52 67 78 119 78c108 0 173 -62 173 -167v-256h64v-12h-242v12h63v309c0 68 -19 102 -58 102c-61 0 -96 -30 -119 -99v-312h65v-12zM221 504l-5 5l140 153c15 15 29 23 42 23c23 0 40 -19 40 -40c0 -14 -7 -25 -21 -32z" />
    <glyph glyph-name="Ncommaaccent" unicode="&#x145;" horiz-adv-x="662" 
d="M566 -12h-20l-417 656v-603c0 -19 11 -29 34 -29h52v-12h-183v12h52c22 0 33 10 33 29v614h-86v12h238l285 -455v415c0 19 -11 28 -33 28h-52v12h183v-12h-51c-23 0 -35 -9 -35 -28v-639zM392 -123c0 -32 -11 -67 -34 -105c-23 -39 -50 -64 -83 -76l-5 13
c15 5 29 16 43 33s21 34 21 49c0 19 -11 37 -34 54c-13 12 -20 28 -20 47c0 32 24 59 55 59c38 0 57 -25 57 -74z" />
    <glyph glyph-name="ncommaaccent" unicode="&#x146;" horiz-adv-x="579" 
d="M275 0h-244v12h65v402h-65v12h179v-69c17 52 67 78 119 78c108 0 173 -62 173 -167v-256h64v-12h-242v12h63v309c0 68 -19 102 -58 102c-61 0 -96 -30 -119 -99v-312h65v-12zM350 -123c0 -32 -11 -67 -34 -105c-23 -39 -50 -64 -83 -76l-5 13c15 5 29 16 43 33
s21 34 21 49c0 19 -11 37 -34 54c-13 12 -20 28 -20 47c0 32 24 59 55 59c38 0 57 -25 57 -74z" />
    <glyph glyph-name="Ncaron" unicode="&#x147;" horiz-adv-x="662" 
d="M566 -12h-20l-417 656v-603c0 -19 11 -29 34 -29h52v-12h-183v12h52c22 0 33 10 33 29v614h-86v12h238l285 -455v415c0 19 -11 28 -33 28h-52v12h183v-12h-51c-23 0 -35 -9 -35 -28v-639zM466 912l6 -8c-69 -81 -115 -142 -140 -182h-4c-61 89 -107 149 -139 182l6 8
l130 -85z" />
    <glyph glyph-name="ncaron" unicode="&#x148;" horiz-adv-x="579" 
d="M275 0h-244v12h65v402h-65v12h179v-69c17 52 67 78 119 78c108 0 173 -62 173 -167v-256h64v-12h-242v12h63v309c0 68 -19 102 -58 102c-61 0 -96 -30 -119 -99v-312h65v-12zM425 689l6 -8c-69 -82 -115 -143 -140 -182h-4c-61 89 -107 149 -139 182l6 8l130 -85z" />
    <glyph glyph-name="napostrophe" unicode="&#x149;" horiz-adv-x="640" 
d="M336 0h-244v12h65v402h-65v12h179v-69c17 52 67 78 119 78c108 0 173 -62 173 -167v-256h64v-12h-242v12h63v309c0 68 -19 102 -58 102c-61 0 -96 -30 -119 -99v-312h65v-12zM123 599c0 -32 -11 -67 -34 -106c-23 -38 -50 -63 -83 -75l-5 13c15 5 29 16 43 33
s21 34 21 49c0 19 -11 37 -34 54c-13 12 -20 28 -20 47c0 32 24 59 55 59c38 0 57 -25 57 -74z" />
    <glyph glyph-name="Omacron" unicode="&#x14c;" horiz-adv-x="683" 
d="M45 333c0 95 28 177 84 246c57 69 127 104 212 104c81 0 151 -34 209 -103c58 -68 87 -150 87 -247s-29 -179 -87 -247s-128 -102 -209 -102s-151 34 -209 102s-87 150 -87 247zM490 333c0 163 -18 265 -55 304c-22 23 -53 34 -94 34s-72 -11 -93 -34
c-37 -39 -56 -141 -56 -304c0 -90 4 -157 12 -202c9 -45 23 -78 44 -101s52 -35 93 -35c42 0 73 12 94 35c21 22 35 55 43 100s12 112 12 203zM495 829v-59h-307v59h307z" />
    <glyph glyph-name="omacron" unicode="&#x14d;" horiz-adv-x="524" 
d="M261 -9c-59 0 -111 22 -154 65c-43 44 -64 96 -64 157s21 113 64 156c43 44 95 66 154 66c61 0 112 -22 155 -65s65 -96 65 -157s-22 -114 -65 -157s-94 -65 -155 -65zM324 402c-13 14 -34 21 -63 21c-27 0 -48 -7 -62 -21c-24 -26 -36 -89 -36 -189s12 -163 36 -189
c14 -14 35 -21 62 -21c29 0 50 7 63 21c25 25 37 88 37 189s-12 164 -37 189zM415 606v-59h-307v59h307z" />
    <glyph glyph-name="Obreve" unicode="&#x14e;" horiz-adv-x="683" 
d="M45 333c0 95 28 177 84 246c57 69 127 104 212 104c81 0 151 -34 209 -103c58 -68 87 -150 87 -247s-29 -179 -87 -247s-128 -102 -209 -102s-151 34 -209 102s-87 150 -87 247zM490 333c0 163 -18 265 -55 304c-22 23 -53 34 -94 34s-72 -11 -93 -34
c-37 -39 -56 -141 -56 -304c0 -90 4 -157 12 -202c9 -45 23 -78 44 -101s52 -35 93 -35c42 0 73 12 94 35c21 22 35 55 43 100s12 112 12 203zM464 890h11c0 -64 -24 -155 -134 -155c-111 0 -133 91 -133 155h11c0 -31 15 -90 122 -90c108 0 123 59 123 90z" />
    <glyph glyph-name="obreve" unicode="&#x14f;" horiz-adv-x="524" 
d="M261 -9c-59 0 -111 22 -154 65c-43 44 -64 96 -64 157s21 113 64 156c43 44 95 66 154 66c61 0 112 -22 155 -65s65 -96 65 -157s-22 -114 -65 -157s-94 -65 -155 -65zM324 402c-13 14 -34 21 -63 21c-27 0 -48 -7 -62 -21c-24 -26 -36 -89 -36 -189s12 -163 36 -189
c14 -14 35 -21 62 -21c29 0 50 7 63 21c25 25 37 88 37 189s-12 164 -37 189zM384 667h11c0 -64 -24 -155 -134 -155c-111 0 -133 91 -133 155h11c0 -31 15 -90 122 -90c108 0 123 59 123 90z" />
    <glyph glyph-name="Ohungarumlaut" unicode="&#x150;" horiz-adv-x="683" 
d="M45 333c0 95 28 177 84 246c57 69 127 104 212 104c81 0 151 -34 209 -103c58 -68 87 -150 87 -247s-29 -179 -87 -247s-128 -102 -209 -102s-151 34 -209 102s-87 150 -87 247zM490 333c0 163 -18 265 -55 304c-22 23 -53 34 -94 34s-72 -11 -93 -34
c-37 -39 -56 -141 -56 -304c0 -90 4 -157 12 -202c9 -45 23 -78 44 -101s52 -35 93 -35c42 0 73 12 94 35c21 22 35 55 43 100s12 112 12 203zM207 727l-5 5l140 153c15 15 29 23 42 23c23 0 40 -19 40 -40c0 -14 -7 -25 -21 -32zM342 727l-5 5l140 153c15 15 29 23 42 23
c23 0 40 -19 40 -40c0 -14 -7 -25 -21 -32z" />
    <glyph glyph-name="ohungarumlaut" unicode="&#x151;" horiz-adv-x="524" 
d="M261 -9c-59 0 -111 22 -154 65c-43 44 -64 96 -64 157s21 113 64 156c43 44 95 66 154 66c61 0 112 -22 155 -65s65 -96 65 -157s-22 -114 -65 -157s-94 -65 -155 -65zM324 402c-13 14 -34 21 -63 21c-27 0 -48 -7 -62 -21c-24 -26 -36 -89 -36 -189s12 -163 36 -189
c14 -14 35 -21 62 -21c29 0 50 7 63 21c25 25 37 88 37 189s-12 164 -37 189zM117 504l-5 5l140 153c15 15 29 23 42 23c23 0 40 -19 40 -40c0 -14 -7 -25 -21 -32zM252 504l-5 5l140 153c15 15 29 23 42 23c23 0 40 -19 40 -40c0 -14 -7 -25 -21 -32z" />
    <glyph glyph-name="OE" unicode="&#x152;" horiz-adv-x="922" 
d="M341 12h106v643h-106c-41 0 -72 -11 -93 -34c-41 -43 -56 -125 -56 -288c0 -89 4 -153 12 -192c16 -79 56 -129 137 -129zM898 220v-220h-556c-83 0 -153 32 -211 95c-57 63 -86 143 -86 238c0 94 28 173 84 237c56 65 127 97 212 97h510v-201h-12c0 49 -14 93 -42 131
c-27 39 -67 58 -120 58h-98v-306h22c69 0 112 59 112 128h13v-268h-13c0 69 -43 128 -112 128h-22v-325h101c69 0 120 21 155 62c35 42 52 91 52 146h11z" />
    <glyph glyph-name="oe" unicode="&#x153;" horiz-adv-x="812" 
d="M261 435c63 0 117 -23 160 -70c45 47 98 70 161 70c41 0 76 -12 107 -36c63 -47 87 -109 87 -160v-3h-296v-23c2 -163 19 -204 102 -210c72 0 136 38 175 91l8 -8c-39 -57 -110 -95 -183 -95c-63 0 -116 23 -161 70c-45 -47 -98 -70 -160 -70c-59 0 -111 22 -154 65
c-43 44 -64 96 -64 157s21 113 64 156c43 44 95 66 154 66zM324 402c-13 14 -34 21 -63 21c-27 0 -48 -7 -62 -21c-24 -26 -36 -89 -36 -189s12 -163 36 -189c14 -14 35 -21 62 -21c29 0 50 7 63 21c25 25 37 88 37 189s-12 164 -37 189zM480 248h191c-1 78 -12 129 -34 154
c-11 14 -30 21 -55 21c-28 0 -49 -7 -63 -21c-25 -25 -38 -77 -39 -154z" />
    <glyph glyph-name="Racute" unicode="&#x154;" horiz-adv-x="630" 
d="M662 35l7 -8c-20 -22 -46 -33 -78 -33c-43 0 -81 15 -113 45s-48 76 -48 138v51c0 80 -43 113 -130 113h-46v-329h76v-12h-294v12h85v643h-85v12h285c66 0 119 -16 158 -47s59 -70 59 -117c0 -43 -16 -80 -49 -111c-33 -30 -73 -45 -120 -45c65 0 114 -18 147 -53
s50 -78 50 -129v-82c0 -46 17 -69 50 -69c19 0 34 7 46 21zM405 500c0 59 -7 100 -22 122s-43 33 -85 33h-44v-302h46c45 0 73 9 86 28s19 58 19 119zM216 727l-5 5l140 153c15 15 29 23 42 23c23 0 40 -19 40 -40c0 -14 -7 -25 -21 -32z" />
    <glyph glyph-name="racute" unicode="&#x155;" horiz-adv-x="423" 
d="M406 343c0 -44 -23 -67 -58 -67s-56 18 -56 43c0 20 15 39 15 52c0 23 -14 44 -31 44c-23 0 -49 -8 -71 -103v-300h62v-12h-242v12h65v402h-65v12h180v-69c21 61 53 78 101 78c59 0 100 -45 100 -92zM133 504l-5 5l140 153c15 15 29 23 42 23c23 0 40 -19 40 -40
c0 -14 -7 -25 -21 -32z" />
    <glyph glyph-name="Rcommaaccent" unicode="&#x156;" horiz-adv-x="630" 
d="M662 35l7 -8c-20 -22 -46 -33 -78 -33c-43 0 -81 15 -113 45s-48 76 -48 138v51c0 80 -43 113 -130 113h-46v-329h76v-12h-294v12h85v643h-85v12h285c66 0 119 -16 158 -47s59 -70 59 -117c0 -43 -16 -80 -49 -111c-33 -30 -73 -45 -120 -45c65 0 114 -18 147 -53
s50 -78 50 -129v-82c0 -46 17 -69 50 -69c19 0 34 7 46 21zM405 500c0 59 -7 100 -22 122s-43 33 -85 33h-44v-302h46c45 0 73 9 86 28s19 58 19 119zM406 -123c0 -32 -11 -67 -34 -105c-23 -39 -50 -64 -83 -76l-5 13c15 5 29 16 43 33s21 34 21 49c0 19 -11 37 -34 54
c-13 12 -20 28 -20 47c0 32 24 59 55 59c38 0 57 -25 57 -74z" />
    <glyph glyph-name="rcommaaccent" unicode="&#x157;" horiz-adv-x="423" 
d="M406 343c0 -44 -23 -67 -58 -67s-56 18 -56 43c0 20 15 39 15 52c0 23 -14 44 -31 44c-23 0 -49 -8 -71 -103v-300h62v-12h-242v12h65v402h-65v12h180v-69c21 61 53 78 101 78c59 0 100 -45 100 -92zM212 -123c0 -32 -11 -67 -34 -105c-23 -39 -50 -64 -83 -76l-5 13
c15 5 29 16 43 33s21 34 21 49c0 19 -11 37 -34 54c-13 12 -20 28 -20 47c0 32 24 59 55 59c38 0 57 -25 57 -74z" />
    <glyph glyph-name="Rcaron" unicode="&#x158;" horiz-adv-x="630" 
d="M662 35l7 -8c-20 -22 -46 -33 -78 -33c-43 0 -81 15 -113 45s-48 76 -48 138v51c0 80 -43 113 -130 113h-46v-329h76v-12h-294v12h85v643h-85v12h285c66 0 119 -16 158 -47s59 -70 59 -117c0 -43 -16 -80 -49 -111c-33 -30 -73 -45 -120 -45c65 0 114 -18 147 -53
s50 -78 50 -129v-82c0 -46 17 -69 50 -69c19 0 34 7 46 21zM405 500c0 59 -7 100 -22 122s-43 33 -85 33h-44v-302h46c45 0 73 9 86 28s19 58 19 119zM450 912l6 -8c-69 -81 -115 -142 -140 -182h-4c-61 89 -107 149 -139 182l6 8l130 -85z" />
    <glyph glyph-name="rcaron" unicode="&#x159;" horiz-adv-x="423" 
d="M406 343c0 -44 -23 -67 -58 -67s-56 18 -56 43c0 20 15 39 15 52c0 23 -14 44 -31 44c-23 0 -49 -8 -71 -103v-300h62v-12h-242v12h65v402h-65v12h180v-69c21 61 53 78 101 78c59 0 100 -45 100 -92zM347 689l6 -8c-69 -82 -115 -143 -140 -182h-4
c-61 89 -107 149 -139 182l6 8l130 -85z" />
    <glyph glyph-name="Sacute" unicode="&#x15a;" horiz-adv-x="508" 
d="M486 214c0 -59 -19 -113 -58 -160s-91 -70 -158 -70c-23 0 -53 6 -90 19s-59 20 -68 20c-25 0 -46 -17 -49 -36h-12v226h12c0 -26 9 -56 26 -89s42 -63 75 -90c33 -26 68 -39 105 -39c99 0 147 51 147 118c0 47 -9 73 -46 100c-18 13 -37 24 -56 33s-50 21 -91 36
c-99 37 -152 85 -152 188c0 61 17 111 52 152s77 61 124 61c19 0 40 -4 61 -13c22 -8 41 -12 57 -12c23 0 35 7 38 22h10v-175h-10c0 45 -15 83 -46 116s-67 50 -109 50c-71 0 -114 -44 -114 -109c0 -67 45 -105 161 -149c67 -25 116 -52 146 -79s45 -67 45 -120zM195 727
l-5 5l140 153c15 15 29 23 42 23c23 0 40 -19 40 -40c0 -14 -7 -25 -21 -32z" />
    <glyph glyph-name="sacute" unicode="&#x15b;" horiz-adv-x="397" 
d="M370 139c0 -84 -62 -148 -158 -148c-24 0 -46 4 -67 13c-20 9 -35 14 -44 14c-17 0 -35 -11 -38 -19h-10v154h12c0 -43 14 -79 42 -108c28 -28 63 -42 105 -42c59 0 93 32 93 91c0 47 -31 65 -122 86c-81 17 -122 52 -122 116c0 43 13 77 39 102c27 25 58 37 93 37
c40 0 77 -19 92 -19c12 0 23 15 23 20h10v-124h-10c0 29 -13 55 -38 78s-51 35 -77 35c-47 0 -75 -27 -75 -79c0 -44 30 -59 121 -82c76 -19 131 -61 131 -125zM130 504l-5 5l140 153c15 15 29 23 42 23c23 0 40 -19 40 -40c0 -14 -7 -25 -21 -32z" />
    <glyph glyph-name="Scircumflex" unicode="&#x15c;" horiz-adv-x="508" 
d="M486 214c0 -59 -19 -113 -58 -160s-91 -70 -158 -70c-23 0 -53 6 -90 19s-59 20 -68 20c-25 0 -46 -17 -49 -36h-12v226h12c0 -26 9 -56 26 -89s42 -63 75 -90c33 -26 68 -39 105 -39c99 0 147 51 147 118c0 47 -9 73 -46 100c-18 13 -37 24 -56 33s-50 21 -91 36
c-99 37 -152 85 -152 188c0 61 17 111 52 152s77 61 124 61c19 0 40 -4 61 -13c22 -8 41 -12 57 -12c23 0 35 7 38 22h10v-175h-10c0 45 -15 83 -46 116s-67 50 -109 50c-71 0 -114 -44 -114 -109c0 -67 45 -105 161 -149c67 -25 116 -52 146 -79s45 -67 45 -120zM395 730
l-6 -8l-141 85l-130 -85l-6 8c32 33 78 93 139 182h4c25 -40 71 -101 140 -182z" />
    <glyph glyph-name="scircumflex" unicode="&#x15d;" horiz-adv-x="397" 
d="M370 139c0 -84 -62 -148 -158 -148c-24 0 -46 4 -67 13c-20 9 -35 14 -44 14c-17 0 -35 -11 -38 -19h-10v154h12c0 -43 14 -79 42 -108c28 -28 63 -42 105 -42c59 0 93 32 93 91c0 47 -31 65 -122 86c-81 17 -122 52 -122 116c0 43 13 77 39 102c27 25 58 37 93 37
c40 0 77 -19 92 -19c12 0 23 15 23 20h10v-124h-10c0 29 -13 55 -38 78s-51 35 -77 35c-47 0 -75 -27 -75 -79c0 -44 30 -59 121 -82c76 -19 131 -61 131 -125zM340 507l-6 -8l-141 85l-130 -85l-6 8c32 33 78 93 139 182h4c25 -39 71 -100 140 -182z" />
    <glyph glyph-name="Scedilla" unicode="&#x15e;" horiz-adv-x="508" 
d="M264 -225c-45 0 -69 26 -69 53c0 13 10 25 25 25s23 -7 23 -20c0 -12 -11 -21 -11 -26c0 -13 11 -20 32 -20c37 0 68 18 68 45c0 37 -87 25 -87 93c0 19 6 39 18 59c-21 1 -50 8 -85 20c-35 13 -57 19 -66 19c-25 0 -46 -17 -49 -36h-12v226h12c0 -26 9 -56 26 -89
s42 -63 75 -90c33 -26 68 -39 105 -39c99 0 147 51 147 118c0 47 -9 73 -46 100c-18 13 -37 24 -56 33s-50 21 -91 36c-99 37 -152 85 -152 188c0 61 17 111 52 152s77 61 124 61c19 0 40 -4 61 -13c22 -8 41 -12 57 -12c23 0 35 7 38 22h10v-175h-10c0 45 -15 83 -46 116
s-67 50 -109 50c-71 0 -114 -44 -114 -109c0 -67 45 -105 161 -149c67 -25 116 -52 146 -79s45 -67 45 -120c0 -59 -19 -111 -57 -158c-37 -46 -88 -70 -153 -72c-4 -6 -6 -12 -6 -18c0 -28 21 -44 41 -51s41 -28 41 -61c0 -47 -31 -79 -88 -79z" />
    <glyph glyph-name="scedilla" unicode="&#x15f;" horiz-adv-x="397" 
d="M370 139c0 -84 -62 -148 -158 -148c-24 0 -46 4 -67 13c-20 9 -35 14 -44 14c-17 0 -35 -11 -38 -19h-10v154h12c0 -43 14 -79 42 -108c28 -28 63 -42 105 -42c59 0 93 32 93 91c0 47 -31 65 -122 86c-81 17 -122 52 -122 116c0 43 13 77 39 102c27 25 58 37 93 37
c40 0 77 -19 92 -19c12 0 23 15 23 20h10v-124h-10c0 29 -13 55 -38 78s-51 35 -77 35c-47 0 -75 -27 -75 -79c0 -44 30 -59 121 -82c76 -19 131 -61 131 -125zM195 -225c-45 0 -69 26 -69 53c0 13 10 25 25 25s23 -7 23 -20c0 -12 -11 -21 -11 -26c0 -13 11 -20 32 -20
c37 0 68 18 68 45c0 37 -87 25 -87 93c0 25 8 48 25 69l12 -3c-8 -8 -12 -16 -12 -25c0 -28 21 -44 41 -51s41 -28 41 -61c0 -47 -31 -79 -88 -79z" />
    <glyph glyph-name="Scaron" unicode="&#x160;" horiz-adv-x="508" 
d="M486 214c0 -59 -19 -113 -58 -160s-91 -70 -158 -70c-23 0 -53 6 -90 19s-59 20 -68 20c-25 0 -46 -17 -49 -36h-12v226h12c0 -26 9 -56 26 -89s42 -63 75 -90c33 -26 68 -39 105 -39c99 0 147 51 147 118c0 47 -9 73 -46 100c-18 13 -37 24 -56 33s-50 21 -91 36
c-99 37 -152 85 -152 188c0 61 17 111 52 152s77 61 124 61c19 0 40 -4 61 -13c22 -8 41 -12 57 -12c23 0 35 7 38 22h10v-175h-10c0 45 -15 83 -46 116s-67 50 -109 50c-71 0 -114 -44 -114 -109c0 -67 45 -105 161 -149c67 -25 116 -52 146 -79s45 -67 45 -120zM389 912
l6 -8c-69 -81 -115 -142 -140 -182h-4c-61 89 -107 149 -139 182l6 8l130 -85z" />
    <glyph glyph-name="scaron" unicode="&#x161;" horiz-adv-x="397" 
d="M370 139c0 -84 -62 -148 -158 -148c-24 0 -46 4 -67 13c-20 9 -35 14 -44 14c-17 0 -35 -11 -38 -19h-10v154h12c0 -43 14 -79 42 -108c28 -28 63 -42 105 -42c59 0 93 32 93 91c0 47 -31 65 -122 86c-81 17 -122 52 -122 116c0 43 13 77 39 102c27 25 58 37 93 37
c40 0 77 -19 92 -19c12 0 23 15 23 20h10v-124h-10c0 29 -13 55 -38 78s-51 35 -77 35c-47 0 -75 -27 -75 -79c0 -44 30 -59 121 -82c76 -19 131 -61 131 -125zM334 689l6 -8c-69 -82 -115 -143 -140 -182h-4c-61 89 -107 149 -139 182l6 8l130 -85z" />
    <glyph glyph-name="Tcommaaccent" unicode="&#x162;" horiz-adv-x="613" 
d="M593 667v-229h-11c0 60 -16 111 -49 153c-33 43 -80 64 -143 64h-19v-643h84v-12h-303v12h86v643h-20c-62 0 -109 -21 -140 -64c-31 -42 -46 -93 -46 -153h-12v229h573zM367 -123c0 -32 -11 -67 -34 -105c-23 -39 -50 -64 -83 -76l-5 13c15 5 29 16 43 33s21 34 21 49
c0 19 -11 37 -34 54c-13 12 -20 28 -20 47c0 32 24 59 55 59c38 0 57 -25 57 -74z" />
    <glyph glyph-name="tcommaaccent" unicode="&#x163;" horiz-adv-x="329" 
d="M308 87l9 -3c-17 -62 -57 -93 -118 -93c-71 0 -101 31 -101 98v325h-80v12h80v84c21 2 41 13 62 34s34 39 39 56h11v-174h95v-12h-95v-371c0 -19 11 -29 33 -29c27 0 52 32 65 73zM226 -123c0 -32 -11 -67 -34 -105c-23 -39 -50 -64 -83 -76l-5 13c15 5 29 16 43 33
s21 34 21 49c0 19 -11 37 -34 54c-13 12 -20 28 -20 47c0 32 24 59 55 59c38 0 57 -25 57 -74z" />
    <glyph glyph-name="Tcaron" unicode="&#x164;" horiz-adv-x="613" 
d="M593 667v-229h-11c0 60 -16 111 -49 153c-33 43 -80 64 -143 64h-19v-643h84v-12h-303v12h86v643h-20c-62 0 -109 -21 -140 -64c-31 -42 -46 -93 -46 -153h-12v229h573zM442 912l6 -8c-69 -81 -115 -142 -140 -182h-4c-61 89 -107 149 -139 182l6 8l130 -85z" />
    <glyph glyph-name="tcaron" unicode="&#x165;" horiz-adv-x="402" 
d="M308 87l9 -3c-17 -62 -57 -93 -118 -93c-71 0 -101 31 -101 98v325h-80v12h80v84c21 2 41 13 62 34s34 39 39 56h11v-174h95v-12h-95v-371c0 -19 11 -29 33 -29c27 0 52 32 65 73zM402 664c0 -32 -11 -67 -34 -106c-23 -38 -50 -63 -83 -75l-5 13c15 5 29 16 43 33
s21 34 21 49c0 19 -11 37 -34 54c-13 12 -20 28 -20 47c0 32 24 59 55 59c38 0 57 -25 57 -74z" />
    <glyph glyph-name="Tbar" unicode="&#x166;" horiz-adv-x="613" 
d="M90 336v12h148v307h-20c-62 0 -109 -21 -140 -64c-31 -42 -46 -93 -46 -153h-12v229h573v-229h-11c0 60 -16 111 -49 153c-33 43 -80 64 -143 64h-19v-307h154v-12h-154v-324h84v-12h-303v12h86v324h-148z" />
    <glyph glyph-name="tbar" unicode="&#x167;" horiz-adv-x="329" 
d="M18 294v12h80v108h-80v12h80v84c21 2 41 13 62 34s34 39 39 56h11v-174h95v-12h-95v-108h95v-12h-95v-251c0 -19 11 -29 33 -29c27 0 52 32 65 73l9 -3c-17 -62 -57 -93 -118 -93c-71 0 -101 31 -101 98v205h-80z" />
    <glyph glyph-name="Utilde" unicode="&#x168;" horiz-adv-x="651" 
d="M337 -16c-143 0 -233 66 -233 201v470h-85v12h304v-12h-88v-477c0 -117 33 -174 125 -174c120 0 184 72 184 187v436c0 19 -11 28 -34 28h-56v12h188v-12h-52c-23 0 -34 -9 -34 -28v-429c0 -135 -71 -214 -219 -214zM506 874h14c0 -31 -12 -58 -36 -81
c-23 -22 -51 -33 -83 -33c-60 0 -89 60 -126 60c-28 0 -49 -27 -49 -60h-15c0 64 46 114 110 114c25 0 50 -10 75 -30c26 -19 46 -29 59 -29c29 0 51 24 51 59z" />
    <glyph glyph-name="utilde" unicode="&#x169;" horiz-adv-x="569" 
d="M552 12v-12h-179v69c-17 -52 -67 -78 -120 -78c-107 0 -171 56 -171 160v263h-66v12h180v-321c0 -69 19 -103 57 -103c63 0 97 31 120 100v312h-64v12h179v-414h64zM425 651h14c0 -31 -12 -58 -36 -81c-23 -22 -51 -33 -83 -33c-60 0 -89 60 -126 60
c-28 0 -49 -27 -49 -60h-15c0 64 46 114 110 114c25 0 50 -10 75 -30c26 -19 46 -29 59 -29c29 0 51 24 51 59z" />
    <glyph glyph-name="Umacron" unicode="&#x16a;" horiz-adv-x="651" 
d="M337 -16c-143 0 -233 66 -233 201v470h-85v12h304v-12h-88v-477c0 -117 33 -174 125 -174c120 0 184 72 184 187v436c0 19 -11 28 -34 28h-56v12h188v-12h-52c-23 0 -34 -9 -34 -28v-429c0 -135 -71 -214 -219 -214zM509 829v-59h-307v59h307z" />
    <glyph glyph-name="umacron" unicode="&#x16b;" horiz-adv-x="569" 
d="M552 12v-12h-179v69c-17 -52 -67 -78 -120 -78c-107 0 -171 56 -171 160v263h-66v12h180v-321c0 -69 19 -103 57 -103c63 0 97 31 120 100v312h-64v12h179v-414h64zM438 606v-59h-307v59h307z" />
    <glyph glyph-name="Ubreve" unicode="&#x16c;" horiz-adv-x="651" 
d="M337 -16c-143 0 -233 66 -233 201v470h-85v12h304v-12h-88v-477c0 -117 33 -174 125 -174c120 0 184 72 184 187v436c0 19 -11 28 -34 28h-56v12h188v-12h-52c-23 0 -34 -9 -34 -28v-429c0 -135 -71 -214 -219 -214zM498 890h11c0 -64 -24 -155 -134 -155
c-111 0 -133 91 -133 155h11c0 -31 15 -90 122 -90c108 0 123 59 123 90z" />
    <glyph glyph-name="ubreve" unicode="&#x16d;" horiz-adv-x="569" 
d="M552 12v-12h-179v69c-17 -52 -67 -78 -120 -78c-107 0 -171 56 -171 160v263h-66v12h180v-321c0 -69 19 -103 57 -103c63 0 97 31 120 100v312h-64v12h179v-414h64zM407 667h11c0 -64 -24 -155 -134 -155c-111 0 -133 91 -133 155h11c0 -31 15 -90 122 -90
c108 0 123 59 123 90z" />
    <glyph glyph-name="Uring" unicode="&#x16e;" horiz-adv-x="651" 
d="M337 -16c-143 0 -233 66 -233 201v470h-85v12h304v-12h-88v-477c0 -117 33 -174 125 -174c120 0 184 72 184 187v436c0 19 -11 28 -34 28h-56v12h188v-12h-52c-23 0 -34 -9 -34 -28v-429c0 -135 -71 -214 -219 -214zM467 833c0 -48 -44 -90 -92 -90s-92 42 -92 90
c0 29 10 52 31 67c21 16 42 24 61 24s39 -8 60 -24c21 -15 32 -38 32 -67zM416 833c0 40 -5 65 -15 75c-12 11 -40 11 -51 0c-10 -11 -15 -36 -15 -75c0 -38 5 -63 15 -74c11 -11 39 -11 51 0c10 10 15 35 15 74z" />
    <glyph glyph-name="uring" unicode="&#x16f;" horiz-adv-x="569" 
d="M552 12v-12h-179v69c-17 -52 -67 -78 -120 -78c-107 0 -171 56 -171 160v263h-66v12h180v-321c0 -69 19 -103 57 -103c63 0 97 31 120 100v312h-64v12h179v-414h64zM376 610c0 -48 -44 -90 -92 -90s-92 42 -92 90c0 29 10 52 31 67c21 16 42 24 61 24s39 -8 60 -24
c21 -15 32 -38 32 -67zM325 610c0 40 -5 65 -15 75c-12 11 -40 11 -51 0c-10 -11 -15 -36 -15 -75s5 -63 15 -74c11 -11 39 -11 51 0c10 10 15 35 15 74z" />
    <glyph glyph-name="Uhungarumlaut" unicode="&#x170;" horiz-adv-x="651" 
d="M337 -16c-143 0 -233 66 -233 201v470h-85v12h304v-12h-88v-477c0 -117 33 -174 125 -174c120 0 184 72 184 187v436c0 19 -11 28 -34 28h-56v12h188v-12h-52c-23 0 -34 -9 -34 -28v-429c0 -135 -71 -214 -219 -214zM231 737l-5 5l140 153c15 15 29 23 42 23
c23 0 40 -19 40 -40c0 -14 -7 -25 -21 -32zM366 737l-5 5l140 153c15 15 29 23 42 23c23 0 40 -19 40 -40c0 -14 -7 -25 -21 -32z" />
    <glyph glyph-name="uhungarumlaut" unicode="&#x171;" horiz-adv-x="569" 
d="M552 12v-12h-179v69c-17 -52 -67 -78 -120 -78c-107 0 -171 56 -171 160v263h-66v12h180v-321c0 -69 19 -103 57 -103c63 0 97 31 120 100v312h-64v12h179v-414h64zM130 504l-5 5l140 153c15 15 29 23 42 23c23 0 40 -19 40 -40c0 -14 -7 -25 -21 -32zM265 504l-5 5
l140 153c15 15 29 23 42 23c23 0 40 -19 40 -40c0 -14 -7 -25 -21 -32z" />
    <glyph glyph-name="Uogonek" unicode="&#x172;" horiz-adv-x="651" 
d="M337 -16c-143 0 -233 66 -233 201v470h-85v12h304v-12h-88v-477c0 -117 33 -174 125 -174c120 0 184 72 184 187v436c0 19 -11 28 -34 28h-56v12h188v-12h-52c-23 0 -34 -9 -34 -28v-429c0 -135 -71 -214 -219 -214zM474 -148l8 -7c-29 -36 -65 -54 -107 -54
c-53 0 -87 32 -87 77c0 51 50 98 150 141l6 -4c-56 -27 -87 -76 -87 -111c0 -47 24 -69 56 -69c25 0 45 9 61 27z" />
    <glyph glyph-name="uogonek" unicode="&#x173;" horiz-adv-x="569" 
d="M552 12v-12h-179v69c-17 -52 -67 -78 -120 -78c-107 0 -171 56 -171 160v263h-66v12h180v-321c0 -69 19 -103 57 -103c63 0 97 31 120 100v312h-64v12h179v-414h64zM526 -148l8 -7c-29 -36 -65 -54 -107 -54c-53 0 -87 32 -87 77c0 51 50 98 150 141l6 -4
c-56 -27 -87 -76 -87 -111c0 -47 24 -69 56 -69c25 0 45 9 61 27z" />
    <glyph glyph-name="Wcircumflex" unicode="&#x174;" horiz-adv-x="939" 
d="M322 -14h-20l-251 669h-91v12h318v-12h-86l181 -484l104 319l-57 165h-95v12h332v-12h-100l167 -484l148 449c12 31 -12 35 -17 35h-63v12h189v-12h-58c-20 0 -31 -7 -42 -40l-208 -629h-18l-172 491zM631 730l-6 -8l-141 85l-130 -85l-6 8c32 33 78 93 139 182h4
c25 -40 71 -101 140 -182z" />
    <glyph glyph-name="wcircumflex" unicode="&#x175;" horiz-adv-x="737" 
d="M252 -8h-20l-194 422h-62v12h254v-12h-68l125 -290l81 217l-35 73h-51v12h245v-12h-69l127 -287l95 245c12 33 6 42 -19 42h-41v12h149v-12h-35c-23 0 -31 -10 -43 -42l-142 -380h-20l-154 333zM540 507l-6 -8l-141 85l-130 -85l-6 8c32 33 78 93 139 182h4
c25 -39 71 -100 140 -182z" />
    <glyph glyph-name="Ycircumflex" unicode="&#x176;" horiz-adv-x="606" 
d="M476 0h-303v12h86v279l-179 364h-93v12h331v-12h-97l166 -338l136 298c12 27 8 40 -13 40h-64v12h188v-12h-55c-18 0 -34 -15 -48 -45l-141 -311v-287h86v-12zM514 730l-6 -8l-141 85l-130 -85l-6 8c32 33 78 93 139 182h4c25 -40 71 -101 140 -182z" />
    <glyph glyph-name="ycircumflex" unicode="&#x177;" horiz-adv-x="465" 
d="M72 -317c-43 0 -76 37 -76 80c0 35 24 63 56 63c29 0 48 -19 48 -42c0 -16 -24 -40 -24 -56c0 -17 5 -25 14 -25c29 0 52 20 67 59l86 224l-207 428h-60v12h254v-12h-70l140 -288l94 246c11 28 6 42 -15 42h-43v12h153v-12h-37c-25 0 -32 -5 -47 -42l-235 -608
c-21 -54 -53 -81 -98 -81zM414 507l-6 -8l-141 85l-130 -85l-6 8c32 33 78 93 139 182h4c25 -39 71 -100 140 -182z" />
    <glyph glyph-name="Ydieresis" unicode="&#x178;" horiz-adv-x="606" 
d="M476 0h-303v12h86v279l-179 364h-93v12h331v-12h-97l166 -338l136 298c12 27 8 40 -13 40h-64v12h188v-12h-55c-18 0 -34 -15 -48 -45l-141 -311v-287h86v-12zM330 808c0 -39 -28 -69 -67 -69c-35 0 -63 30 -63 69c0 35 28 63 63 63c39 0 67 -27 67 -63zM526 808
c0 -39 -28 -69 -67 -69c-35 0 -63 30 -63 69c0 35 28 63 63 63c39 0 67 -27 67 -63z" />
    <glyph glyph-name="Zacute" unicode="&#x179;" horiz-adv-x="575" 
d="M525 0h-478l334 655h-96c-58 0 -104 -22 -139 -65s-52 -94 -52 -152h-12v229h443l-333 -655h126c58 0 105 22 140 67c36 45 54 96 54 154h13v-233zM239 727l-5 5l140 153c15 15 29 23 42 23c23 0 40 -19 40 -40c0 -14 -7 -25 -21 -32z" />
    <glyph glyph-name="zacute" unicode="&#x17a;" horiz-adv-x="443" 
d="M407 0h-375l248 414h-78c-92 0 -124 -47 -124 -131h-10v143h337l-246 -414h99c103 0 139 54 139 145h10v-157zM163 504l-5 5l140 153c15 15 29 23 42 23c23 0 40 -19 40 -40c0 -14 -7 -25 -21 -32z" />
    <glyph glyph-name="Zdotaccent" unicode="&#x17b;" horiz-adv-x="575" 
d="M525 0h-478l334 655h-96c-58 0 -104 -22 -139 -65s-52 -94 -52 -152h-12v229h443l-333 -655h126c58 0 105 22 140 67c36 45 54 96 54 154h13v-233zM352 808c0 -39 -28 -69 -67 -69c-35 0 -63 30 -63 69c0 35 28 63 63 63c39 0 67 -27 67 -63z" />
    <glyph glyph-name="zdotaccent" unicode="&#x17c;" horiz-adv-x="443" 
d="M407 0h-375l248 414h-78c-92 0 -124 -47 -124 -131h-10v143h337l-246 -414h99c103 0 139 54 139 145h10v-157zM278 594c0 -31 -27 -56 -56 -56c-33 0 -58 24 -58 56c0 33 25 56 58 56c29 0 56 -24 56 -56z" />
    <glyph glyph-name="Zcaron" unicode="&#x17d;" horiz-adv-x="575" 
d="M525 0h-478l334 655h-96c-58 0 -104 -22 -139 -65s-52 -94 -52 -152h-12v229h443l-333 -655h126c58 0 105 22 140 67c36 45 54 96 54 154h13v-233zM423 912l6 -8c-69 -81 -115 -142 -140 -182h-4c-61 89 -107 149 -139 182l6 8l130 -85z" />
    <glyph glyph-name="zcaron" unicode="&#x17e;" horiz-adv-x="443" 
d="M407 0h-375l248 414h-78c-92 0 -124 -47 -124 -131h-10v143h337l-246 -414h99c103 0 139 54 139 145h10v-157zM357 689l6 -8c-69 -82 -115 -143 -140 -182h-4c-61 89 -107 149 -139 182l6 8l130 -85z" />
    <glyph glyph-name="florin" unicode="&#x192;" horiz-adv-x="427" 
d="M502 619c0 -27 -23 -49 -52 -49c-31 0 -46 12 -46 37c0 15 18 31 18 50c0 23 -3 30 -24 30c-46 0 -70 -66 -89 -142c-6 -24 -11 -51 -15 -82c-7 -60 -10 -98 -14 -142c-1 -7 -1 -11 -1 -14h94v-11h-95c0 -2 -1 -11 -2 -26c-5 -43 -10 -83 -16 -121
c-12 -76 -31 -176 -62 -248c-42 -109 -111 -203 -211 -199c-53 0 -91 35 -91 84c0 27 24 50 52 50c31 0 47 -12 47 -37c0 -15 -19 -33 -19 -50c0 -24 4 -35 24 -35c116 0 131 200 151 504c2 34 4 60 5 78h-95v11h96c0 3 0 11 1 26c5 107 35 195 88 264
c54 69 111 103 171 103c45 0 85 -36 85 -81z" />
    <glyph glyph-name="Aringacute" unicode="&#x1fa;" horiz-adv-x="604" 
d="M394 763c0 -44 -38 -83 -82 -90l241 -661h85v-12h-313v12h86l-67 208h-200l-61 -169c-13 -33 -8 -39 -3 -39h82v-12h-182v12h57c13 0 25 13 34 39l219 622c-44 7 -80 46 -80 90c0 29 10 52 31 67c21 16 42 24 61 24s39 -8 60 -24c21 -15 32 -38 32 -67zM148 232h190
l-92 282zM254 762c0 -60 15 -81 48 -81s48 21 48 81c0 53 -9 84 -48 84s-48 -31 -48 -84zM242 869l-5 5l140 153c15 15 29 23 42 23c23 0 40 -19 40 -40c0 -14 -7 -25 -21 -32z" />
    <glyph glyph-name="aringacute" unicode="&#x1fb;" horiz-adv-x="472" 
d="M459 38l8 -7c-9 -17 -45 -39 -81 -39c-44 0 -91 30 -98 66c-15 -44 -48 -66 -101 -66c-41 0 -76 8 -106 25c-29 17 -44 44 -44 80c0 73 48 115 145 124c37 3 49 5 72 9c24 4 32 10 32 21v79c0 75 -21 96 -62 96c-35 0 -53 -15 -53 -46c0 -12 8 -31 8 -42
c0 -23 -17 -40 -50 -40c-32 0 -49 22 -49 50c0 21 14 41 42 60c29 19 63 28 102 28c111 0 176 -60 176 -181v-206c0 -23 8 -34 23 -34c11 0 23 8 36 23zM286 115v114c-12 -7 -30 -11 -39 -14c-9 -1 -38 -4 -45 -5c-37 -8 -51 -33 -51 -121c0 -57 10 -81 54 -81
c48 0 81 47 81 107zM328 580c0 -48 -44 -90 -92 -90s-92 42 -92 90c0 29 10 52 31 67c21 16 42 24 61 24s39 -8 60 -24c21 -15 32 -38 32 -67zM277 580c0 40 -5 65 -15 75c-12 11 -40 11 -51 0c-10 -11 -15 -36 -15 -75s5 -63 15 -74c11 -11 39 -11 51 0c10 10 15 35 15 74z
M167 674l-5 5l140 153c15 15 29 23 42 23c23 0 40 -19 40 -40c0 -14 -7 -25 -21 -32z" />
    <glyph glyph-name="AEacute" unicode="&#x1fc;" horiz-adv-x="882" 
d="M317 667h494v-201h-12c0 49 -14 93 -42 131c-27 39 -67 58 -120 58h-98v-306h22c69 0 112 59 112 128h13v-268h-13c0 69 -43 128 -112 128h-22v-325h101c69 0 120 21 155 62c35 42 52 91 52 146h11v-220h-540v12h89v258h-209l-121 -219c-13 -24 -18 -37 -15 -38
c1 -1 3 -1 6 -1h74v-12h-178v12h60c8 0 16 2 35 39l336 604h-78v12zM204 282h203v366zM432 727l-5 5l140 153c15 15 29 23 42 23c23 0 40 -19 40 -40c0 -14 -7 -25 -21 -32z" />
    <glyph glyph-name="aeacute" unicode="&#x1fd;" horiz-adv-x="732" 
d="M302 103c-9 -74 -52 -111 -127 -111c-35 0 -67 8 -96 25c-28 17 -42 44 -42 80c0 73 48 115 145 124c37 3 49 5 72 9c24 4 32 10 32 21v79c0 75 -21 96 -62 96c-35 0 -53 -15 -53 -46c0 -12 8 -31 8 -42c0 -23 -17 -40 -50 -40c-32 0 -49 22 -49 50c0 21 14 41 42 60
c29 19 63 28 102 28c61 0 107 -18 136 -53c42 35 89 52 142 52c41 0 76 -12 107 -36c63 -47 87 -109 87 -160v-3h-296v-23c2 -163 19 -204 102 -210c72 0 136 38 175 91l8 -8c-39 -57 -110 -95 -183 -95c-37 0 -74 11 -112 32c-37 22 -67 49 -88 80zM400 248h191
c-1 78 -12 129 -34 154c-11 14 -30 21 -55 21c-28 0 -49 -7 -63 -21c-25 -25 -38 -77 -39 -154zM286 115v114c-12 -7 -30 -11 -39 -14c-9 -1 -38 -4 -45 -5c-37 -8 -51 -33 -51 -121c0 -57 10 -81 54 -81c48 0 81 47 81 107zM307 504l-5 5l140 153c15 15 29 23 42 23
c23 0 40 -19 40 -40c0 -14 -7 -25 -21 -32z" />
    <glyph glyph-name="Oslashacute" unicode="&#x1fe;" horiz-adv-x="683" 
d="M511 619l40 69l14 -6l-43 -73c72 -65 115 -165 115 -276c0 -97 -29 -179 -87 -247s-128 -102 -209 -102c-56 0 -108 17 -156 52l-34 -59l-14 6l36 62c-79 64 -128 171 -128 288c0 95 28 177 84 246c57 69 127 104 212 104c62 0 119 -21 170 -64zM192 333
c0 -106 6 -182 18 -227l262 448c-8 38 -20 66 -37 83c-22 23 -53 34 -94 34s-72 -11 -93 -34c-37 -39 -56 -141 -56 -304zM490 333c0 83 -4 150 -13 199l-262 -445c9 -24 20 -43 33 -57c21 -23 52 -35 93 -35c42 0 73 12 94 35c21 22 35 55 43 100s12 112 12 203zM273 727
l-5 5l140 153c15 15 29 23 42 23c23 0 40 -19 40 -40c0 -14 -7 -25 -21 -32z" />
    <glyph glyph-name="oslashacute" unicode="&#x1ff;" horiz-adv-x="524" 
d="M104 -26l-13 7l37 56c-53 40 -85 105 -85 176c0 61 21 113 64 156c43 44 95 66 154 66c41 0 79 -11 114 -33l33 50l12 -6l-34 -51c59 -41 95 -109 95 -182c0 -61 -22 -114 -65 -157s-94 -65 -155 -65c-43 0 -84 12 -121 37zM361 213c0 55 -3 99 -10 130l-178 -265
c5 -23 14 -41 26 -54c14 -14 35 -21 62 -21c29 0 50 7 63 21c25 25 37 88 37 189zM163 213c0 -49 2 -87 6 -115l177 262c-5 17 -12 31 -22 42c-13 14 -34 21 -63 21c-27 0 -48 -7 -62 -21c-24 -26 -36 -89 -36 -189zM193 504l-5 5l140 153c15 15 29 23 42 23
c23 0 40 -19 40 -40c0 -14 -7 -25 -21 -32z" />
    <glyph glyph-name="Scommaaccent" unicode="&#x218;" horiz-adv-x="508" 
d="M486 214c0 -59 -19 -113 -58 -160s-91 -70 -158 -70c-23 0 -53 6 -90 19s-59 20 -68 20c-25 0 -46 -17 -49 -36h-12v226h12c0 -26 9 -56 26 -89s42 -63 75 -90c33 -26 68 -39 105 -39c99 0 147 51 147 118c0 47 -9 73 -46 100c-18 13 -37 24 -56 33s-50 21 -91 36
c-99 37 -152 85 -152 188c0 61 17 111 52 152s77 61 124 61c19 0 40 -4 61 -13c22 -8 41 -12 57 -12c23 0 35 7 38 22h10v-175h-10c0 45 -15 83 -46 116s-67 50 -109 50c-71 0 -114 -44 -114 -109c0 -67 45 -105 161 -149c67 -25 116 -52 146 -79s45 -67 45 -120zM336 -123
c0 -32 -11 -67 -34 -105c-23 -39 -50 -64 -83 -76l-5 13c15 5 29 16 43 33s21 34 21 49c0 19 -11 37 -34 54c-13 12 -20 28 -20 47c0 32 24 59 55 59c38 0 57 -25 57 -74z" />
    <glyph glyph-name="scommaaccent" unicode="&#x219;" horiz-adv-x="397" 
d="M370 139c0 -84 -62 -148 -158 -148c-24 0 -46 4 -67 13c-20 9 -35 14 -44 14c-17 0 -35 -11 -38 -19h-10v154h12c0 -43 14 -79 42 -108c28 -28 63 -42 105 -42c59 0 93 32 93 91c0 47 -31 65 -122 86c-81 17 -122 52 -122 116c0 43 13 77 39 102c27 25 58 37 93 37
c40 0 77 -19 92 -19c12 0 23 15 23 20h10v-124h-10c0 29 -13 55 -38 78s-51 35 -77 35c-47 0 -75 -27 -75 -79c0 -44 30 -59 121 -82c76 -19 131 -61 131 -125zM259 -123c0 -32 -11 -67 -34 -105c-23 -39 -50 -64 -83 -76l-5 13c15 5 29 16 43 33s21 34 21 49
c0 19 -11 37 -34 54c-13 12 -20 28 -20 47c0 32 24 59 55 59c38 0 57 -25 57 -74z" />
    <glyph glyph-name="dotlessj" unicode="&#x237;" horiz-adv-x="294" 
d="M216 426v-450c0 -207 -73 -292 -188 -292c-25 0 -47 8 -67 25s-30 37 -30 60c0 28 24 54 53 54c33 0 52 -17 52 -41c0 -16 -16 -32 -16 -53c0 -24 6 -31 29 -31c35 0 53 39 53 118v598h-65v12h179z" />
    <glyph glyph-name="circumflex" unicode="&#x2c6;" 
d="M318 507l-6 -8l-141 85l-130 -85l-6 8c32 33 78 93 139 182h4c25 -39 71 -100 140 -182z" />
    <glyph glyph-name="caron" unicode="&#x2c7;" 
d="M312 689l6 -8c-69 -82 -115 -143 -140 -182h-4c-61 89 -107 149 -139 182l6 8l130 -85z" />
    <glyph glyph-name="breve" unicode="&#x2d8;" 
d="M299 667h11c0 -64 -24 -155 -134 -155c-111 0 -133 91 -133 155h11c0 -31 15 -90 122 -90c108 0 123 59 123 90z" />
    <glyph glyph-name="dotaccent" unicode="&#x2d9;" 
d="M233 594c0 -31 -27 -56 -56 -56c-33 0 -58 24 -58 56c0 33 25 56 58 56c29 0 56 -24 56 -56z" />
    <glyph glyph-name="ring" unicode="&#x2da;" 
d="M269 610c0 -48 -44 -90 -92 -90s-92 42 -92 90c0 29 10 52 31 67c21 16 42 24 61 24s39 -8 60 -24c21 -15 32 -38 32 -67zM218 610c0 40 -5 65 -15 75c-12 11 -40 11 -51 0c-10 -11 -15 -36 -15 -75s5 -63 15 -74c11 -11 39 -11 51 0c10 10 15 35 15 74z" />
    <glyph glyph-name="ogonek" unicode="&#x2db;" 
d="M228 -148l8 -7c-29 -36 -65 -54 -107 -54c-53 0 -87 32 -87 77c0 51 50 98 150 141l6 -4c-56 -27 -87 -76 -87 -111c0 -47 24 -69 56 -69c25 0 45 9 61 27z" />
    <glyph glyph-name="tilde" unicode="&#x2dc;" 
d="M317 651h14c0 -31 -12 -58 -36 -81c-23 -22 -51 -33 -83 -33c-60 0 -89 60 -126 60c-28 0 -49 -27 -49 -60h-15c0 64 46 114 110 114c25 0 50 -10 75 -30c26 -19 46 -29 59 -29c29 0 51 24 51 59z" />
    <glyph glyph-name="hungarumlaut" unicode="&#x2dd;" 
d="M6 504l-5 5l140 153c15 15 29 23 42 23c23 0 40 -19 40 -40c0 -14 -7 -25 -21 -32zM141 504l-5 5l140 153c15 15 29 23 42 23c23 0 40 -19 40 -40c0 -14 -7 -25 -21 -32z" />
    <glyph glyph-name="pi" unicode="&#x3c0;" horiz-adv-x="560" 
d="M483 414h-6v-402h61v-12h-236v12h61v402h-163v-402h61v-12h-236v12h61v402h-17c-40 0 -55 -7 -58 -46h-11c3 45 17 58 69 58h415c48 0 61 4 65 37h11c0 -41 -26 -49 -77 -49z" />
    <glyph glyph-name="afii10023" unicode="&#x401;" horiz-adv-x="596" 
d="M572 220v-220h-537v12h86v643h-86v12h490v-201h-12c0 49 -14 93 -42 131c-27 39 -67 58 -120 58h-98v-306h22c69 0 112 59 112 128h13v-268h-13c0 69 -43 128 -112 128h-22v-325h101c69 0 120 21 155 62c35 42 52 91 52 146h11zM291 808c0 -39 -28 -69 -67 -69
c-35 0 -63 30 -63 69c0 35 28 63 63 63c39 0 67 -27 67 -63zM487 808c0 -39 -28 -69 -67 -69c-35 0 -63 30 -63 69c0 35 28 63 63 63c39 0 67 -27 67 -63z" />
    <glyph glyph-name="afii10051" unicode="&#x402;" horiz-adv-x="721" 
d="M484 -9c-79 0 -136 46 -136 109c0 41 30 77 71 77c37 0 70 -31 70 -68c0 -12 -5 -27 -15 -44s-15 -30 -15 -37c0 -16 8 -24 25 -24c40 0 66 38 66 91v119c0 117 -29 155 -112 155c-29 0 -55 -4 -77 -13v-162c-34 -20 -51 -51 -51 -94c0 -33 20 -66 60 -100h-227v12h86
v644h-13c-61 0 -108 -22 -139 -67c-31 -44 -47 -97 -47 -158h-10v236h582v-236h-9c0 61 -17 113 -50 158s-80 67 -142 67h-40v-286c29 8 54 12 77 12c157 0 243 -44 243 -176v-33c0 -109 -80 -182 -197 -182z" />
    <glyph glyph-name="afii10052" unicode="&#x403;" horiz-adv-x="546" 
d="M526 667v-229h-9c0 60 -16 111 -49 153c-33 43 -80 64 -143 64h-71v-643h87v-12h-305v12h85v643h-85v12h490zM442 854c0 -28 -17 -56 -51 -84c-33 -28 -93 -52 -179 -72l-3 11c63 15 111 62 130 102c20 40 43 78 67 78c21 0 36 -15 36 -35z" />
    <glyph glyph-name="afii10053" unicode="&#x404;" horiz-adv-x="656" 
d="M559 247v-261h-10c-3 13 -17 28 -41 28c-13 0 -39 -5 -78 -15s-67 -15 -85 -15c-85 0 -156 34 -214 103c-57 69 -86 151 -86 246s28 177 84 246c57 69 127 104 212 104c15 0 39 -4 73 -13c35 -8 59 -12 72 -12c25 0 43 11 46 22h11v-227h-11c0 47 -21 95 -63 144
c-41 49 -84 74 -128 74c-41 0 -72 -11 -94 -34c-36 -39 -55 -134 -56 -283h219v-12h-219v-9c0 -162 19 -263 56 -303c21 -23 53 -35 98 -35c54 0 101 26 142 78c41 53 62 111 62 174h10z" />
    <glyph glyph-name="afii10054" unicode="&#x405;" horiz-adv-x="508" 
d="M486 214c0 -59 -19 -113 -58 -160s-91 -70 -158 -70c-23 0 -53 6 -90 19s-59 20 -68 20c-25 0 -46 -17 -49 -36h-12v226h12c0 -26 9 -56 26 -89s42 -63 75 -90c33 -26 68 -39 105 -39c99 0 147 51 147 118c0 47 -9 73 -46 100c-18 13 -37 24 -56 33s-50 21 -91 36
c-99 37 -152 85 -152 188c0 61 17 111 52 152s77 61 124 61c19 0 40 -4 61 -13c22 -8 41 -12 57 -12c23 0 35 7 38 22h10v-175h-10c0 45 -15 83 -46 116s-67 50 -109 50c-71 0 -114 -44 -114 -109c0 -67 45 -105 161 -149c67 -25 116 -52 146 -79s45 -67 45 -120z" />
    <glyph glyph-name="afii10055" unicode="&#x406;" horiz-adv-x="375" 
d="M341 12v-12h-305v12h85v643h-85v12h305v-12h-87v-643h87z" />
    <glyph glyph-name="afii10056" unicode="&#x407;" horiz-adv-x="375" 
d="M341 12v-12h-305v12h85v643h-85v12h305v-12h-87v-643h87zM155 808c0 -39 -28 -69 -67 -69c-35 0 -63 30 -63 69c0 35 28 63 63 63c39 0 67 -27 67 -63zM351 808c0 -39 -28 -69 -67 -69c-35 0 -63 30 -63 69c0 35 28 63 63 63c39 0 67 -27 67 -63z" />
    <glyph glyph-name="afii10057" unicode="&#x408;" horiz-adv-x="476" 
d="M463 667v-12h-87v-498c0 -108 -76 -173 -189 -173c-42 0 -79 13 -112 40s-49 58 -49 93c0 48 36 83 71 83c37 0 69 -34 69 -71c0 -20 -7 -37 -22 -50s-22 -24 -22 -33c0 -29 32 -51 65 -51c45 0 57 21 57 77v583h-85v12h304z" />
    <glyph glyph-name="afii10058" unicode="&#x409;" horiz-adv-x="878" 
d="M605 0h-288v12h86v643h-106c-27 0 -37 -12 -37 -47v-223c0 -131 -8 -226 -24 -285c-21 -77 -49 -113 -117 -113c-32 0 -60 10 -84 31s-36 47 -36 78c0 41 30 77 71 77c37 0 70 -31 70 -68c0 -12 -5 -27 -15 -44s-15 -30 -15 -37c0 -16 8 -24 25 -24c24 0 45 14 56 27
c6 7 11 16 16 27c11 23 12 30 17 49c16 61 24 155 24 282v221c0 37 -8 49 -36 49h-46v12h456v-12h-87v-280h63c167 0 250 -57 250 -171c0 -123 -79 -204 -243 -204zM717 204c0 65 -9 108 -28 129s-53 31 -104 31h-50v-352h57c49 0 82 14 99 42c17 29 26 79 26 150z" />
    <glyph glyph-name="afii10059" unicode="&#x40a;" horiz-adv-x="930" 
d="M657 0h-278v12h76v349h-201v-349h77v-12h-295v12h85v643h-85v12h295v-12h-77v-282h201v282h-76v12h295v-12h-87v-282h63c167 0 250 -60 250 -179c0 -121 -78 -194 -243 -194zM769 194c0 66 -10 110 -29 133s-53 34 -103 34h-50v-349h57c50 0 83 13 100 38
c17 26 25 74 25 144z" />
    <glyph glyph-name="afii10060" unicode="&#x40b;" horiz-adv-x="832" 
d="M767 12v-12h-287v12h69v203c0 117 -28 155 -111 155c-29 0 -55 -4 -77 -13v-345h85v-12h-303v12h86v643h-13c-62 0 -109 -21 -140 -64c-31 -42 -46 -93 -46 -153h-10v229h582v-229h-9c0 60 -16 111 -49 153c-33 43 -80 64 -143 64h-40v-285c29 8 54 12 77 12
c157 0 243 -44 243 -176v-194h86z" />
    <glyph glyph-name="afii10061" unicode="&#x40c;" horiz-adv-x="658" 
d="M649 35l9 -9c-21 -22 -49 -33 -84 -33c-43 0 -82 15 -116 45c-33 30 -50 76 -50 138v52c0 83 -37 114 -125 114h-29v-330h77v-12h-295v12h85v643h-85v12h295v-12h-77v-301h39c49 0 78 48 83 96c1 7 2 19 3 38c2 19 4 33 5 44c4 36 17 89 43 111c21 21 46 32 75 32
c53 0 94 -27 94 -92c0 -41 -27 -72 -66 -72s-66 29 -66 64c0 13 5 26 14 39c10 14 15 24 15 30c0 7 -4 10 -12 10c-14 0 -28 -7 -43 -22c-17 -17 -28 -36 -35 -67c-3 -15 -6 -27 -7 -36s-3 -23 -4 -43s-2 -32 -3 -36c-6 -53 -26 -86 -61 -99c144 0 216 -62 216 -186v-76
c0 -47 22 -74 55 -74c22 0 39 7 50 20zM481 854c0 -28 -17 -56 -51 -84c-33 -28 -93 -52 -179 -72l-3 11c63 15 111 62 130 102c20 40 43 78 67 78c21 0 36 -15 36 -35z" />
    <glyph glyph-name="afii10062" unicode="&#x40e;" horiz-adv-x="611" 
d="M214 655l156 -382l143 343c11 26 7 39 -12 39h-77v12h201v-12h-61c-15 0 -28 -13 -39 -39l-221 -533c-28 -66 -68 -99 -119 -99c-40 0 -72 13 -97 39s-37 56 -37 91c0 49 34 79 73 79c40 0 66 -24 66 -63c0 -25 -16 -48 -48 -68c-10 -6 -15 -14 -15 -24
c0 -21 22 -42 58 -42c41 0 81 29 106 88l20 48l-236 523h-89v12h328v-12h-100zM500 818c0 -31 -15 -55 -46 -72s-65 -25 -102 -25c-39 0 -74 8 -103 24c-29 17 -43 41 -43 73s26 60 58 60c27 0 51 -20 51 -45c0 -14 -8 -26 -24 -37c-16 -10 -24 -19 -24 -27
c0 -23 40 -36 85 -36c47 0 87 13 87 36c0 5 -9 15 -26 28c-15 10 -23 22 -23 36c0 27 25 45 52 45c32 0 58 -28 58 -60z" />
    <glyph glyph-name="afii10145" unicode="&#x40f;" horiz-adv-x="710" 
d="M347 -11v11h-311v12h85v643h-85v12h295v-12h-77v-643h201v643h-76v12h295v-12h-85v-643h85v-12h-315v-11c0 -20 10 -42 30 -65s30 -46 30 -67c0 -37 -29 -68 -65 -68c-37 0 -66 29 -66 68c0 20 10 42 29 66c20 23 30 45 30 66z" />
    <glyph glyph-name="afii10017" unicode="&#x410;" horiz-adv-x="604" 
d="M148 232h190l-92 282zM71 51l221 629h18l243 -668h85v-12h-313v12h86l-67 208h-200l-61 -169c-13 -33 -8 -39 -3 -39h82v-12h-182v12h57c13 0 25 13 34 39z" />
    <glyph glyph-name="afii10018" unicode="&#x411;" horiz-adv-x="600" 
d="M560 199c0 -120 -73 -199 -225 -199h-299v12h85v643h-85v12h484v-196h-11c0 47 -16 90 -48 127c-31 38 -74 57 -127 57h-80v-278h71c153 0 235 -65 235 -178zM428 199c0 67 -8 111 -24 133s-49 33 -98 33h-52v-353h58c48 0 79 13 94 40s22 76 22 147z" />
    <glyph glyph-name="afii10019" unicode="&#x412;" horiz-adv-x="600" 
d="M560 177c0 -48 -19 -90 -56 -125s-90 -52 -157 -52h-311v12h85v643h-85v12h268c128 0 213 -54 213 -154c0 -44 -16 -81 -48 -112c-31 -30 -67 -45 -108 -45c57 0 104 -16 142 -49c38 -32 57 -75 57 -130zM397 509c0 56 -7 94 -22 115s-43 31 -86 31h-35v-294h65
c31 0 52 10 62 30c11 20 16 59 16 118zM428 171c0 74 -8 122 -24 145c-15 23 -47 34 -94 34h-56v-338h69c42 0 70 11 84 33s21 64 21 126z" />
    <glyph glyph-name="afii10020" unicode="&#x413;" horiz-adv-x="546" 
d="M526 667v-229h-9c0 60 -16 111 -49 153c-33 43 -80 64 -143 64h-71v-643h87v-12h-305v12h85v643h-85v12h490z" />
    <glyph glyph-name="afii10021" unicode="&#x414;" horiz-adv-x="628" 
d="M603 12v-230h-11c0 65 -17 117 -51 158c-33 40 -78 60 -133 60h-205c-55 0 -100 -20 -134 -60c-33 -41 -50 -93 -50 -158h-12v230h76c48 45 78 117 90 214c7 49 11 92 12 129c2 37 3 84 3 141v108c0 40 -8 51 -32 51h-62v12h498v-12h-85v-643h96zM97 12h276v643h-139
c-27 0 -34 -11 -34 -51v-108c0 -57 -1 -103 -3 -140c-1 -36 -5 -79 -11 -128c-12 -99 -41 -169 -89 -216z" />
    <glyph glyph-name="afii10022" unicode="&#x415;" horiz-adv-x="596" 
d="M572 220v-220h-537v12h86v643h-86v12h490v-201h-12c0 49 -14 93 -42 131c-27 39 -67 58 -120 58h-98v-306h22c69 0 112 59 112 128h13v-268h-13c0 69 -43 128 -112 128h-22v-325h101c69 0 120 21 155 62c35 42 52 91 52 146h11z" />
    <glyph glyph-name="afii10024" unicode="&#x416;" horiz-adv-x="919" 
d="M394 655h-77v12h285v-12h-77v-301h29c49 0 78 48 83 96c1 7 2 19 3 38c2 19 4 33 5 44c4 36 17 89 43 111c21 21 46 32 75 32c53 0 94 -27 94 -92c0 -41 -27 -72 -66 -72s-66 29 -66 64c0 13 5 26 14 39c10 14 15 24 15 30c0 7 -4 10 -12 10c-14 0 -28 -7 -43 -22
c-17 -17 -28 -36 -35 -67c-3 -15 -6 -27 -7 -36s-3 -23 -4 -43s-2 -32 -3 -36c-6 -53 -26 -86 -61 -99c144 0 216 -62 216 -186v-77c0 -47 22 -75 55 -75c21 0 38 7 51 21l8 -9c-21 -22 -49 -33 -84 -33c-43 0 -82 15 -115 45s-50 76 -50 138v53c0 81 -38 114 -126 114h-19
v-330h77v-12h-285v12h77v330h-19c-88 0 -126 -33 -126 -114v-53c0 -62 -17 -108 -50 -138s-72 -45 -115 -45c-35 0 -63 11 -84 33l8 9c13 -14 30 -21 51 -21c33 0 55 28 55 75v77c0 124 72 186 216 186c-35 13 -55 46 -61 99c-1 4 -2 16 -3 36s-3 34 -4 43s-4 21 -7 36
c-7 31 -18 50 -35 67c-15 15 -29 22 -43 22c-8 0 -12 -3 -12 -10c0 -6 5 -16 14 -30c10 -13 15 -26 15 -39c0 -35 -27 -64 -66 -64s-66 31 -66 72c0 65 41 92 94 92c29 0 54 -11 75 -32s36 -66 40 -87c2 -11 4 -30 6 -59c3 -28 4 -44 5 -47c5 -48 34 -96 83 -96h29v301z" />
    <glyph glyph-name="afii10025" unicode="&#x417;" horiz-adv-x="527" 
d="M487 177c0 -89 -73 -193 -262 -193c-51 0 -94 13 -130 39c-35 27 -53 62 -53 106c0 47 35 83 78 83c36 0 61 -26 61 -62c0 -31 -20 -56 -61 -73c-11 -5 -16 -14 -16 -28c0 -11 12 -22 35 -35s52 -19 86 -19c91 0 132 53 132 176c0 75 -7 124 -22 146s-46 33 -95 33h-69
v11h78c36 0 61 10 74 31s20 60 20 117c0 61 -6 104 -19 127s-42 35 -87 35c-42 0 -79 -18 -111 -53s-48 -77 -48 -124h-10v186h10c3 -15 15 -22 38 -22c11 0 30 4 57 12c28 9 50 13 65 13c66 0 120 -16 161 -47c42 -31 63 -72 63 -123c0 -43 -19 -80 -58 -111
s-82 -46 -130 -46c133 0 213 -67 213 -179z" />
    <glyph glyph-name="afii10026" unicode="&#x418;" horiz-adv-x="710" 
d="M674 12v-12h-295v12h76v519l-201 -416v-103h77v-12h-295v12h85v643h-85v12h295v-12h-77v-508l201 417v91h-76v12h295v-12h-85v-643h85z" />
    <glyph glyph-name="afii10027" unicode="&#x419;" horiz-adv-x="710" 
d="M674 12v-12h-295v12h76v519l-201 -416v-103h77v-12h-295v12h85v643h-85v12h295v-12h-77v-508l201 417v91h-76v12h295v-12h-85v-643h85zM515 818c0 -31 -15 -55 -46 -72s-65 -25 -102 -25c-39 0 -74 8 -103 24c-29 17 -43 41 -43 73s26 60 58 60c27 0 51 -20 51 -45
c0 -14 -8 -26 -24 -37c-16 -10 -24 -19 -24 -27c0 -23 40 -36 85 -36c47 0 87 13 87 36c0 5 -9 15 -26 28c-15 10 -23 22 -23 36c0 27 25 45 52 45c32 0 58 -28 58 -60z" />
    <glyph glyph-name="afii10028" unicode="&#x41a;" horiz-adv-x="658" 
d="M649 35l9 -9c-21 -22 -49 -33 -84 -33c-43 0 -82 15 -116 45c-33 30 -50 76 -50 138v52c0 83 -37 114 -125 114h-29v-330h77v-12h-295v12h85v643h-85v12h295v-12h-77v-301h39c49 0 78 48 83 96c1 7 2 19 3 38c2 19 4 33 5 44c4 36 17 89 43 111c21 21 46 32 75 32
c53 0 94 -27 94 -92c0 -41 -27 -72 -66 -72s-66 29 -66 64c0 13 5 26 14 39c10 14 15 24 15 30c0 7 -4 10 -12 10c-14 0 -28 -7 -43 -22c-17 -17 -28 -36 -35 -67c-3 -15 -6 -27 -7 -36s-3 -23 -4 -43s-2 -32 -3 -36c-6 -53 -26 -86 -61 -99c144 0 216 -62 216 -186v-76
c0 -47 22 -74 55 -74c22 0 39 7 50 20z" />
    <glyph glyph-name="afii10029" unicode="&#x41b;" horiz-adv-x="678" 
d="M642 12v-12h-304v12h85v643h-126c-27 0 -37 -12 -37 -47v-223c0 -131 -8 -226 -24 -285c-21 -77 -49 -113 -117 -113c-32 0 -60 10 -84 31s-36 47 -36 78c0 41 30 77 71 77c37 0 70 -31 70 -68c0 -12 -5 -27 -15 -44s-15 -30 -15 -37c0 -16 8 -24 25 -24
c24 0 45 14 56 27c6 7 11 16 16 27c11 23 12 30 17 49c16 61 24 155 24 282v221c0 37 -8 49 -36 49h-46v12h476v-12h-85v-643h85z" />
    <glyph glyph-name="afii10030" unicode="&#x41c;" horiz-adv-x="830" 
d="M31 0v12h53c22 0 33 10 33 29v614h-86v12h224l168 -469l150 469h221v-12h-85v-643h85v-12h-304v12h85v624l-205 -648h-10l-231 650v-597c0 -19 11 -29 34 -29h59v-12h-191z" />
    <glyph glyph-name="afii10031" unicode="&#x41d;" horiz-adv-x="710" 
d="M674 12v-12h-295v12h76v330h-201v-330h77v-12h-295v12h85v643h-85v12h295v-12h-77v-301h201v301h-76v12h295v-12h-85v-643h85z" />
    <glyph glyph-name="afii10032" unicode="&#x41e;" horiz-adv-x="683" 
d="M45 333c0 95 28 177 84 246c57 69 127 104 212 104c81 0 151 -34 209 -103c58 -68 87 -150 87 -247s-29 -179 -87 -247s-128 -102 -209 -102s-151 34 -209 102s-87 150 -87 247zM490 333c0 163 -18 265 -55 304c-22 23 -53 34 -94 34s-72 -11 -93 -34
c-37 -39 -56 -141 -56 -304c0 -90 4 -157 12 -202c9 -45 23 -78 44 -101s52 -35 93 -35c42 0 73 12 94 35c21 22 35 55 43 100s12 112 12 203z" />
    <glyph glyph-name="afii10033" unicode="&#x41f;" horiz-adv-x="710" 
d="M674 12v-12h-295v12h76v643h-201v-643h77v-12h-295v12h85v643h-85v12h638v-12h-85v-643h85z" />
    <glyph glyph-name="afii10034" unicode="&#x420;" horiz-adv-x="584" 
d="M556 466c0 -115 -82 -183 -223 -183c-25 0 -51 4 -78 12v-283h86v-12h-305v12h85v643h-85v12h268c80 0 142 -19 186 -56s66 -86 66 -145zM423 466c0 136 -34 189 -119 189h-49v-345c21 -10 47 -15 78 -15c41 0 67 10 76 31s14 67 14 140z" />
    <glyph glyph-name="afii10035" unicode="&#x421;" horiz-adv-x="610" 
d="M559 247v-261h-10c-3 13 -17 28 -41 28c-13 0 -39 -5 -78 -15s-67 -15 -85 -15c-85 0 -156 34 -214 103c-57 69 -86 151 -86 246s28 177 84 246c57 69 127 104 212 104c15 0 39 -4 73 -13c35 -8 59 -12 72 -12c25 0 43 11 46 22h11v-227h-11c0 47 -21 95 -63 144
c-41 49 -84 74 -128 74c-41 0 -72 -11 -94 -34c-37 -40 -56 -141 -56 -304c0 -162 19 -263 56 -303c21 -23 53 -35 98 -35c54 0 101 26 142 78c41 53 62 111 62 174h10z" />
    <glyph glyph-name="afii10036" unicode="&#x422;" horiz-adv-x="613" 
d="M593 667v-229h-11c0 60 -16 111 -49 153c-33 43 -80 64 -143 64h-19v-643h84v-12h-303v12h86v643h-20c-62 0 -109 -21 -140 -64c-31 -42 -46 -93 -46 -153h-12v229h573z" />
    <glyph glyph-name="afii10037" unicode="&#x423;" horiz-adv-x="611" 
d="M214 655l156 -382l143 343c11 26 7 39 -12 39h-77v12h201v-12h-61c-15 0 -28 -13 -39 -39l-221 -533c-28 -66 -68 -99 -119 -99c-40 0 -72 13 -97 39s-37 56 -37 91c0 49 34 79 73 79c40 0 66 -24 66 -63c0 -25 -16 -48 -48 -68c-10 -6 -15 -14 -15 -24
c0 -21 22 -42 58 -42c41 0 81 29 106 88l20 48l-236 523h-89v12h328v-12h-100z" />
    <glyph glyph-name="afii10038" unicode="&#x424;" horiz-adv-x="822" 
d="M537 71h-60v-59h77v-12h-287v12h77v59h-60c-66 0 -124 25 -173 76s-73 113 -73 186c0 74 24 136 73 187s107 77 173 77h60v58h-77v12h287v-12h-77v-58h60c66 0 124 -26 173 -77s74 -114 74 -187s-25 -135 -74 -186s-107 -76 -173 -76zM639 333c0 59 -6 108 -23 163
c-16 55 -52 89 -101 89h-38v-503h38c83 0 124 84 124 251zM307 82h37v503h-37c-51 0 -86 -34 -102 -89s-22 -104 -22 -163c0 -167 41 -251 124 -251z" />
    <glyph glyph-name="afii10039" unicode="&#x425;" horiz-adv-x="650" 
d="M443 12l-149 277l-139 -237c-16 -27 -14 -40 6 -40h56v-12h-187v12h58c20 0 38 13 54 40l148 250l-196 353h-91v12h328v-12h-93l131 -245l121 205c21 36 10 40 -5 40h-58v12h187v-12h-59c-20 0 -38 -13 -53 -40l-127 -216l211 -387h93v-12h-329v12h93z" />
    <glyph glyph-name="afii10040" unicode="&#x426;" horiz-adv-x="710" 
d="M685 12v-230h-9c0 65 -17 117 -51 158c-33 40 -78 60 -133 60h-456v12h85v643h-85v12h295v-12h-77v-643h201v643h-76v12h295v-12h-85v-643h96z" />
    <glyph glyph-name="afii10041" unicode="&#x427;" horiz-adv-x="680" 
d="M644 12v-12h-314v12h94v285c-27 -8 -53 -12 -76 -12c-159 0 -244 44 -244 176v194h-85v12h287v-12h-69v-203c0 -117 28 -155 111 -155c29 0 55 4 76 13v345h-70v12h290v-12h-85v-643h85z" />
    <glyph glyph-name="afii10042" unicode="&#x428;" horiz-adv-x="979" 
d="M943 12v-12h-907v12h81v643h-81v12h281v-12h-68v-643h173v643h-66v12h266v-12h-66v-643h172v643h-66v12h281v-12h-80v-643h80z" />
    <glyph glyph-name="afii10043" unicode="&#x429;" horiz-adv-x="984" 
d="M959 12v-230h-9c0 65 -17 117 -51 158c-33 40 -78 60 -133 60h-730v12h81v643h-81v12h281v-12h-68v-643h173v643h-66v12h266v-12h-66v-643h172v643h-66v12h281v-12h-80v-643h96z" />
    <glyph glyph-name="afii10044" unicode="&#x42a;" horiz-adv-x="685" 
d="M655 204c0 -123 -80 -204 -244 -204h-288v12h86v643c-57 0 -101 -23 -133 -68c-31 -45 -47 -97 -47 -156h-10v236h409v-12h-86v-262h63c167 0 250 -72 250 -189zM523 204c0 67 -10 114 -29 139c-19 26 -54 39 -103 39h-49v-370h56c50 0 83 14 100 42c17 29 25 79 25 150z
" />
    <glyph glyph-name="afii10045" unicode="&#x42b;" horiz-adv-x="904" 
d="M868 12v-12h-305v12h85v643h-85v12h305v-12h-87v-643h87zM557 204c0 -123 -79 -204 -243 -204h-278v12h85v643h-85v12h305v-12h-87v-262h53c167 0 250 -72 250 -189zM426 204c0 67 -10 114 -29 139c-19 26 -54 39 -103 39h-40v-370h47c49 0 82 14 99 42
c17 29 26 79 26 150z" />
    <glyph glyph-name="afii10046" unicode="&#x42c;" horiz-adv-x="597" 
d="M567 204c0 -123 -79 -204 -243 -204h-288v12h85v643h-85v12h305v-12h-87v-262h63c167 0 250 -72 250 -189zM436 204c0 67 -10 114 -29 139c-19 26 -54 39 -103 39h-50v-370h57c49 0 82 14 99 42c17 29 26 79 26 150z" />
    <glyph glyph-name="afii10047" unicode="&#x42d;" horiz-adv-x="618" 
d="M572 333c0 -95 -29 -177 -87 -246c-57 -69 -128 -103 -213 -103c-49 0 -95 16 -139 47s-66 70 -66 115c0 47 34 84 78 84c37 0 60 -24 60 -63c0 -26 -14 -47 -42 -63c-20 -10 -37 -15 -37 -33c0 -13 16 -29 47 -48c32 -19 65 -28 99 -28c45 0 77 12 98 35
c37 40 56 141 56 303v9h-219v12h219c-2 151 -21 245 -56 283c-25 27 -45 34 -85 34c-45 0 -87 -22 -127 -66c-39 -44 -59 -89 -59 -136h-11v211h11c3 -12 19 -26 43 -26c13 0 37 5 70 14c33 10 58 15 73 15c83 0 152 -34 206 -103s81 -151 81 -247z" />
    <glyph glyph-name="afii10048" unicode="&#x42e;" horiz-adv-x="994" 
d="M651 -16c-81 0 -151 34 -209 102s-87 150 -86 247v8h-102v-329h77v-12h-295v12h85v643h-85v12h295v-12h-77v-302h103c5 91 35 168 90 233c56 65 124 97 204 97c82 0 152 -34 210 -103c58 -68 87 -150 87 -247s-29 -179 -87 -247s-128 -102 -210 -102zM801 333
c0 163 -19 265 -56 304c-21 23 -52 34 -94 34c-39 0 -70 -11 -92 -34c-38 -42 -57 -143 -57 -304c0 -90 4 -157 13 -202s23 -78 44 -101s51 -35 92 -35c43 0 74 12 94 35c21 22 35 55 43 99c9 45 13 113 13 204z" />
    <glyph glyph-name="afii10049" unicode="&#x42f;" horiz-adv-x="630" 
d="M594 12v-12h-305v12h86v310h-27c-87 0 -130 -30 -130 -110v-37c0 -62 -17 -108 -50 -138s-72 -45 -115 -45c-35 0 -63 11 -84 33l8 9c13 -15 29 -22 50 -22c35 0 56 28 56 76v67c0 100 59 173 178 173c-47 0 -88 17 -123 50c-34 33 -51 72 -51 116c0 48 20 89 59 122
c40 34 93 51 158 51h290v-12h-86v-643h86zM325 334h50v321h-48c-42 0 -70 -12 -85 -37c-15 -24 -22 -67 -22 -128s7 -103 20 -124s42 -32 85 -32z" />
    <glyph glyph-name="afii10065" unicode="&#x430;" horiz-adv-x="472" 
d="M459 38l8 -7c-9 -17 -45 -39 -81 -39c-44 0 -91 30 -98 66c-15 -44 -48 -66 -101 -66c-41 0 -76 8 -106 25c-29 17 -44 44 -44 80c0 73 48 115 145 124c37 3 49 5 72 9c24 4 32 10 32 21v79c0 75 -21 96 -62 96c-35 0 -53 -15 -53 -46c0 -12 8 -31 8 -42
c0 -23 -17 -40 -50 -40c-32 0 -49 22 -49 50c0 21 14 41 42 60c29 19 63 28 102 28c111 0 176 -60 176 -181v-206c0 -23 8 -34 23 -34c11 0 23 8 36 23zM286 115v114c-12 -7 -30 -11 -39 -14c-9 -1 -38 -4 -45 -5c-37 -8 -51 -33 -51 -121c0 -57 10 -81 54 -81
c48 0 81 47 81 107z" />
    <glyph glyph-name="afii10066" unicode="&#x431;" horiz-adv-x="517" 
d="M477 209c0 -61 -21 -113 -63 -155c-41 -42 -92 -63 -153 -63c-62 0 -113 22 -154 66c-40 45 -60 107 -60 186c0 99 9 177 26 233c18 56 44 102 79 139c43 45 118 71 225 78c45 3 69 17 71 42h12c-7 -53 -26 -93 -56 -120c-31 -28 -81 -37 -122 -40
c-40 -1 -102 -24 -151 -72c-45 -43 -68 -119 -71 -228h2c28 91 104 152 199 152c64 0 116 -21 156 -63c40 -41 60 -93 60 -155zM357 209c0 100 -11 162 -33 185c-13 14 -34 21 -63 21c-27 0 -48 -7 -62 -21c-21 -23 -32 -84 -32 -185s11 -162 32 -185c14 -14 35 -21 62 -21
c29 0 50 7 63 21c22 23 33 84 33 185z" />
    <glyph glyph-name="afii10067" unicode="&#x432;" horiz-adv-x="510" 
d="M481 114c0 -63 -63 -114 -164 -114h-286v12h65v402h-65v12h284c83 0 142 -32 142 -99c0 -23 -12 -45 -35 -66c-23 -20 -49 -31 -80 -34c84 -5 139 -53 139 -113zM352 325c0 63 -19 89 -79 89h-63v-183h83c45 0 59 27 59 94zM362 109c0 47 -5 77 -16 90s-32 20 -64 20h-72
v-207h73c57 0 79 25 79 97z" />
    <glyph glyph-name="afii10068" unicode="&#x433;" horiz-adv-x="429" 
d="M414 426v-171h-10c0 41 -14 78 -41 110c-27 33 -64 49 -111 49h-40v-402h80v-12h-259v12h65v402h-65v12h381z" />
    <glyph glyph-name="afii10069" unicode="&#x434;" horiz-adv-x="484" 
d="M141 297v66c0 34 -8 51 -25 51h-34v12h377v-12h-65v-402h65v-165h-10c0 41 -14 76 -41 107s-64 46 -111 46h-129c-47 0 -84 -15 -111 -46s-41 -66 -41 -107h-10v165h51c49 52 84 160 84 285zM153 363v-66c0 -124 -34 -230 -83 -285h210v402h-102c-19 0 -25 -11 -25 -51z
" />
    <glyph glyph-name="afii10070" unicode="&#x435;" horiz-adv-x="496" 
d="M460 239v-3h-296v-23c2 -163 19 -204 102 -210c72 0 136 38 175 91l8 -8c-39 -57 -110 -95 -183 -95c-60 0 -112 22 -157 65c-44 44 -66 96 -66 157s22 113 66 156c45 44 97 66 157 66c41 0 76 -12 107 -36c63 -47 87 -109 87 -160zM164 248h191c-1 78 -12 129 -34 154
c-11 14 -30 21 -55 21c-28 0 -49 -7 -63 -21c-25 -25 -38 -77 -39 -154z" />
    <glyph glyph-name="afii10072" unicode="&#x436;" horiz-adv-x="740" 
d="M487 12v-12h-234v12h60v207h-44c-53 0 -70 -19 -70 -74v-37c0 -39 -12 -68 -37 -87s-52 -28 -82 -28c-35 0 -64 12 -86 35l8 9c13 -15 28 -23 44 -23c23 0 37 30 37 73v18c0 82 52 123 157 123c-27 8 -46 44 -56 108c-9 53 -26 79 -51 79c-5 0 -8 -3 -8 -10
c0 -4 20 -26 20 -45c0 -27 -19 -49 -52 -49s-49 25 -49 56c0 43 32 64 68 64c31 0 51 -9 62 -29c12 -20 16 -33 21 -61c5 -32 8 -47 19 -72c12 -25 29 -38 56 -38h43v183h-60v12h234v-12h-60v-183h43c27 0 44 13 55 38c12 25 15 40 20 72c5 28 9 41 20 61c12 20 32 29 63 29
c36 0 68 -21 68 -64c0 -31 -16 -56 -49 -56s-52 22 -52 49c0 19 20 41 20 45c0 7 -3 10 -8 10c-25 0 -42 -26 -51 -79c-10 -64 -29 -100 -56 -108c105 0 157 -41 157 -123v-18c0 -43 14 -73 37 -73c16 0 31 8 44 23l8 -9c-22 -23 -51 -35 -86 -35c-30 0 -57 9 -82 28
s-37 48 -37 87v37c0 55 -17 74 -70 74h-44v-207h60z" />
    <glyph glyph-name="afii10073" unicode="&#x437;" horiz-adv-x="423" 
d="M378 119c0 -35 -18 -65 -54 -90c-35 -25 -82 -38 -141 -38c-93 0 -154 44 -154 88c0 28 17 53 49 53c33 0 50 -19 50 -43c0 -11 -8 -30 -8 -42c0 -25 34 -44 59 -44c55 0 78 30 78 106c0 47 -5 77 -14 90s-29 20 -60 20h-56v13h60c45 0 61 21 61 93c0 71 -21 99 -70 99
c-25 0 -50 -13 -73 -39s-34 -54 -34 -83h-10v135h10c0 -5 10 -17 22 -17c7 0 22 2 43 7s42 8 62 8c99 0 163 -45 163 -108c0 -25 -13 -48 -38 -69s-55 -31 -90 -31c91 0 145 -49 145 -108z" />
    <glyph glyph-name="afii10074" unicode="&#x438;" horiz-adv-x="587" 
d="M556 12v-12h-239v12h60v349l-167 -313v-36h60v-12h-239v12h65v402h-65v12h239v-12h-60v-338l167 313v25h-60v12h239v-12h-65v-402h65z" />
    <glyph glyph-name="afii10075" unicode="&#x439;" horiz-adv-x="587" 
d="M556 12v-12h-239v12h60v349l-167 -313v-36h60v-12h-239v12h65v402h-65v12h239v-12h-60v-338l167 313v25h-60v12h239v-12h-65v-402h65zM441 591c0 -31 -15 -55 -46 -72s-65 -25 -102 -25c-39 0 -74 8 -103 24c-29 17 -43 41 -43 73s26 60 58 60c27 0 51 -20 51 -45
c0 -14 -8 -26 -24 -37c-16 -10 -24 -19 -24 -27c0 -23 34 -36 85 -36c58 0 87 12 87 36c0 5 -9 15 -26 28c-15 10 -23 22 -23 36c0 27 25 45 52 45c32 0 58 -28 58 -60z" />
    <glyph glyph-name="afii10076" unicode="&#x43a;" horiz-adv-x="534" 
d="M261 219h-51v-207h60v-12h-239v12h65v402h-65v12h239v-12h-60v-183h50c27 0 44 13 55 38c12 25 15 40 20 72c5 28 9 41 20 61c12 20 32 29 63 29c36 0 68 -21 68 -64c0 -31 -16 -56 -49 -56s-52 22 -52 49c0 19 20 41 20 45c0 7 -3 10 -8 10c-25 0 -42 -26 -51 -79
c-10 -64 -29 -100 -56 -108c105 0 157 -41 157 -123v-18c0 -43 14 -73 37 -73c16 0 31 8 44 23l8 -9c-22 -23 -51 -35 -86 -35c-30 0 -57 9 -82 28s-37 48 -37 87v37c0 55 -17 74 -70 74z" />
    <glyph glyph-name="afii10077" unicode="&#x43b;" horiz-adv-x="507" 
d="M476 12v-12h-249v12h70v402h-89c-21 0 -33 -2 -33 -43v-125c0 -81 -3 -131 -15 -180s-37 -74 -74 -74c-52 0 -78 26 -78 77c0 32 23 56 55 56c29 0 49 -21 49 -49c0 -20 -23 -40 -23 -49c0 -10 6 -15 18 -15c9 0 17 5 25 16c16 23 31 95 31 208v135c0 29 -8 43 -24 43
h-45v12h382v-12h-65v-402h65z" />
    <glyph glyph-name="afii10078" unicode="&#x43c;" horiz-adv-x="676" 
d="M100 48v366h-69v12h180l132 -299l130 299h172v-12h-65v-402h65v-12h-240v12h61v370l-169 -390h-15l-170 388v-332c0 -31 7 -36 26 -36h35v-12h-142v12h43c17 0 26 12 26 36z" />
    <glyph glyph-name="afii10079" unicode="&#x43d;" horiz-adv-x="587" 
d="M556 12v-12h-239v12h60v207h-167v-207h60v-12h-239v12h65v402h-65v12h239v-12h-60v-183h167v183h-60v12h239v-12h-65v-402h65z" />
    <glyph glyph-name="afii10080" unicode="&#x43e;" horiz-adv-x="524" 
d="M261 -9c-59 0 -111 22 -154 65c-43 44 -64 96 -64 157s21 113 64 156c43 44 95 66 154 66c61 0 112 -22 155 -65s65 -96 65 -157s-22 -114 -65 -157s-94 -65 -155 -65zM324 402c-13 14 -34 21 -63 21c-27 0 -48 -7 -62 -21c-24 -26 -36 -89 -36 -189s12 -163 36 -189
c14 -14 35 -21 62 -21c29 0 50 7 63 21c25 25 37 88 37 189s-12 164 -37 189z" />
    <glyph glyph-name="afii10081" unicode="&#x43f;" horiz-adv-x="587" 
d="M556 12v-12h-239v12h60v402h-167v-402h60v-12h-239v12h65v402h-65v12h525v-12h-65v-402h65z" />
    <glyph glyph-name="afii10082" unicode="&#x440;" horiz-adv-x="563" 
d="M519 211c0 -58 -19 -109 -58 -153c-38 -44 -86 -66 -145 -66c-40 0 -86 21 -113 48v-336h65v-12h-243v12h65v710h-65v12h178v-35c20 24 59 44 98 44c59 0 110 -23 153 -70c43 -46 65 -97 65 -154zM398 211c0 81 -7 137 -21 167c-13 30 -39 45 -76 45
c-40 0 -86 -23 -98 -55v-298c19 -43 69 -67 113 -67c59 0 82 57 82 208z" />
    <glyph glyph-name="afii10083" unicode="&#x441;" horiz-adv-x="466" 
d="M429 102l8 -8c-48 -69 -107 -103 -176 -103c-59 0 -111 22 -154 65c-43 44 -64 96 -64 157s21 113 64 156c43 44 95 66 154 66c45 0 84 -13 117 -39s50 -53 50 -81c0 -31 -16 -46 -48 -46c-28 0 -46 17 -46 38c0 17 13 32 13 55c0 20 -8 35 -23 45c-15 11 -36 16 -63 16
s-47 -7 -61 -21c-27 -27 -36 -77 -36 -189s9 -162 36 -189c14 -14 34 -21 61 -21c67 0 123 33 168 99z" />
    <glyph glyph-name="afii10084" unicode="&#x442;" horiz-adv-x="464" 
d="M446 426v-171h-10c0 41 -12 78 -36 110c-24 33 -56 49 -96 49h-15v-402h70v-12h-254v12h70v402h-15c-41 0 -73 -16 -97 -49c-23 -32 -35 -69 -35 -110h-10v171h428z" />
    <glyph glyph-name="afii10085" unicode="&#x443;" horiz-adv-x="465" 
d="M405 372l-235 -608c-21 -54 -53 -81 -98 -81c-43 0 -76 37 -76 80c0 35 24 63 56 63c29 0 48 -19 48 -42c0 -16 -24 -40 -24 -56c0 -17 5 -25 14 -25c29 0 52 20 67 59l86 224l-207 428h-60v12h254v-12h-70l140 -288l94 246c11 28 6 42 -15 42h-43v12h153v-12h-37
c-25 0 -32 -5 -47 -42z" />
    <glyph glyph-name="afii10086" unicode="&#x444;" horiz-adv-x="757" 
d="M528 -9c-33 0 -76 15 -93 32v-319h65v-12h-243v12h65v319c-29 -21 -60 -32 -93 -32c-59 0 -105 21 -138 63c-32 42 -48 95 -48 159s16 117 48 159c33 42 79 63 138 63c39 0 70 -11 93 -33v321h-65v12h178v-333c23 22 54 33 93 33c59 0 105 -21 137 -63
c33 -42 49 -95 49 -159s-16 -117 -49 -159c-32 -42 -78 -63 -137 -63zM596 184v36c0 33 0 57 -1 74s-3 35 -6 54c-8 56 -29 69 -82 74c-23 0 -47 -12 -72 -35v-350c24 -23 48 -34 72 -34c33 0 56 15 68 32c7 9 11 23 14 40c7 36 7 57 7 109zM322 37v350
c-25 23 -49 35 -72 35c-35 0 -57 -14 -69 -31c-6 -9 -11 -23 -14 -43c-3 -19 -4 -37 -5 -54s-1 -41 -1 -74v-36c0 -52 1 -73 6 -109c9 -46 33 -72 83 -72c24 0 48 11 72 34z" />
    <glyph glyph-name="afii10087" unicode="&#x445;" horiz-adv-x="521" 
d="M343 12l-122 177l-112 -136c-30 -37 -19 -41 -9 -41h68v-12h-165v12h33c18 0 38 14 60 41l118 146l-146 215h-66v12h272v-12h-76l102 -149l84 107c31 37 9 42 3 42h-50v12h152v-12h-34c-17 0 -37 -14 -58 -42l-91 -117l168 -243h63v-12h-263v12h69z" />
    <glyph glyph-name="afii10088" unicode="&#x446;" horiz-adv-x="597" 
d="M572 12v-187h-10c0 42 -16 82 -49 119c-32 37 -73 56 -123 56h-359v12h65v402h-65v12h239v-12h-60v-402h167v402h-60v12h239v-12h-65v-402h81z" />
    <glyph glyph-name="afii10089" unicode="&#x447;" horiz-adv-x="544" 
d="M513 12v-12h-259v12h81v171c-27 -9 -55 -13 -82 -13c-62 0 -108 9 -139 27c-30 19 -45 56 -45 112v105h-59v12h228v-12h-55v-147c0 -68 17 -85 70 -85c32 0 59 5 82 14v218h-55v12h233v-12h-64v-402h64z" />
    <glyph glyph-name="afii10090" unicode="&#x448;" horiz-adv-x="832" 
d="M801 12v-12h-770v12h60v402h-60v12h227v-12h-55v-402h152v402h-55v12h222v-12h-55v-402h152v402h-55v12h237v-12h-70v-402h70z" />
    <glyph glyph-name="afii10091" unicode="&#x449;" horiz-adv-x="837" 
d="M812 12v-187h-10c0 42 -16 82 -49 119c-32 37 -73 56 -123 56h-599v12h60v402h-60v12h227v-12h-55v-402h152v402h-55v12h222v-12h-55v-402h152v402h-55v12h237v-12h-70v-402h81z" />
    <glyph glyph-name="afii10092" unicode="&#x44a;" horiz-adv-x="549" 
d="M414 132c0 84 -24 110 -84 110h-66v-230h70c59 0 80 33 80 120zM347 0h-262v12h65v402c-38 0 -68 -17 -90 -50c-21 -33 -32 -70 -32 -111h-13v173h320v-12h-71v-160h79c120 0 181 -46 181 -122c0 -79 -58 -132 -177 -132z" />
    <glyph glyph-name="afii10093" unicode="&#x44b;" horiz-adv-x="747" 
d="M716 12v-12h-239v12h60v402h-60v12h239v-12h-65v-402h65zM460 132c0 -79 -58 -132 -177 -132h-252v12h65v402h-65v12h250v-12h-71v-160h69c120 0 181 -46 181 -122zM350 132c0 84 -24 110 -84 110h-56v-230h60c59 0 80 33 80 120z" />
    <glyph glyph-name="afii10094" unicode="&#x44c;" horiz-adv-x="495" 
d="M470 132c0 -79 -58 -132 -177 -132h-262v12h65v402h-65v12h250v-12h-71v-160h79c120 0 181 -46 181 -122zM360 132c0 84 -24 110 -84 110h-66v-230h70c59 0 80 33 80 120z" />
    <glyph glyph-name="afii10095" unicode="&#x44d;" horiz-adv-x="466" 
d="M423 213c0 -61 -22 -113 -65 -157c-43 -43 -94 -65 -153 -65c-45 0 -84 12 -117 37c-32 25 -48 51 -48 79c0 31 15 46 46 46c28 0 46 -17 46 -38c0 -17 -13 -32 -13 -55c0 -39 29 -59 86 -59c27 0 47 7 61 21c27 27 36 79 36 191v6h-144v12h144c-1 91 -13 149 -36 172
c-14 14 -34 21 -61 21c-29 0 -57 -13 -84 -39c-27 -25 -40 -60 -40 -103h-10v145h10c0 -5 10 -17 22 -17c7 0 21 4 41 12c21 9 41 13 61 13c62 0 114 -22 155 -65c42 -43 63 -95 63 -157z" />
    <glyph glyph-name="afii10096" unicode="&#x44e;" horiz-adv-x="762" 
d="M499 -9c-60 0 -112 22 -155 65c-43 44 -64 96 -63 157v6h-71v-207h60v-12h-239v12h65v402h-65v12h239v-12h-60v-183h72c5 57 29 105 71 144c42 40 91 60 146 60c61 0 112 -22 155 -65s65 -96 65 -157s-22 -114 -65 -157s-94 -65 -155 -65zM562 402c-13 14 -34 21 -63 21
c-27 0 -48 -7 -62 -21c-24 -26 -36 -89 -36 -189s12 -163 36 -189c14 -14 35 -21 62 -21c29 0 50 7 63 21c25 25 37 88 37 189s-12 164 -37 189z" />
    <glyph glyph-name="afii10097" unicode="&#x44f;" horiz-adv-x="539" 
d="M508 12v-12h-239v12h60v189h-63c-45 0 -66 -17 -66 -68v-27c1 -114 -123 -152 -194 -75l8 9c14 -16 27 -24 40 -24c18 0 27 18 27 55v22c0 73 28 117 127 117c-75 0 -127 45 -127 105c0 31 15 58 44 79c30 21 68 32 113 32h270v-12h-65v-402h65zM268 213h61v201h-55
c-56 0 -79 -30 -79 -101c0 -72 17 -100 73 -100z" />
    <glyph glyph-name="afii10071" unicode="&#x451;" horiz-adv-x="496" 
d="M460 239v-3h-296v-23c2 -163 19 -204 102 -210c72 0 136 38 175 91l8 -8c-39 -57 -110 -95 -183 -95c-60 0 -112 22 -157 65c-44 44 -66 96 -66 157s22 113 66 156c45 44 97 66 157 66c41 0 76 -12 107 -36c63 -47 87 -109 87 -160zM164 248h191c-1 78 -12 129 -34 154
c-11 14 -30 21 -55 21c-28 0 -49 -7 -63 -21c-25 -25 -38 -77 -39 -154zM390 634c23 -21 23 -59 0 -80c-21 -21 -58 -21 -81 0s-23 59 0 80s60 21 81 0zM234 594c0 -31 -27 -56 -56 -56c-33 0 -58 24 -58 56c0 33 25 56 58 56c29 0 56 -24 56 -56z" />
    <glyph glyph-name="afii10099" unicode="&#x452;" horiz-adv-x="556" 
d="M495 268v-173c0 -194 -61 -291 -183 -291c-25 0 -49 8 -70 24c-21 15 -31 35 -31 58c0 28 24 54 53 54c33 0 52 -17 52 -41c0 -16 -16 -32 -16 -53c0 -24 6 -31 29 -31c34 0 51 39 51 118v388c0 68 -19 102 -58 102c-60 0 -94 -30 -117 -99v-312h63v-12h-243v12h65v529
h-65v12h65v170h-65v12h180v-182h195v-12h-195v-184c17 52 65 78 117 78c108 0 173 -62 173 -167z" />
    <glyph glyph-name="afii10100" unicode="&#x453;" horiz-adv-x="429" 
d="M414 426v-171h-10c0 41 -14 78 -41 110c-27 33 -64 49 -111 49h-40v-402h80v-12h-259v12h65v402h-65v12h381zM121 504l-5 5l140 153c15 15 29 23 42 23c23 0 40 -19 40 -40c0 -14 -7 -25 -21 -32z" />
    <glyph glyph-name="afii10101" unicode="&#x454;" horiz-adv-x="466" 
d="M261 -9c-59 0 -111 22 -154 65c-43 44 -64 96 -64 157c0 62 21 114 62 157c42 43 94 65 156 65c20 0 40 -4 60 -13c21 -8 35 -12 42 -12c12 0 22 12 22 17h10v-145h-10c0 43 -14 78 -41 103c-27 26 -54 39 -83 39c-27 0 -47 -7 -61 -21c-23 -23 -35 -81 -36 -172h144v-12
h-144v-6c0 -112 9 -164 36 -191c13 -13 33 -19 61 -19c67 0 123 33 168 99l8 -8c-48 -69 -107 -103 -176 -103z" />
    <glyph glyph-name="afii10102" unicode="&#x455;" horiz-adv-x="397" 
d="M370 139c0 -84 -62 -148 -158 -148c-24 0 -46 4 -67 13c-20 9 -35 14 -44 14c-17 0 -35 -11 -38 -19h-10v154h12c0 -43 14 -79 42 -108c28 -28 63 -42 105 -42c59 0 93 32 93 91c0 47 -31 65 -122 86c-81 17 -122 52 -122 116c0 43 13 77 39 102c27 25 58 37 93 37
c40 0 77 -19 92 -19c12 0 23 15 23 20h10v-124h-10c0 29 -13 55 -38 78s-51 35 -77 35c-47 0 -75 -27 -75 -79c0 -44 30 -59 121 -82c76 -19 131 -61 131 -125z" />
    <glyph glyph-name="afii10103" unicode="&#x456;" horiz-adv-x="307" 
d="M281 12v-12h-245v12h66v402h-66v12h180v-414h65zM223 598c0 -39 -28 -69 -67 -69c-35 0 -63 30 -63 69c0 35 28 63 63 63c39 0 67 -27 67 -63z" />
    <glyph glyph-name="afii10104" unicode="&#x457;" horiz-adv-x="307" 
d="M285 634c23 -21 23 -59 0 -80c-21 -21 -58 -21 -81 0s-23 59 0 80s60 21 81 0zM129 594c0 -31 -27 -56 -56 -56c-33 0 -58 24 -58 56c0 33 25 56 58 56c29 0 56 -24 56 -56zM281 12v-12h-245v12h66v402h-66v12h180v-414h65z" />
    <glyph glyph-name="afii10105" unicode="&#x458;" horiz-adv-x="294" 
d="M216 426v-450c0 -207 -73 -292 -188 -292c-25 0 -47 8 -67 25s-30 37 -30 60c0 28 24 54 53 54c33 0 52 -17 52 -41c0 -16 -16 -32 -16 -53c0 -24 6 -31 29 -31c35 0 53 39 53 118v598h-65v12h179zM224 598c0 -39 -28 -69 -67 -69c-35 0 -63 30 -63 69c0 35 28 63 63 63
c39 0 67 -27 67 -63z" />
    <glyph glyph-name="afii10106" unicode="&#x459;" horiz-adv-x="701" 
d="M561 132c0 84 -24 110 -84 110h-66v-230h70c57 0 80 33 80 120zM499 0h-272v12h70v402h-89c-21 0 -33 -2 -33 -43v-125c0 -81 -3 -131 -15 -180s-37 -74 -74 -74c-52 0 -78 26 -78 77c0 32 23 56 55 56c29 0 49 -21 49 -49c0 -20 -23 -40 -23 -49c0 -10 6 -15 18 -15
c9 0 17 5 25 16c16 23 31 95 31 208v135c0 29 -8 43 -24 43h-45v12h388v-12h-71v-160h84c120 0 181 -46 181 -122c0 -79 -58 -132 -177 -132z" />
    <glyph glyph-name="afii10107" unicode="&#x45a;" horiz-adv-x="770" 
d="M579 0h-262v12h60v214h-167v-214h60v-12h-239v12h65v402h-65v12h239v-12h-60v-176h167v176h-60v12h239v-12h-71v-176h89c109 0 171 -41 171 -114c0 -75 -59 -124 -166 -124zM635 124c0 73 -25 102 -84 102h-66v-214h70c57 0 80 32 80 112z" />
    <glyph glyph-name="afii10108" unicode="&#x45b;" horiz-adv-x="573" 
d="M559 12v-12h-241v12h62v309c0 68 -19 102 -58 102c-60 0 -94 -30 -117 -99v-312h63v-12h-243v12h65v555h-65v12h65v144h-65v12h180v-156h195v-12h-195v-210c17 52 65 78 117 78c108 0 173 -62 173 -167v-256h64z" />
    <glyph glyph-name="afii10109" unicode="&#x45c;" horiz-adv-x="534" 
d="M261 219h-51v-207h60v-12h-239v12h65v402h-65v12h239v-12h-60v-183h50c27 0 44 13 55 38c12 25 15 40 20 72c5 28 9 41 20 61c12 20 32 29 63 29c36 0 68 -21 68 -64c0 -31 -16 -56 -49 -56s-52 22 -52 49c0 19 20 41 20 45c0 7 -3 10 -8 10c-25 0 -42 -26 -51 -79
c-10 -64 -29 -100 -56 -108c105 0 157 -41 157 -123v-18c0 -43 14 -73 37 -73c16 0 31 8 44 23l8 -9c-22 -23 -51 -35 -86 -35c-30 0 -57 9 -82 28s-37 48 -37 87v37c0 55 -17 74 -70 74zM172 504l-5 5l140 153c15 15 29 23 42 23c23 0 40 -19 40 -40c0 -14 -7 -25 -21 -32z
" />
    <glyph glyph-name="afii10110" unicode="&#x45e;" horiz-adv-x="465" 
d="M405 372l-235 -608c-21 -54 -53 -81 -98 -81c-43 0 -76 37 -76 80c0 35 24 63 56 63c29 0 48 -19 48 -42c0 -16 -24 -40 -24 -56c0 -17 5 -25 14 -25c29 0 52 20 67 59l86 224l-207 428h-60v12h254v-12h-70l140 -288l94 246c11 28 6 42 -15 42h-43v12h153v-12h-37
c-25 0 -32 -5 -47 -42zM407 591c0 -31 -15 -55 -46 -72s-65 -25 -102 -25c-39 0 -74 8 -103 24c-29 17 -43 41 -43 73s26 60 58 60c27 0 51 -20 51 -45c0 -14 -8 -26 -24 -37c-16 -10 -24 -19 -24 -27c0 -23 34 -36 85 -36c58 0 87 12 87 36c0 5 -9 15 -26 28
c-15 10 -23 22 -23 36c0 27 25 45 52 45c32 0 58 -28 58 -60z" />
    <glyph glyph-name="afii10193" unicode="&#x45f;" horiz-adv-x="587" 
d="M556 0h-256v-6c0 -20 8 -41 25 -62s25 -41 25 -58c0 -33 -25 -59 -56 -59s-56 26 -56 59c0 16 8 35 25 56s25 42 25 63v7h-257v12h65v402h-65v12h239v-12h-60v-402h167v402h-60v12h239v-12h-65v-402h65v-12z" />
    <glyph glyph-name="afii10050" unicode="&#x490;" horiz-adv-x="546" 
d="M526 885v-230h-272v-643h96v-12h-314v12h85v643h-85v12h289c63 0 110 21 143 64s49 94 49 154h9z" />
    <glyph glyph-name="afii10098" unicode="&#x491;" horiz-adv-x="419" 
d="M409 577v-163h-197v-402h80v-12h-259v12h65v402h-65v12h222c47 0 82 15 107 44c25 30 37 66 37 107h10z" />
    <glyph glyph-name="Wgrave" unicode="&#x1e80;" horiz-adv-x="939" 
d="M322 -14h-20l-251 669h-91v12h318v-12h-86l181 -484l104 319l-57 165h-95v12h332v-12h-100l167 -484l148 449c12 31 -12 35 -17 35h-63v12h189v-12h-58c-20 0 -31 -7 -42 -40l-208 -629h-18l-172 491zM437 885l140 -153l-5 -5l-196 109c-14 7 -21 18 -21 32
c0 21 17 40 40 40c13 0 27 -8 42 -23z" />
    <glyph glyph-name="wgrave" unicode="&#x1e81;" horiz-adv-x="737" 
d="M252 -8h-20l-194 422h-62v12h254v-12h-68l125 -290l81 217l-35 73h-51v12h245v-12h-69l127 -287l95 245c12 33 6 42 -19 42h-41v12h149v-12h-35c-23 0 -31 -10 -43 -42l-142 -380h-20l-154 333zM336 662l140 -153l-5 -5l-196 109c-14 7 -21 18 -21 32c0 21 17 40 40 40
c13 0 27 -8 42 -23z" />
    <glyph glyph-name="Wacute" unicode="&#x1e82;" horiz-adv-x="939" 
d="M322 -14h-20l-251 669h-91v12h318v-12h-86l181 -484l104 319l-57 165h-95v12h332v-12h-100l167 -484l148 449c12 31 -12 35 -17 35h-63v12h189v-12h-58c-20 0 -31 -7 -42 -40l-208 -629h-18l-172 491zM441 727l-5 5l140 153c15 15 29 23 42 23c23 0 40 -19 40 -40
c0 -14 -7 -25 -21 -32z" />
    <glyph glyph-name="wacute" unicode="&#x1e83;" horiz-adv-x="737" 
d="M252 -8h-20l-194 422h-62v12h254v-12h-68l125 -290l81 217l-35 73h-51v12h245v-12h-69l127 -287l95 245c12 33 6 42 -19 42h-41v12h149v-12h-35c-23 0 -31 -10 -43 -42l-142 -380h-20l-154 333zM320 504l-5 5l140 153c15 15 29 23 42 23c23 0 40 -19 40 -40
c0 -14 -7 -25 -21 -32z" />
    <glyph glyph-name="Wdieresis" unicode="&#x1e84;" horiz-adv-x="939" 
d="M322 -14h-20l-251 669h-91v12h318v-12h-86l181 -484l104 319l-57 165h-95v12h332v-12h-100l167 -484l148 449c12 31 -12 35 -17 35h-63v12h189v-12h-58c-20 0 -31 -7 -42 -40l-208 -629h-18l-172 491zM466 808c0 -39 -28 -69 -67 -69c-35 0 -63 30 -63 69
c0 35 28 63 63 63c39 0 67 -27 67 -63zM662 808c0 -39 -28 -69 -67 -69c-35 0 -63 30 -63 69c0 35 28 63 63 63c39 0 67 -27 67 -63z" />
    <glyph glyph-name="wdieresis" unicode="&#x1e85;" horiz-adv-x="737" 
d="M252 -8h-20l-194 422h-62v12h254v-12h-68l125 -290l81 217l-35 73h-51v12h245v-12h-69l127 -287l95 245c12 33 6 42 -19 42h-41v12h149v-12h-35c-23 0 -31 -10 -43 -42l-142 -380h-20l-154 333zM525 634c23 -21 23 -59 0 -80c-21 -21 -58 -21 -81 0s-23 59 0 80
s60 21 81 0zM369 594c0 -31 -27 -56 -56 -56c-33 0 -58 24 -58 56c0 33 25 56 58 56c29 0 56 -24 56 -56z" />
    <glyph glyph-name="Ygrave" unicode="&#x1ef2;" horiz-adv-x="606" 
d="M476 0h-303v12h86v279l-179 364h-93v12h331v-12h-97l166 -338l136 298c12 27 8 40 -13 40h-64v12h188v-12h-55c-18 0 -34 -15 -48 -45l-141 -311v-287h86v-12zM270 885l140 -153l-5 -5l-196 109c-14 7 -21 18 -21 32c0 21 17 40 40 40c13 0 27 -8 42 -23z" />
    <glyph glyph-name="ygrave" unicode="&#x1ef3;" horiz-adv-x="465" 
d="M72 -317c-43 0 -76 37 -76 80c0 35 24 63 56 63c29 0 48 -19 48 -42c0 -16 -24 -40 -24 -56c0 -17 5 -25 14 -25c29 0 52 20 67 59l86 224l-207 428h-60v12h254v-12h-70l140 -288l94 246c11 28 6 42 -15 42h-43v12h153v-12h-37c-25 0 -32 -5 -47 -42l-235 -608
c-21 -54 -53 -81 -98 -81zM200 662l140 -153l-5 -5l-196 109c-14 7 -21 18 -21 32c0 21 17 40 40 40c13 0 27 -8 42 -23z" />
    <glyph glyph-name="endash" unicode="&#x2013;" horiz-adv-x="500" 
d="M486 246v-20h-472v20h472z" />
    <glyph glyph-name="emdash" unicode="&#x2014;" horiz-adv-x="1000" 
d="M972 246v-20h-944v20h944z" />
    <glyph glyph-name="quoteleft" unicode="&#x2018;" horiz-adv-x="221" 
d="M173 683l2 -15c-15 -3 -30 -14 -44 -31s-21 -34 -21 -51c0 -24 11 -44 33 -61c15 -12 22 -28 22 -49c0 -35 -26 -62 -58 -62c-40 0 -60 26 -60 77c0 34 12 72 37 113s54 68 89 79z" />
    <glyph glyph-name="quoteright" unicode="&#x2019;" horiz-adv-x="221" 
d="M174 606c0 -34 -12 -72 -37 -113s-54 -68 -89 -79l-2 15c15 3 30 14 44 31s21 34 21 51c0 23 -11 44 -33 61c-15 12 -22 28 -22 49c0 35 26 62 58 62c40 0 60 -26 60 -77z" />
    <glyph glyph-name="quotesinglbase" unicode="&#x201a;" horiz-adv-x="221" 
d="M174 34c0 -34 -12 -72 -37 -113s-54 -68 -89 -79l-2 15c15 3 30 14 44 31s21 34 21 51c0 23 -11 44 -33 61c-15 12 -22 28 -22 49c0 35 26 62 58 62c40 0 60 -26 60 -77z" />
    <glyph glyph-name="quotedblleft" unicode="&#x201c;" horiz-adv-x="409" 
d="M361 683l2 -15c-15 -3 -30 -14 -44 -31s-21 -34 -21 -51c0 -24 11 -44 33 -61c15 -12 22 -28 22 -49c0 -35 -26 -62 -58 -62c-40 0 -60 26 -60 77c0 34 12 72 37 113s54 68 89 79zM173 683l2 -15c-15 -3 -30 -14 -44 -31s-21 -34 -21 -51c0 -24 11 -44 33 -61
c15 -12 22 -28 22 -49c0 -35 -26 -62 -58 -62c-40 0 -60 26 -60 77c0 34 12 72 37 113s54 68 89 79z" />
    <glyph glyph-name="quotedblright" unicode="&#x201d;" horiz-adv-x="409" 
d="M362 606c0 -34 -12 -72 -37 -113s-54 -68 -89 -79l-2 15c15 3 30 14 44 31s21 34 21 51c0 23 -11 44 -33 61c-15 12 -22 28 -22 49c0 35 26 62 58 62c40 0 60 -26 60 -77zM174 606c0 -34 -12 -72 -37 -113s-54 -68 -89 -79l-2 15c15 3 30 14 44 31s21 34 21 51
c0 23 -11 44 -33 61c-15 12 -22 28 -22 49c0 35 26 62 58 62c40 0 60 -26 60 -77z" />
    <glyph glyph-name="quotedblbase" unicode="&#x201e;" horiz-adv-x="409" 
d="M362 34c0 -34 -12 -72 -37 -113s-54 -68 -89 -79l-2 15c15 3 30 14 44 31s21 34 21 51c0 23 -11 44 -33 61c-15 12 -22 28 -22 49c0 35 26 62 58 62c40 0 60 -26 60 -77zM174 34c0 -34 -12 -72 -37 -113s-54 -68 -89 -79l-2 15c15 3 30 14 44 31s21 34 21 51
c0 23 -11 44 -33 61c-15 12 -22 28 -22 49c0 35 26 62 58 62c40 0 60 -26 60 -77z" />
    <glyph glyph-name="dagger" unicode="&#x2020;" horiz-adv-x="500" 
d="M444 453c0 -24 -15 -44 -38 -44c-11 0 -33 7 -64 21s-55 21 -71 21c-8 0 -13 0 -16 -1v-13c0 -79 16 -138 47 -175c-32 -97 -48 -231 -48 -404h-9c0 173 -16 307 -48 404c31 37 47 96 47 175v13c-3 1 -8 1 -16 1c-16 0 -40 -7 -71 -21s-53 -21 -64 -21
c-23 0 -38 20 -38 44c0 25 18 45 43 45c10 0 25 -4 46 -12c48 -19 81 -28 100 -28v20c0 16 -1 29 -6 46c-3 9 -5 16 -6 20c-1 5 -5 13 -10 26s-8 23 -10 28c-6 17 -9 29 -9 37c0 27 19 48 47 48c27 0 46 -21 46 -48c0 -8 -3 -20 -9 -37c-2 -5 -6 -15 -11 -28s-8 -21 -9 -26
c-6 -17 -12 -45 -12 -66v-20c19 0 52 9 100 28c21 8 36 12 46 12c25 0 43 -20 43 -45z" />
    <glyph glyph-name="daggerdbl" unicode="&#x2021;" horiz-adv-x="500" 
d="M444 83c0 -25 -18 -45 -43 -45c-10 0 -25 4 -46 12c-47 19 -79 28 -97 28h-3v-15c0 -21 2 -38 5 -52c4 -14 12 -35 23 -63c9 -21 13 -37 13 -47c0 -25 -18 -48 -45 -48c-29 0 -48 21 -48 48c0 10 4 26 13 47c11 28 19 49 22 63c4 14 6 31 6 52v15h-3
c-18 0 -50 -9 -97 -28c-21 -8 -36 -12 -46 -12c-25 0 -43 20 -43 45c0 12 3 22 10 31s17 13 28 13s35 -7 70 -21c28 -14 52 -21 71 -21c5 0 8 0 10 1v17c0 71 -15 126 -44 165c29 39 44 94 44 165v17c-2 1 -5 1 -10 1c-19 0 -43 -7 -71 -21c-35 -14 -59 -21 -70 -21
c-23 0 -38 20 -38 44c0 25 18 45 43 45c10 0 25 -4 46 -12c47 -19 79 -28 97 -28h3v15c0 21 -2 38 -6 52c-3 14 -11 35 -22 63c-9 21 -13 37 -13 47c0 27 19 48 48 48c27 0 45 -23 45 -48c0 -10 -4 -26 -13 -47c-11 -28 -19 -49 -23 -63c-3 -14 -5 -31 -5 -52v-15h3
c18 0 50 9 97 28c21 8 36 12 46 12c25 0 43 -20 43 -45c0 -24 -15 -44 -38 -44c-12 0 -35 7 -70 21c-28 14 -52 21 -71 21c-5 0 -8 0 -10 -1v-17c0 -71 15 -126 44 -165c-29 -39 -44 -94 -44 -165v-17c2 -1 5 -1 10 -1c19 0 43 7 71 21c35 14 58 21 70 21
c23 0 38 -20 38 -44z" />
    <glyph glyph-name="bullet" unicode="&#x2022;" horiz-adv-x="343" 
d="M259 446c25 -25 37 -56 37 -92s-12 -67 -37 -93c-24 -25 -53 -38 -87 -38s-63 13 -88 38c-24 25 -36 56 -36 93s12 68 36 93c25 25 54 38 88 38s63 -13 87 -39z" />
    <glyph glyph-name="ellipsis" unicode="&#x2026;" horiz-adv-x="617" 
d="M577 52c0 -37 -26 -65 -63 -65c-35 0 -60 28 -60 65c0 33 27 59 60 59c36 0 63 -26 63 -59zM370 52c0 -37 -26 -65 -63 -65c-33 0 -59 28 -59 65c0 33 26 59 59 59c37 0 63 -26 63 -59zM164 52c0 -37 -26 -65 -63 -65c-33 0 -59 28 -59 65c0 33 26 59 59 59
c36 0 63 -26 63 -59z" />
    <glyph glyph-name="perthousand" unicode="&#x2030;" horiz-adv-x="1031" 
d="M195 344c-42 0 -77 16 -104 48s-41 71 -41 117c0 47 14 86 41 118s62 48 104 48c43 0 79 -16 106 -48c28 -32 42 -71 42 -118s-14 -86 -42 -118c-27 -31 -63 -47 -106 -47zM257 509c0 61 -4 102 -12 123s-25 32 -50 32c-23 0 -39 -11 -48 -32c-8 -21 -12 -62 -12 -123
c0 -136 20 -154 60 -154c24 0 40 10 49 29s13 61 13 125zM542 693l17 -10l-405 -706l-15 11zM478 -8c-42 0 -77 16 -104 48s-41 71 -41 117c0 47 14 86 41 118s62 48 104 48c43 0 79 -16 106 -48c28 -32 42 -71 42 -118s-14 -86 -42 -118c-27 -31 -63 -47 -106 -47zM540 157
c0 61 -4 102 -12 123s-25 32 -50 32c-23 0 -39 -11 -48 -32c-8 -21 -12 -62 -12 -123c0 -136 20 -154 60 -154c24 0 40 10 49 29s13 61 13 125zM833 -8c-42 0 -77 16 -104 48s-41 71 -41 117c0 47 14 86 41 118s62 48 104 48c43 0 79 -16 106 -48c28 -32 42 -71 42 -118
s-14 -86 -42 -118c-27 -31 -63 -47 -106 -47zM895 157c0 61 -4 102 -12 123s-25 32 -50 32c-23 0 -39 -11 -48 -32c-8 -21 -12 -62 -12 -123c0 -136 20 -154 60 -154c24 0 40 10 49 29s13 61 13 125z" />
    <glyph glyph-name="guilsinglleft" unicode="&#x2039;" horiz-adv-x="218" 
d="M186 60h-21c0 36 -24 76 -59 105s-56 44 -76 55v4c20 11 41 26 76 55s59 69 59 105h21c0 -30 -6 -61 -18 -92c-11 -31 -24 -55 -38 -70c14 -15 27 -39 38 -71c12 -31 18 -62 18 -91z" />
    <glyph glyph-name="guilsinglright" unicode="&#x203a;" horiz-adv-x="218" 
d="M186 224v-4c-20 -11 -41 -26 -76 -55s-59 -69 -59 -105h-21c0 29 6 60 17 91c12 32 25 56 39 71c-14 15 -27 39 -39 70c-11 31 -17 62 -17 92h21c0 -36 24 -76 59 -105s56 -44 76 -55z" />
    <glyph glyph-name="fraction" unicode="&#x2044;" horiz-adv-x="500" 
d="M444 681l19 -10l-408 -687l-18 11z" />
    <glyph glyph-name="four.superior" unicode="&#x2074;" horiz-adv-x="330" 
d="M295 278v-11h-164v11h46v119h-149v7c19 27 33 49 42 66l104 197c13 -4 30 -1 52 9c23 11 39 21 49 30l9 -6l-242 -292h135v63c25 1 52 31 61 52h11v-115h66v-11h-66v-119h46z" />
    <glyph glyph-name="one.inferior" unicode="&#x2081;" horiz-adv-x="330" 
d="M253 11v-11h-164v11h46v378h-46v11h118v-389h46z" />
    <glyph glyph-name="two.inferior" unicode="&#x2082;" horiz-adv-x="330" 
d="M93 60v-3h119c39 0 55 13 55 46h8v-103h-233v20l98 104c30 37 49 68 58 91s14 54 14 93c0 65 -18 89 -59 89c-27 0 -50 -14 -50 -38c0 -7 6 -21 6 -26c0 -12 -12 -24 -31 -24c-21 0 -31 10 -31 30c0 15 11 29 33 44s46 23 73 23c35 0 65 -9 91 -26c27 -17 40 -42 40 -77
c0 -29 -21 -64 -38 -84c-9 -9 -24 -25 -46 -47s-38 -39 -49 -50z" />
    <glyph glyph-name="three.inferior" unicode="&#x2083;" horiz-adv-x="330" 
d="M286 117c0 -37 -16 -66 -48 -89c-31 -22 -65 -33 -102 -33c-28 0 -52 7 -73 20c-20 14 -30 29 -30 44c0 17 10 33 31 33c19 0 30 -14 30 -26c0 -7 -5 -17 -5 -25c0 -23 16 -35 47 -35c28 0 47 6 58 19s17 42 17 87s-4 73 -12 86c-7 13 -21 19 -40 19
c-13 0 -30 -6 -53 -18l-5 9c37 18 60 33 69 46c10 13 15 39 15 76c0 52 -9 63 -42 63c-23 0 -40 -12 -40 -31c0 -8 6 -17 6 -24c0 -13 -11 -27 -31 -27s-30 11 -30 33c0 12 10 25 29 38c20 14 42 21 66 21c68 0 115 -26 115 -78c0 -21 -13 -42 -38 -63
c-25 -20 -46 -32 -64 -36c4 0 11 1 14 1c72 -3 116 -51 116 -110z" />
    <glyph glyph-name="four.inferior" unicode="&#x2084;" horiz-adv-x="330" 
d="M295 11v-11h-164v11h46v119h-149v7c19 27 33 49 42 66l104 197c13 -4 30 -1 52 9c23 11 39 21 49 30l9 -6l-242 -292h135v63c25 1 52 31 61 52h11v-115h66v-11h-66v-119h46z" />
    <glyph glyph-name="Euro" unicode="&#x20ac;" horiz-adv-x="556" 
d="M14 391v12h64c9 83 38 150 85 202c48 52 106 78 174 78c92 0 138 -47 138 -102c0 -29 -28 -55 -61 -55c-34 0 -51 15 -51 45c0 17 22 40 22 60c0 23 -21 41 -48 41c-56 0 -94 -31 -114 -86s-26 -108 -29 -183h188v-12h-188v-48v-43h188v-12h-188c1 -84 8 -139 25 -196
s53 -88 104 -88c63 0 100 27 136 82l11 -6c-38 -59 -87 -88 -147 -88c-65 0 -120 27 -165 80s-71 125 -80 216h-64v12h63c-1 19 -2 34 -2 45c0 21 1 36 2 46h-63z" />
    <glyph glyph-name="afii61289" unicode="&#x2113;" horiz-adv-x="500" 
d="M329 34c26 0 58 16 97 48l13 -17c-47 -53 -98 -79 -151 -79c-88 0 -149 50 -149 146v86l-61 -56l-16 18l77 77v229c0 70 18 127 55 170s79 65 124 65c63 0 101 -48 101 -119c0 -95 -52 -187 -167 -307v-153c0 -72 26 -108 77 -108zM349 607c0 52 -18 91 -49 91
c-27 0 -48 -32 -48 -91v-272c64 76 97 177 97 272z" />
    <glyph glyph-name="afii61352" unicode="&#x2116;" horiz-adv-x="813" 
d="M466 -12l-337 656v-603c0 -19 11 -29 34 -29h52v-12h-183v12h52c22 0 33 10 33 29v614h-86v12h193l250 -455v415c0 19 -11 28 -33 28h-52v12h183v-12h-51c-23 0 -35 -9 -35 -28v-639h-20zM660 226c-28 0 -54 12 -77 37s-34 55 -34 88s11 62 34 87s49 37 77 37
c29 0 55 -12 78 -37s35 -54 35 -87s-12 -63 -35 -88s-49 -37 -78 -37zM770 182v-12h-217v12h217zM704 316v41c0 44 -3 73 -8 87s-17 21 -36 21c-28 0 -42 -29 -42 -88v-59c0 -54 14 -81 42 -81c29 0 44 26 44 79z" />
    <glyph glyph-name="trademark" unicode="&#x2122;" horiz-adv-x="899" 
d="M371 667v-137h-7c0 72 -40 130 -115 130h-11v-386h50v-7h-182v7h52v386h-12c-73 0 -112 -58 -112 -130h-7v137h344zM392 267v7h31c13 0 20 6 20 18v368h-51v7h134l101 -281l90 281h132v-7h-51v-386h51v-7h-182v7h51v375l-123 -389h-6l-139 390v-358c0 -12 7 -18 21 -18
h35v-7h-114z" />
    <glyph glyph-name="Omega" unicode="&#x2126;" horiz-adv-x="718" 
d="M198 416c0 -75 8 -132 25 -170s51 -64 102 -79v-167h-253l-11 184h9c3 -8 10 -34 11 -38c1 -2 2 -7 4 -14c4 -13 7 -11 12 -20c8 -13 34 -16 73 -16h143v64c-69 9 -129 38 -179 85c-49 47 -74 104 -74 171c0 83 29 149 86 196c58 47 129 71 213 71s155 -24 212 -71
c58 -47 87 -113 87 -196c0 -67 -25 -124 -75 -171c-49 -47 -109 -76 -178 -85v-64h143c39 0 65 3 73 16c5 9 8 7 12 20c2 7 3 12 4 14c1 4 8 30 11 38h9l-11 -184h-253v167c51 15 84 41 101 79s26 95 26 170c0 173 -42 256 -161 256s-161 -83 -161 -256z" />
    <glyph glyph-name="estimated" unicode="&#x212e;" horiz-adv-x="600" 
d="M561 259h-404v-181c39 -39 88 -59 145 -59c81 0 146 40 193 120l35 -21c-61 -96 -124 -135 -228 -135c-77 0 -139 26 -187 79c-47 53 -71 118 -71 197s24 145 71 197c47 53 110 79 187 79s139 -26 186 -77c48 -51 72 -118 73 -199zM157 440v-145h291v145
c-42 40 -91 60 -147 60s-104 -20 -144 -60z" />
    <glyph glyph-name="partialdiff" unicode="&#x2202;" horiz-adv-x="537" 
d="M500 361c0 -93 -15 -174 -52 -250c-36 -76 -109 -124 -208 -124c-63 0 -116 22 -159 65c-43 44 -65 97 -65 160c0 59 21 111 62 155s92 66 151 66c55 0 106 -22 154 -67c0 3 -1 15 -2 34c-1 20 -2 33 -3 40s-2 19 -5 38c-4 39 -7 46 -16 77c-9 32 -18 42 -35 63
c-23 31 -55 41 -102 44c-43 0 -81 -16 -114 -48l-44 62c50 29 103 43 159 43c104 0 180 -41 220 -110c41 -69 59 -149 59 -248zM381 309c-38 45 -81 67 -128 67c-41 0 -72 -18 -93 -53c-20 -35 -30 -74 -30 -119c0 -42 10 -80 29 -113s49 -50 88 -50c85 0 130 89 134 268z
" />
    <glyph glyph-name="increment" unicode="&#x2206;" horiz-adv-x="581" 
d="M300 681l251 -681h-521l252 681h18zM52 12h355l-173 497z" />
    <glyph glyph-name="product" unicode="&#x220f;" horiz-adv-x="778" 
d="M744 -202v-12h-295v12c32 0 49 0 63 8c12 10 18 24 18 58v855c0 47 -7 55 -55 55h-178c-37 0 -50 -5 -50 -41v-869c0 -33 2 -51 18 -58c17 -8 24 -8 63 -8v-12h-294v12c41 0 46 -1 62 7c17 8 18 24 18 59v863c0 21 -8 36 -27 41s-29 6 -53 6v12h710v-12
c-37 0 -46 0 -62 -8s-19 -25 -19 -60v-863c0 -27 17 -42 51 -45h30z" />
    <glyph glyph-name="summation" unicode="&#x2211;" horiz-adv-x="722" 
d="M648 7h13l-10 -221h-608l324 533l-314 467h579l11 -213h-13c-9 80 -35 117 -112 117h-380l249 -371l-259 -431h397c52 0 77 3 94 24s21 39 29 95z" />
    <glyph glyph-name="minus" unicode="&#x2212;" horiz-adv-x="600" 
d="M549 271v-54h-500v54h500z" />
    <glyph glyph-name="uni2219" unicode="&#x2219;" horiz-adv-x="221" 
d="M175 355c0 -39 -28 -69 -67 -69c-35 0 -63 30 -63 69c0 35 28 63 63 63c39 0 67 -27 67 -63z" />
    <glyph glyph-name="radical" unicode="&#x221a;" horiz-adv-x="481" 
d="M399 786h43l-180 -1000h-51l-159 354l-46 -21l-19 36l93 42l154 -345z" />
    <glyph glyph-name="infinity" unicode="&#x221e;" horiz-adv-x="741" 
d="M690 246c0 -43 -14 -80 -43 -110s-64 -45 -107 -45c-75 0 -114 38 -165 113c-51 -69 -99 -109 -170 -109c-43 0 -79 14 -109 43s-45 64 -45 107c0 44 14 81 43 110c29 30 65 45 108 45c59 0 114 -38 165 -114c17 21 28 35 35 43s19 19 34 32c31 28 59 36 98 36
c45 0 82 -14 111 -43c30 -28 45 -64 45 -108zM543 348c-13 0 -28 -6 -40 -11c-11 -5 -29 -21 -38 -29c-8 -7 -27 -28 -34 -35c-5 -7 -27 -31 -28 -34c44 -67 89 -101 136 -101c28 0 52 11 73 32c21 22 31 47 31 75c0 56 -44 103 -100 103zM339 253c-31 39 -54 65 -69 76
c-22 17 -45 25 -68 25c-57 0 -104 -50 -104 -107c0 -56 45 -103 101 -103c40 0 87 36 140 109z" />
    <glyph glyph-name="integral" unicode="&#x222b;" horiz-adv-x="611" 
d="M486 710c0 -31 -23 -53 -52 -53c-63 0 -47 83 -75 83c-11 0 -17 -9 -17 -27c0 -15 1 -39 2 -72s2 -56 2 -71v-571c0 -59 -5 -98 -24 -143c-17 -45 -59 -71 -120 -71c-27 0 -53 7 -76 20s-34 31 -34 56c0 31 23 52 52 52c58 3 51 -85 74 -82c8 0 14 4 15 15c4 8 2 29 2 36
c0 11 -1 30 -2 57c-1 26 -2 45 -2 56v525c0 78 4 132 11 161c19 70 64 105 135 105c26 0 51 -7 74 -20s35 -31 35 -56z" />
    <glyph glyph-name="approxequal" unicode="&#x2248;" horiz-adv-x="600" 
d="M523 396h40c-9 -76 -49 -133 -121 -133c-30 0 -79 12 -146 37s-112 37 -134 37c-44 0 -74 -37 -81 -82h-41c13 90 54 135 123 135c29 0 76 -12 142 -37c67 -24 113 -36 138 -36c43 0 70 26 80 79zM523 230h40c-9 -77 -49 -133 -122 -133c-30 0 -78 12 -145 37
s-112 37 -135 37c-44 0 -73 -37 -80 -82h-41c13 90 54 135 123 135c31 0 78 -12 143 -37c65 -24 111 -36 136 -36c42 0 69 26 81 79z" />
    <glyph glyph-name="notequal" unicode="&#x2260;" horiz-adv-x="600" 
d="M550 176v-54h-287l-76 -142l-47 25l63 117h-153v54h182l70 133h-252v54h281l78 146l46 -25l-64 -121h159v-54h-188l-71 -133h259z" />
    <glyph glyph-name="lessequal" unicode="&#x2264;" horiz-adv-x="600" 
d="M549 131v-60l-499 191v59l499 191v-60l-425 -161zM549 28v-54h-499v54h499z" />
    <glyph glyph-name="greaterequal" unicode="&#x2265;" horiz-adv-x="600" 
d="M547 321v-59l-499 -191v60l424 160l-424 161v60zM547 28v-54h-499v54h499z" />
    <glyph glyph-name="lozenge" unicode="&#x25ca;" horiz-adv-x="593" 
d="M346 747l178 -391l-178 -391h-100l-177 391l177 391h100zM296 70l118 286l-118 285l-118 -285z" />
    <glyph glyph-name="commaaccent" unicode="&#xf6c3;" 
d="M238 -123c0 -32 -11 -67 -34 -105c-23 -39 -50 -64 -83 -76l-5 13c15 5 29 16 43 33s21 34 21 49c0 19 -11 37 -34 54c-13 12 -20 28 -20 47c0 32 24 59 55 59c38 0 57 -25 57 -74z" />
    <glyph glyph-name="cyrbreve" unicode="&#xf6d4;" 
d="M323 591c0 -31 -15 -55 -46 -72s-65 -25 -102 -25c-39 0 -74 8 -103 24c-29 17 -43 41 -43 73s26 60 58 60c27 0 51 -20 51 -45c0 -14 -8 -26 -24 -37c-16 -10 -24 -19 -24 -27c0 -23 34 -36 85 -36c58 0 87 12 87 36c0 5 -9 15 -26 28c-15 10 -23 22 -23 36
c0 27 25 45 52 45c32 0 58 -28 58 -60z" />
    <glyph glyph-name="breve.cap" 
d="M324 818c0 -31 -15 -55 -46 -72s-65 -25 -102 -25c-39 0 -74 8 -103 24c-29 17 -43 41 -43 73s26 60 58 60c27 0 51 -20 51 -45c0 -14 -8 -26 -24 -37c-16 -10 -24 -19 -24 -27c-4 -48 174 -48 172 0c0 5 -9 15 -26 28c-15 10 -23 22 -23 36c0 27 25 45 52 45
c32 0 58 -28 58 -60z" />
    <glyph glyph-name="caron.alt" 
d="M238 664c0 -32 -11 -67 -34 -106c-23 -38 -50 -63 -83 -75l-5 13c15 5 29 16 43 33s21 34 21 49c0 19 -11 37 -34 54c-13 12 -20 28 -20 47c0 32 24 59 55 59c38 0 57 -25 57 -74z" />
    <glyph glyph-name="commaaccent.alt" 
d="M117 586c0 32 11 67 34 105c23 39 50 64 83 76l5 -13c-15 -5 -29 -16 -43 -33s-21 -34 -21 -49c0 -19 11 -37 34 -54c13 -12 20 -28 20 -47c0 -32 -24 -59 -55 -59c-38 0 -57 25 -57 74z" />
    <glyph glyph-name="acute.cap" 
d="M286 854c0 -28 -17 -56 -51 -84c-33 -28 -93 -52 -179 -72l-3 11c63 15 111 62 130 102c20 40 43 78 67 78c21 0 36 -15 36 -35z" />
    <glyph glyph-name="cyrbreve.cap" 
d="M324 818c0 -31 -15 -55 -46 -72s-65 -25 -102 -25c-39 0 -74 8 -103 24c-29 17 -43 41 -43 73s26 60 58 60c27 0 51 -20 51 -45c0 -14 -8 -26 -24 -37c-16 -10 -24 -19 -24 -27c-4 -48 174 -48 172 0c0 5 -9 15 -26 28c-15 10 -23 22 -23 36c0 27 25 45 52 45
c32 0 58 -28 58 -60z" />
    <glyph glyph-name="dieresis.cap" 
d="M144 808c0 -39 -28 -69 -67 -69c-35 0 -63 30 -63 69c0 35 28 63 63 63c39 0 67 -27 67 -63zM340 808c0 -39 -28 -69 -67 -69c-35 0 -63 30 -63 69c0 35 28 63 63 63c39 0 67 -27 67 -63z" />
    <glyph glyph-name="dotaccent.cap" 
d="M241 808c0 -39 -28 -69 -67 -69c-35 0 -63 30 -63 69c0 35 28 63 63 63c39 0 67 -27 67 -63z" />
    <glyph glyph-name="uni018f" unicode="&#x18f;" horiz-adv-x="683" 
d="M339 -5c43 1 74 13 94 35c37 40 56 141 56 303v9h-297v-9c0 -90 4 -157 12 -202c9 -45 39 -78 60 -101s34 -35 75 -35zM341 -16c-81 0 -151 33 -209 101s-87 150 -87 247v22h444c-2 151 -21 245 -56 283c-25 27 -45 34 -85 34c-45 0 -87 -22 -127 -66
c-39 -44 -59 -89 -59 -136h-11v211h11c3 -12 19 -26 43 -26c13 0 37 5 70 14c33 10 58 15 73 15c83 0 152 -34 206 -103s81 -151 81 -247c0 -95 -29 -177 -87 -246c-56 -67 -125 -101 -207 -103z" />
    <glyph glyph-name="uni0259" unicode="&#x259;" horiz-adv-x="524" 
d="M44 231h313c-1 91 -13 149 -36 172c-14 14 -34 21 -61 21c-29 0 -57 -13 -84 -39c-27 -25 -40 -60 -40 -103h-10v145h10c0 -5 10 -17 22 -17c7 0 21 4 41 12c21 9 41 13 61 13c62 0 114 -22 155 -65c42 -43 63 -95 63 -157c0 -61 -22 -113 -65 -157
c-43 -43 -93 -65 -152 -65s-111 22 -154 65c-43 44 -64 96 -64 157c0 6 0 5 1 18zM357 219h-194c0 -100 12 -169 36 -195c14 -14 34 -23 61 -23s47 7 61 21c27 27 36 79 36 191v6z" />
    </font>
</defs>
</svg>
