<svg width="17" height="16" viewBox="0 0 17 16" fill="none" xmlns="http://www.w3.org/2000/svg">
<g id="vuesax/outline/call">
<g id="call">
<path id="Vector" d="M12.1333 15.1663C11.38 15.1663 10.5866 14.9863 9.76665 14.6397C8.96665 14.2997 8.15998 13.833 7.37331 13.2663C6.59331 12.693 5.83998 12.053 5.12665 11.353C4.41998 10.6397 3.77998 9.88634 3.21331 9.11301C2.63998 8.31301 2.17998 7.51301 1.85331 6.73967C1.50665 5.91301 1.33331 5.11301 1.33331 4.35967C1.33331 3.83967 1.42665 3.34634 1.60665 2.88634C1.79331 2.41301 2.09331 1.97301 2.49998 1.59301C3.01331 1.08634 3.59998 0.833008 4.22665 0.833008C4.48665 0.833008 4.75331 0.893008 4.97998 0.999674C5.23998 1.11967 5.45998 1.29967 5.61998 1.53967L7.16665 3.71967C7.30665 3.91301 7.41331 4.09967 7.48665 4.28634C7.57331 4.48634 7.61998 4.68634 7.61998 4.87967C7.61998 5.13301 7.54665 5.37967 7.40665 5.61301C7.30665 5.79301 7.15331 5.98634 6.95998 6.17968L6.50665 6.65301C6.51331 6.67301 6.51998 6.68634 6.52665 6.69967C6.60665 6.83967 6.76665 7.07967 7.07331 7.43967C7.39998 7.81301 7.70665 8.15301 8.01331 8.46634C8.40665 8.85301 8.73331 9.15967 9.03998 9.41301C9.41998 9.73301 9.66665 9.89301 9.81331 9.96634L9.79998 9.99967L10.2866 9.51967C10.4933 9.31301 10.6933 9.15967 10.8866 9.05968C11.2533 8.83301 11.72 8.79301 12.1866 8.98634C12.36 9.05967 12.5466 9.15967 12.7466 9.29967L14.96 10.873C15.2066 11.0397 15.3866 11.253 15.4933 11.5063C15.5933 11.7597 15.64 11.993 15.64 12.2263C15.64 12.5463 15.5666 12.8663 15.4266 13.1663C15.2866 13.4663 15.1133 13.7263 14.8933 13.9663C14.5133 14.3863 14.1 14.6863 13.62 14.8797C13.16 15.0663 12.66 15.1663 12.1333 15.1663ZM4.22665 1.83301C3.85998 1.83301 3.51998 1.99301 3.19331 2.31301C2.88665 2.59967 2.67331 2.91301 2.53998 3.25301C2.39998 3.59967 2.33331 3.96634 2.33331 4.35967C2.33331 4.97967 2.47998 5.65301 2.77331 6.34634C3.07331 7.05301 3.49331 7.78634 4.02665 8.51967C4.55998 9.25301 5.16665 9.96634 5.83331 10.6397C6.49998 11.2997 7.21998 11.913 7.95998 12.453C8.67998 12.9797 9.41998 13.4063 10.1533 13.713C11.2933 14.1997 12.36 14.313 13.24 13.9463C13.58 13.8063 13.88 13.593 14.1533 13.2863C14.3066 13.1197 14.4266 12.9397 14.5266 12.7263C14.6066 12.5597 14.6466 12.3863 14.6466 12.213C14.6466 12.1063 14.6266 11.9997 14.5733 11.8797C14.5533 11.8397 14.5133 11.7663 14.3866 11.6797L12.1733 10.1063C12.04 10.013 11.92 9.94634 11.8066 9.89968C11.66 9.83967 11.6 9.77967 11.3733 9.91967C11.24 9.98634 11.12 10.0863 10.9866 10.2197L10.48 10.7197C10.22 10.973 9.81998 11.033 9.51331 10.9197L9.33331 10.8397C9.05998 10.693 8.73998 10.4663 8.38665 10.1663C8.06665 9.89301 7.71998 9.57301 7.29998 9.15967C6.97331 8.82634 6.64665 8.47301 6.30665 8.07967C5.99331 7.71301 5.76665 7.39967 5.62665 7.13967L5.54665 6.93967C5.50665 6.78634 5.49331 6.69967 5.49331 6.60634C5.49331 6.36634 5.57998 6.15301 5.74665 5.98634L6.24665 5.46634C6.37998 5.33301 6.47998 5.20634 6.54665 5.09301C6.59998 5.00634 6.61998 4.93301 6.61998 4.86634C6.61998 4.81301 6.59998 4.73301 6.56665 4.65301C6.51998 4.54634 6.44665 4.42634 6.35331 4.29967L4.80665 2.11301C4.73998 2.01967 4.65998 1.95301 4.55998 1.90634C4.45331 1.85967 4.33998 1.83301 4.22665 1.83301ZM9.79998 10.0063L9.69331 10.4597L9.87331 9.99301C9.83998 9.98634 9.81331 9.99301 9.79998 10.0063Z" fill="#484747"/>
</g>
</g>
</svg>
