<svg width="24" height="24" viewBox="0 0 24 24" fill="none" xmlns="http://www.w3.org/2000/svg">
<g id="Facebook">
<path id="Vector" d="M12.0264 24.0071H11.9736C5.37142 24.0071 0 18.6341 0 12.0299V11.9771C0 5.37301 5.37142 0 11.9736 0H12.0264C18.6286 0 24 5.37301 24 11.9771V12.0299C24 18.6341 18.6286 24.0071 12.0264 24.0071ZM11.9736 0.812614C5.81904 0.812614 0.812375 5.82076 0.812375 11.9771V12.0299C0.812375 18.1863 5.81904 23.1944 11.9736 23.1944H12.0264C18.181 23.1944 23.1876 18.1863 23.1876 12.0299V11.9771C23.1876 5.82076 18.181 0.812614 12.0264 0.812614H11.9736Z" fill="#1877F2"/>
<path id="Vector_2" d="M13.6144 9.31229V11.8387H16.7388L16.2441 15.2419H13.6144V23.0829C13.0872 23.156 12.5478 23.1942 12.0002 23.1942C11.3682 23.1942 10.7475 23.1438 10.1431 23.0463V15.2419H7.26164V11.8387H10.1431V8.74753C10.1431 6.82976 11.6972 5.27441 13.6152 5.27441V5.27603C13.6209 5.27603 13.6258 5.27441 13.6315 5.27441H16.7396V8.2177H14.7087C14.1051 8.2177 13.6152 8.70771 13.6152 9.31148L13.6144 9.31229Z" fill="#1877F2"/>
</g>
</svg>
