<svg width="24" height="24" viewBox="0 0 24 24" fill="none" xmlns="http://www.w3.org/2000/svg">
<g id="Linkedin">
<path id="Vector" d="M12.0264 24.0071H11.9736C5.37143 24.0071 0 18.6341 0 12.0299V11.9771C0 5.373 5.37143 0 11.9736 0H12.0264C18.6286 0 24 5.373 24 11.9771V12.0299C24 18.6341 18.6286 24.0071 12.0264 24.0071ZM11.9736 0.812614C5.81905 0.812614 0.812375 5.82075 0.812375 11.9771V12.0299C0.812375 18.1863 5.81905 23.1944 11.9736 23.1944H12.0264C18.181 23.1944 23.1876 18.1863 23.1876 12.0299V11.9771C23.1876 5.82075 18.181 0.812614 12.0264 0.812614H11.9736Z" fill="#007EBB"/>
<g id="Group">
<path id="Vector_2" d="M5.9363 8.11607C5.63085 7.83246 5.47894 7.48142 5.47894 7.06373C5.47894 6.64605 5.63166 6.27956 5.9363 5.99514C6.24175 5.71154 6.63494 5.56934 7.11668 5.56934C7.59842 5.56934 7.97618 5.71154 8.28082 5.99514C8.58628 6.27875 8.73818 6.63549 8.73818 7.06373C8.73818 7.49198 8.58546 7.83246 8.28082 8.11607C7.97537 8.39967 7.58786 8.54187 7.11668 8.54187C6.64551 8.54187 6.24175 8.39967 5.9363 8.11607ZM8.48148 9.74292V18.4379H5.73483V9.74292H8.48148Z" fill="#007EBB"/>
<path id="Vector_3" d="M17.6242 10.6021C18.2229 11.2522 18.5218 12.1444 18.5218 13.2805V18.2845H15.9133V13.6331C15.9133 13.0603 15.7646 12.6149 15.4681 12.298C15.1716 11.9811 14.7719 11.8218 14.2715 11.8218C13.7711 11.8218 13.3714 11.9803 13.0749 12.298C12.7783 12.6149 12.6297 13.0603 12.6297 13.6331V18.2845H10.0057V9.71878H12.6297V10.8548C12.8953 10.4761 13.2536 10.1771 13.7037 9.95687C14.1537 9.73665 14.6598 9.62695 15.2228 9.62695C16.2253 9.62695 17.0262 9.952 17.6242 10.6021Z" fill="#007EBB"/>
</g>
</g>
</svg>
