<svg width="17" height="16" viewBox="0 0 17 16" fill="none" xmlns="http://www.w3.org/2000/svg">
<g id="vuesax/outline/location">
<g id="location">
<path id="Vector" d="M8.49998 9.4463C7.07998 9.4463 5.91998 8.29297 5.91998 6.8663C5.91998 5.43964 7.07998 4.29297 8.49998 4.29297C9.91998 4.29297 11.08 5.4463 11.08 6.87297C11.08 8.29964 9.91998 9.4463 8.49998 9.4463ZM8.49998 5.29297C7.63332 5.29297 6.91998 5.99964 6.91998 6.87297C6.91998 7.7463 7.62665 8.45297 8.49998 8.45297C9.37332 8.45297 10.08 7.7463 10.08 6.87297C10.08 5.99964 9.36665 5.29297 8.49998 5.29297Z" fill="#484747"/>
<path id="Vector_2" d="M8.5 15.173C7.51333 15.173 6.51999 14.7997 5.74666 14.0597C3.78 12.1663 1.60666 9.14634 2.42666 5.55301C3.16666 2.29301 6.01333 0.833008 8.5 0.833008C8.5 0.833008 8.5 0.833008 8.50666 0.833008C10.9933 0.833008 13.84 2.29301 14.58 5.55967C15.3933 9.15301 13.22 12.1663 11.2533 14.0597C10.48 14.7997 9.48666 15.173 8.5 15.173ZM8.5 1.83301C6.56 1.83301 4.06666 2.86634 3.40666 5.77301C2.68666 8.91301 4.66 11.6197 6.44666 13.333C7.6 14.4463 9.40666 14.4463 10.56 13.333C12.34 11.6197 14.3133 8.91301 13.6067 5.77301C12.94 2.86634 10.44 1.83301 8.5 1.83301Z" fill="#484747"/>
</g>
</g>
</svg>
