<svg width="17" height="16" viewBox="0 0 17 16" fill="none" xmlns="http://www.w3.org/2000/svg">
<g id="vuesax/outline/sms">
<g id="sms">
<path id="Vector" d="M11.8333 14.1663H5.16665C2.73331 14.1663 1.33331 12.7663 1.33331 10.333V5.66634C1.33331 3.23301 2.73331 1.83301 5.16665 1.83301H11.8333C14.2666 1.83301 15.6666 3.23301 15.6666 5.66634V10.333C15.6666 12.7663 14.2666 14.1663 11.8333 14.1663ZM5.16665 2.83301C3.25998 2.83301 2.33331 3.75967 2.33331 5.66634V10.333C2.33331 12.2397 3.25998 13.1663 5.16665 13.1663H11.8333C13.74 13.1663 14.6666 12.2397 14.6666 10.333V5.66634C14.6666 3.75967 13.74 2.83301 11.8333 2.83301H5.16665Z" fill="#484747"/>
<path id="Vector_2" d="M8.49987 8.57998C7.93987 8.57998 7.37321 8.40665 6.93987 8.05331L4.8532 6.38665C4.63987 6.21331 4.59987 5.89998 4.77321 5.68665C4.94654 5.47331 5.25988 5.43332 5.47321 5.60665L7.55987 7.27332C8.06654 7.67998 8.92654 7.67998 9.4332 7.27332L11.5199 5.60665C11.7332 5.43332 12.0532 5.46665 12.2199 5.68665C12.3932 5.89998 12.3599 6.21998 12.1399 6.38665L10.0532 8.05331C9.62654 8.40665 9.05987 8.57998 8.49987 8.57998Z" fill="#484747"/>
</g>
</g>
</svg>
