<svg width="24" height="24" viewBox="0 0 24 24" fill="none" xmlns="http://www.w3.org/2000/svg">
<g id="vuesax/outline/flash">
<g id="flash">
<path id="Vector" d="M9.99 22.7501C9.79 22.7501 9.63 22.7101 9.51 22.6601C9.11 22.5101 8.43 22.0201 8.43 20.4701V14.0201H6.09C4.75 14.0201 4.27 13.3901 4.1 13.0201C3.93 12.6401 3.78 11.8701 4.66 10.8601L12.23 2.26013C13.25 1.10013 14.08 1.18013 14.48 1.33013C14.88 1.48013 15.56 1.97013 15.56 3.52013V9.97013H17.9C19.24 9.97013 19.72 10.6001 19.89 10.9701C20.06 11.3501 20.21 12.1201 19.33 13.1301L11.76 21.7301C11.05 22.5401 10.43 22.7501 9.99 22.7501ZM13.93 2.74013C13.9 2.78013 13.69 2.88013 13.36 3.26013L5.79 11.8601C5.51 12.1801 5.47 12.3801 5.47 12.4201C5.49 12.4301 5.67 12.5301 6.09 12.5301H9.18C9.59 12.5301 9.93 12.8701 9.93 13.2801V20.4801C9.93 20.9801 10.02 21.2001 10.06 21.2601C10.09 21.2201 10.3 21.1201 10.63 20.7401L18.2 12.1401C18.48 11.8201 18.52 11.6201 18.52 11.5801C18.5 11.5701 18.32 11.4701 17.9 11.4701H14.81C14.4 11.4701 14.06 11.1301 14.06 10.7201V3.52013C14.07 3.02013 13.97 2.81013 13.93 2.74013Z" fill="#FB6535"/>
</g>
</g>
</svg>
