<svg width="24" height="24" viewBox="0 0 24 24" fill="none" xmlns="http://www.w3.org/2000/svg">
<g id="Telegram">
<path id="Vector" d="M12.0264 24.0071H11.9736C5.37142 24.0071 0 18.6341 0 12.0299V11.9771C0 5.37301 5.37142 0 11.9736 0H12.0264C18.6286 0 24 5.37301 24 11.9771V12.0299C24 18.6341 18.6286 24.0071 12.0264 24.0071ZM11.9736 0.812615C5.81904 0.812615 0.812375 5.82076 0.812375 11.9771V12.0299C0.812375 18.1863 5.81904 23.1945 11.9736 23.1945H12.0264C18.181 23.1945 23.1876 18.1863 23.1876 12.0299V11.9771C23.1876 5.82076 18.181 0.812615 12.0264 0.812615H11.9736Z" fill="#00B0F2"/>
<path id="Vector_2" d="M4.79844 11.608C4.83094 11.5918 4.86345 11.5763 4.89513 11.5617C5.44592 11.3066 6.00402 11.0677 6.56131 10.8287C6.59137 10.8287 6.64173 10.7938 6.67016 10.7824C6.71321 10.7637 6.75628 10.7459 6.79933 10.7272C6.8822 10.6914 6.96506 10.6565 7.04711 10.6207C7.21284 10.55 7.37774 10.4793 7.54346 10.4086C7.8741 10.2672 8.20473 10.1258 8.53537 9.98362C9.19664 9.70083 9.85874 9.41723 10.52 9.13444C11.1813 8.85165 11.8434 8.56804 12.5046 8.28525C13.1659 8.00247 13.828 7.71887 14.4893 7.43608C15.1505 7.15329 15.8126 6.86968 16.4739 6.58689C16.621 6.5235 16.7802 6.42925 16.9378 6.40162C17.0702 6.37805 17.1994 6.33254 17.3326 6.30735C17.5852 6.25941 17.8639 6.2399 18.106 6.34473C18.1896 6.3813 18.2668 6.43249 18.331 6.49669C18.6381 6.80061 18.595 7.29955 18.53 7.72699C18.0775 10.706 17.625 13.6859 17.1717 16.6649C17.11 17.0737 17.0255 17.5222 16.703 17.7807C16.43 17.9992 16.0417 18.0236 15.7046 17.931C15.3674 17.8375 15.0701 17.6417 14.7785 17.4491C13.5689 16.6479 12.3584 15.8466 11.1488 15.0454C10.8612 14.8552 10.5411 14.6066 10.5444 14.2612C10.546 14.0532 10.6703 13.8679 10.797 13.703C11.8482 12.3313 13.3649 11.3886 14.4933 10.0803C14.6526 9.89585 14.7777 9.56269 14.5591 9.45624C14.4292 9.39285 14.2797 9.47899 14.1611 9.56107C12.6695 10.5971 11.1789 11.634 9.68733 12.6701C9.20072 13.0082 8.69055 13.356 8.10401 13.4389C7.57922 13.5136 7.05118 13.3674 6.54344 13.2178C6.11776 13.0927 5.69287 12.9643 5.26962 12.8318C5.0446 12.762 4.81226 12.6864 4.63841 12.5279C4.46456 12.3695 4.36465 12.1029 4.46945 11.8916C4.53525 11.7592 4.66279 11.6755 4.79684 11.6072L4.79844 11.608Z" fill="#00B0F2"/>
</g>
</svg>
