<svg width="24" height="24" viewBox="0 0 24 24" fill="none" xmlns="http://www.w3.org/2000/svg">
<g id="X">
<path id="Vector" d="M12.0264 24.0071H11.9736C5.37143 24.0071 0 18.6341 0 12.0299V11.9771C0 5.37301 5.37143 0 11.9736 0H12.0264C18.6286 0 24 5.37301 24 11.9771V12.0299C24 18.6341 18.6286 24.0071 12.0264 24.0071ZM11.9736 0.812615C5.81905 0.812615 0.812375 5.82076 0.812375 11.9771V12.0299C0.812375 18.1863 5.81905 23.1945 11.9736 23.1945H12.0264C18.181 23.1945 23.1876 18.1863 23.1876 12.0299V11.9771C23.1876 5.82076 18.181 0.812615 12.0264 0.812615H11.9736Z" fill="#383D38"/>
<g id="layer1">
<path id="path1009" d="M5.10898 5.65723L10.456 12.8082L5.07567 18.6225H6.28693L10.9979 13.5323L14.8039 18.6225H18.925L13.2774 11.0692L18.2857 5.65723H17.0745L12.7364 10.3452L9.23097 5.65723H5.10979H5.10898ZM6.8897 6.54948H8.78254L17.1427 17.7302H15.2499L6.8897 6.54948Z" fill="#383D38"/>
</g>
</g>
</svg>
